<?xml version="1.0" standalone="no"?>
<!DOCTYPE svg PUBLIC "-//W3C//DTD SVG 1.1//EN" "http://www.w3.org/Graphics/SVG/1.1/DTD/svg11.dtd">
<svg xmlns="http://www.w3.org/2000/svg">
<metadata>Generated by Fontastic.me</metadata>
<defs>
<font id="miur-icons" horiz-adv-x="512">
<font-face font-family="miur-icons" units-per-em="512" ascent="480" descent="-32"/>
<missing-glyph horiz-adv-x="512" />

<glyph glyph-name="attenzione" unicode="&#97;" d="M230 179l52 0 0-51-52 0z m0 205l52 0 0-154-52 0z m26 128c-142 0-256-115-256-256 0-141 114-256 256-256 141 0 256 115 256 256 0 141-115 256-256 256z m0-461c-113 0-205 92-205 205 0 113 92 205 205 205 113 0 205-92 205-205 0-113-92-205-205-205z"/>
<glyph glyph-name="calendario" unicode="&#98;" d="M435 461l-26 0 0 51-51 0 0-51-34 0 0 51-51 0 0-51-34 0 0 51-51 0 0-51-35 0 0 51-50 0 0-51-26 0c-29 0-51-23-51-51l0-359c0-28 22-51 51-51l358 0c28 0 51 23 51 51l0 359c0 28-23 51-51 51z m0-410l-358 0 0 282 358 0z m-102 103l51 0 0-52-51 0z m-103 0l52 0 0-52-52 0z m-102 0l51 0 0-52-51 0z m102 128l52 0 0-52-52 0z m103 0l51 0 0-52-51 0z m-205 0l51 0 0-52-51 0z"/>
<glyph glyph-name="contesti" unicode="&#99;" d="M256 384l0 102-256 0 0-460 512 0 0 358z m-154-307l-51 0 0 51 51 0z m0 102l-51 0 0 51 51 0z m0 103l-51 0 0 51 51 0z m0 102l-51 0 0 51 51 0z m103-307l-51 0 0 51 51 0z m0 102l-51 0 0 51 51 0z m0 103l-51 0 0 51 51 0z m0 102l-51 0 0 51 51 0z m256-307l-205 0 0 51 51 0 0 51-51 0 0 51 51 0 0 52-51 0 0 51 205 0z m-51 205l-52 0 0-52 52 0z m0-103l-52 0 0-51 52 0z"/>
<glyph glyph-name="dettaglio" unicode="&#100;" d="M130 318c0 1 0 1 0 1 0 0 0 0 0-1z m252 1c0 0 0 0 0-1 0 1 0 1 0 1z m2-20c0 7-1 13-2 19 1-6 1-13 2-19 0 0 0 0 0 0z m-7 42c2-7 4-14 5-22-1 8-3 15-5 22z m-242 0c-2-7-4-14-5-22 1 8 3 15 5 22z m-7-42c0 0 0 0 0 0 1 6 1 13 2 19-1-6-2-12-2-19z m128 132c-112 0-208-71-256-175 48-104 144-175 256-175 112 0 208 71 256 175-48 104-144 175-256 175z m0-119c0-29-21-53-48-53-27 0-48 24-48 53 0 29 21 52 48 52 27 0 48-23 48-52z m126-138c-38-26-81-40-126-40-45 0-88 14-126 40-30 21-56 49-75 82 19 33 45 61 75 82 2 1 4 3 6 4 0 0 0-1-1-1-2-7-4-14-5-22 0 0 0 0 0-1-1-6-1-13-2-19 1-70 58-127 128-127 70 0 127 57 128 127-1 6-1 13-2 19 0 1 0 1 0 1-1 8-3 15-5 22-1 0-1 1-1 1 2-1 4-3 6-4 30-21 56-49 75-82-19-33-45-61-75-82z"/>
<glyph glyph-name="freccia-avanti" unicode="&#101;" d="M102 446l190-190-190-190 59-59 249 249-249 249z"/>
<glyph glyph-name="freccia-giu" unicode="&#102;" d="M446 410l-190-190-190 190-59-59 249-249 249 249z"/>
<glyph glyph-name="freccia-indietro" unicode="&#103;" d="M410 446l-190-190 190-190-59-59-249 249 249 249z"/>
<glyph glyph-name="freccia-su" unicode="&#104;" d="M446 102l-190 190-190-190-59 59 249 249 249-249z"/>
<glyph glyph-name="hamburger" unicode="&#105;" d="M0 154l0-52 512 0 0 52z m0 128l0-52 512 0 0 52z m0 128l0-52 512 0 0 52z"/>
<glyph glyph-name="hamburger-chiudi" unicode="&#106;" d="M47 512l-47-47 465-465 47 47z m-47-465l47-47 465 465-47 47z"/>
<glyph glyph-name="logo-repubblica" unicode="&#107;" d="M480 272c2 10 1 16-3 19-3 2-8 1-13-3-3 2-7 0-12-4 0 2 1 4 0 6 5 2 8 4 9 7 1 3 2 7 2 12 0 4 4 10 9 19 4 9 2 12-8 9 5 5 8 9 8 12 0 3-1 7-4 12-2 3-3 4-6 2 1 2 1 4 2 7 0 2-2 7-5 15-1 11-3 16-8 14-1 5-3 11-5 16-5 6-8 8-11 5-7 10-13 15-19 13-1 4-2 8-5 12-2 7-4 12-6 14-3 1-5 0-7-5 0 4-1 8-3 12-2 5-6 7-10 7-2 0-3 0-4-1-3 2-6 3-8 3-6 6-11 7-17 2l0 5c-2 7-6 8-11 5-9 9-17 15-23 18-5 1-8 1-10-2-3 3-6 5-9 5-3 1-6 2-8 3-5 0-6-2-6-7-6 0-11-1-13-3-3-2-3-5-2-8 1-4 4-6 8-9-1-1-2-3-1-6 0-2 3-5 8-6 4-1 8-2 12-1-1-4 1-6 5-7 5-6 11-7 19-5l-1-5 11-4c0-5 3-9 7-11l4-2c-1 0-5-3-5-3 0-1-1-3-1-4l-9-8c-5 3-11 6-17 9l1 15-1 1c-3 1-16 5-19 6l-2 1-7-14c-7 1-13 2-20 3l-3 15-1 0c-2 1-7 1-11 1-2 0-5 0-7-1l-1 0c0 0 0 0 0 0l-1 0c0 0 0 0 0 0l-1 0 0 0-1 0-3-15c-7-1-14-2-20-3l-8 14-1-1c-3-1-16-5-19-6l-1-1 1-15c-6-3-11-6-17-9l-12 10-1 0c0 0-1-1-2-2 2 4 3 7 3 9l3 0 2 1c9 4 17 8 24 11l11 6c7 3 15 7 21 13 8 6 12 13 12 20-1 1-5 2-11 2 3 4 5 8 5 12-2 3-9 4-21 1-12-3-23-7-32-14-9-6-18-13-25-22-8-8-14-17-18-26l5 12c3 6 6 13 9 21 1 4 1 6 0 8-1 2-3 2-5 1-3 0-9-4-16-11-8-8-16-19-22-31-6-13-11-22-13-30 1 8 1 15-1 21-1 2-3 3-6 2-3-2-5-5-8-9-3-4-6-8-9-11-2-4-6-9-9-16-4-7-7-15-10-24-3-10-5-22-6-38-1-10-1-20 2-32 3-11 6-19 8-25 3-5 6-8 9-9 1-4 3-11 6-20 2-4 2-8 2-10 0-2 0-4 2-5 1 0 2-2 3-5 2-9 6-17 10-24-1-4-2-8-2-12-8 25-15 44-21 57-10 23-18 34-24 32-3-1-5-4-6-8 0-2 0-6 0-13 1-6 1-13 2-21 6-24 15-44 28-60l20-23c4-4 8-7 11-9 4-1 7-2 10-1 5-7 10-15 17-23 5-6 9-10 14-9 2-4 5-7 9-7l4 1c5-6 10-10 15-13l-5-15c-9-1-18-2-25-2-7 5-17 12-30 21l-1 16c0 5 1 10 3 14 1 3-1 6-5 8-6 3-8 4-11 4-1-1 0-2 0-3l0-1c0 1 0 1 1 1 8-2 11-5 11-8-3-4-4-8-4-13l1-15c-10 7-20 12-31 17 1 0 3 1 4 1 2 0 3 0 3 1 1 1 0 2-3 2-5 0-9 0-10-1-2-2-1-3 0-5 13-6 25-13 35-19 15-10 28-18 36-24 9 0 21 1 36 3l23 4c10 2 20 4 30 5 4 1 8 1 14 1 6 0 11 1 16 1 5-8 8-16 9-23 0-3 0-5-2-5-21-8-36-13-46-15-9-3-18-4-25-6-19-3-38-6-56-8-5 1-18 8-41 20-15 10-27 18-33 24-7 7-10 12-8 14 4 7 7 14 9 20 1 3 1 5 0 6-1 6 0 9 5 10 12 0 20 1 24 0 2 0 3 1 4 2l4 8-3 1-3-5 0 5 0-7-27-1c-3 0-6 0-7-2-2-2-2-6-1-11 1-2 0-4 0-5-1-6-5-13-10-21-1-2-1-3 1-6 1-2 4-6 10-12 2-2 6-5 10-8 5-4 14-9 26-16 14-9 27-16 40-21 3 0 21 2 54 7l1-3c-10-7-16-10-19-9-3 0-5-3-3-8 1-2 3-4 6-5l3-4 10-6c4-1 8-1 11 0 3 1 6 4 7 8l1 1 10 11 8 6c6 1 10 3 12 7 1 3 1 4 3 5l9 7c0 0 4-1 12-5 3-1 6-1 9 0l7 5c6-2 18-10 33-24 0-2 1-3 3-6 2-1 5-3 11-4l3-7 4-1c6 0 11 2 16 6l6 2c3 2 4 4 4 7l-3 2-5 2c-6 3-13 7-19 12l-5 3c20-3 44-6 73-8 4-1 9 1 15 6 6 4 24 17 55 39 4 5 8 10 10 16-2 3-5 7-7 11-2 5-3 9-4 12 0 3 0 6 0 8 1 3 0 5-2 7-1 2-3 2-7 3-5 0-12 0-19-1-3 1-5 2-6 3l0 6c1 3 0 5-2 4-8-2-13-4-14-6-3-2-3-5 0-8 2-2 3-4 3-6-1-12-2-20-3-24-13-11-22-17-27-19-4-2-12-1-25 1-3 3-5 7-7 13 5 3 10 6 15 10 3 1 6 1 8 2 3 1 4 3 4 7 2 1 4 3 5 6l16 18c5 5 10 7 16 8 7 1 17 5 28 12 2 2 2 5 0 9 4 2 9 7 17 16 3 5 4 9 2 15 7 8 11 15 12 20 1 5 1 10 0 15 4 2 6 4 7 5 2 2 2 4 2 7 0 2-1 5-3 6 6 8 6 14 2 20z m-265-235c-8-7-16-14-26-21l-3 1c5 4 13 9 24 17l4 5-2 0c-4-3-8-6-12-9-4-3-10-6-15-9l-8-4 1-1 6-1c4-2 5-4 4-7-1-2-4-3-8-1l-7 4c-2 2-4 4-7 5l-2 2 1 2 8-3 2 0-1 5 10 6c2 1 3 3 3 5l1 5c4-1 8-1 13 2 5 2 10 3 14 4 3-2 3-4 0-7z m198 384c2 2 3 4 3 6 1 1 2 2 5 0 3-1 7-6 13-14 3 3 6 2 8-3 4-6 5-12 4-19 7 4 9 2 7-7 3-6 5-10 5-14 1-3 1-6-1-9-2-3-3-5-3-7 0-1 1-1 2 0 1 2 4 3 7 4 3-5 4-8 3-9 0-2-1-5-3-7-3-2-4-5-4-8 0-2 0-3 2-3l5 2c2 0 2-2 0-6-2-5-4-9-5-12-2-3-2-6-2-8 0-4-1-7-2-7 0 5 0 10-1 16 0 6-1 12-3 19 1 1 3 5 6 13 1 3 1 4-1 1-2-5-4-9-6-10-2 7-4 15-6 24 2 5 4 11 5 17 0 6 0 7-1 2-1-7-3-12-6-16-3 7-5 14-8 21 1 4 1 8 1 13 0 5 0 6-1 1 0-4-1-7-1-10l-6 15-4 9c-1 3-2 3-2 0l4-11c-3 3-5 5-8 6-2 2-2 2-1 0 4-3 7-7 10-11 3-6 5-12 7-18-7 6-11 9-14 10-3 1-3 1 0-2 5-3 11-8 17-16 2-6 5-13 6-19-3 2-7 6-12 12-2 2-2 2 0-1 4-6 8-11 14-15l4-17c-5 4-10 8-17 13-2 2-3 1 0-1 6-4 12-11 18-19 2-5 3-14 2-27 0-4-2-6-7-8l-1-13-7 0c-4 5-6 9-8 11-2 3-5 8-8 13-4 6-6 11-8 14-1 4-2 7-1 10l5 3-1-2c-1-5 0-8 3-7 3 0 4 0 5-1 1-2 1-3 0-6-1-4-2-6-2-8 0-1 1-2 2-3 0 0 2 0 5 1 3 1 4 0 4-2 0-3 0-6 0-9 0-2 1-5 3-7 1-2 3-3 5-4l2 3c-4 0-5 2-5 7 0 5 0 9 0 12-2 3-3 5-5 5-1 1-4 10-9 27l5 0c4-15 8-23 10-24 3-2 4-3 4-4-1-2 0-5 1-10 3 1 5 4 6 9 1 4-1 8-4 10-4 3-6 4-7 6-1 3 0 5 4 6 2 1-3 5-15 13-6 4-7 8-5 11 1 2 3 2 5 0 2-2 4-2 5-1 1 2 0 4-3 5-4 1-5 2-5 3 0 6 0 10 0 12 1 2 1 4 0 7-2 3-6 2-11-1 1 3 1 6 0 9 0 3-2 6-4 8l-2 9c-1 3 0 5 4 6-1 5-1 9 0 12z m-55-265c-4-2-11-8-15-10l-11 10-1 0c-7-4-13-7-20-10l-1-1 2-15c-4-2-13-5-17-6l-8 14-1 0c-7-2-14-3-21-4l-2 0-3-15c-2 0-5 0-8 0-4 0-7 0-9 0l-4 15-1 0c-7 1-14 2-21 4l-1 0-8-14c-4 1-13 4-17 6l2 16-1 0c-7 3-13 6-20 10l-1 0-11-10c-4 2-11 8-15 10l7 15-1 0c-6 6-11 11-15 16l-1 0-14-6c-1 1-1 1-2 2 2 4 6 10 8 17 2 10 4 21 4 26 0 1 0 1 1 1 1 1 2 5 4 10 5-12 13-24 22-35l2-1 40 58-21-69-1-5 4 3 58 40-44-54 3-1c16-8 34-12 52-12 18 0 36 4 52 11l2 1-43 56 59-41 4-3-1 5-20 68 38-58 2 1c14 15 23 32 28 51 4-8 10-16 11-20-4 3-13 3-13-5 0-3 2-7 3-8-1-9 8-15 17-23-1-3 0-4 0-4-2-4-6-9-8-11l-14 6-1 0c-4-6-9-11-15-16l-1-1z m-253 88c-8-14-14-27-18-41-1-4-2-9-3-15-1 8 1 18 4 31 2 10 7 21 13 32l1 0 0 1c2 3 4 6 6 8-2-7-3-12-3-16z m0-47l-6 7 5 11c-1-6 0-12 1-18z m-14 40c-1 2-2 5-2 7l7 4c-2-4-4-7-5-11z m21 27c3 15 7 23 10 24 2-5 4-15 5-29 1-14 1-27 0-38-1-14-4-24-7-29l-3-6-1-1c0 11 1 20 1 27 0 7 0 16 1 28 0 11 1 24 2 39 1 4 0 4-1 3-3-15-4-35-5-58l0-15-1-21-3 4c-3 12-4 25-3 39 0 11 2 22 5 33z m18 35l73-27 0 0 0-1-44-64c-9 11-17 23-22 37 2 9 3 20 3 24-1 3-1 4-2 4-1 0-2 0-2 0l1 3c1 2 1 4 0 4 0 1-4 1-7 0-1 6-1 13 0 20z m92 30l0-1-1 0-74 22c17 29 46 49 78 57z m4-6l0 6 25 73 26-74 0-5 6 1 78-1-62-48-6-2 4-5 22-74-64 44-4 5-3-5-64-44 22 75 4 5-6 2-62 47 78 1z m53 83c33-7 61-28 78-57l-75-21-1 0 0 0z m134-167c-2 1-4 2-5 1 0 0-3-2-4-3-1 0-1 3-1 5 0 1 0 6 0 8l11-7c0-1 0-2-1-4z m-12 13l0-1 0 0c0-1-1-2-1-4 1-9 1-14 2-14 1 0 3 1 4 2 2 2 3 2 4 2 1 0 1-1 2-2-1-3-2-6-3-8 0 0 0 0 0 0l-10 1c0 0 0 1-1 2-1 5-2 5-1-1 0 0 0-1 0-1l-4 0 0-1c-1-1-2-2-2-4 0 1 0 1 0 2 0 1 1 3 2 6 1 3 1 5 1 6 0 0 0 1-1 1 1 0 2 1 2 2 0 1 1 2 0 3 0 1 0 4 0 9 0 4-1 8-2 10 0 3-1 5-1 6 0 1-1 2-3 2-2 0-5-2-9-6 2 8 4 13 5 16 2 2 4 3 6 2 1-1 2-2 3-3 1-2 1-2 2 0 2 2 2 3 3 2 1-1 2-2 2-3 1-2 2-4 2-5 0-1 1-2 1-4-1-5-2-11-3-17z m-3-27c1-7 2-14 2-20-3 3-6 6-9 8-1 0-1 1-1 1 2 4 3 7 5 11z m-11 39c2-2 3-5 4-10 1-5 1-10 0-15l-1-2 1-1c0-1 0-5-1-12 0-1 0-1 0-2-1-2-2-4-3-6-2 1-3 3-5 5-2 1-2 1-1-1 2-2 3-3 5-6-1-2-2-4-3-6l-1-1 1-1c0 0-1 1-1 1-5 4-6 8-5 11-1 2-2 4-3 6-1 2-1 4 1 6 1 2 4 1 10-3 0 3 0 6 0 9-1 3-2 5-4 8-2 4-4 8-6 11-1 1-1 1-1 2 0 2 1 3 1 5 1 0 2-1 3-2 5 5 8 6 9 4z m6-69c0 0 0 1-1 1l1-1c0 0 0 0 0 0z m-21 71c-2 0-4-2-3-5 0-1 0-2 1-4-5-19-14-36-27-51l-43 65 0 0 0 1 73 26c1-11 1-21-1-32z m-121-30l1 0 47-61c-15-7-31-10-48-10-17 0-33 3-49 10l49 61z m-121 39c1 1 2 2 3 2 2 1 3 0 1-3l-3-5c-1 2-1 4-1 6z m2-14c0 1 0 2-1 3l2 3c3 3 4 1 4-4 0-4-1-9-2-14-1 4-2 7-2 10 0 2 0 2-1 2z m2-19c-1-3-2-6-3-10 0 10 0 17-1 20l0 1c1-4 2-7 4-11z m252-35c1 2 2 4 3 5 0-1 1-1 2-2 4-4 7-6 8-8 1-1 1-2 1-3-1-2-3-4-5-6 0 1 1 1 1 2l1 1z m14 17l7 0c-1-2-2-4-2-5-1-2-2-3-3-5 0 2-1 6-2 10z m4-12c1 1 1 3 2 6 1 2 2 4 2 6l3-1 0 1c1 1 1 2 1 4 1-4 1-4 2 0 0 3 2 5 4 5 2 0 2-5 1-15-7-7-12-12-15-16-1 5-1 8 0 10z m15 25c0 0-2 0-4 0 1 3 2 6 3 7l0 1-13 7c1 1 1 2 2 3 1 2 1 8 0 15 0 0 0 1 0 2l16 4 0 1c0 2 0 10 0 16 1-1 1-2 2-3 0 0 7-8 9-15-1-4 0-8 0-8-1-9-3-17-5-24-8 4-9-1-10-6z m-42 133l-2 4c-3 6-1 9 5 9-2 3-3 6-2 8 0 0 0 0 0 0l4 2c2-1 3-3 5-6 1-4 2-8 3-12l-4-4c-2 1-3 2-5 3-3 1-3 1 0-1 1-1 3-2 4-3l-3-3 1-1c2-3 4-7 5-10-1 1-4 2-6 2-3 1-3 1 0-1 3-1 5-2 7-3 1-2 3-5 4-7l0-1c-4 3-9 6-15 9-3 1-4 3-3 6 0 2 2 2 6 2-1 3-3 6-4 7z m-8 20c-4 5-9 10-14 14l6 14c1-2 2-3 4-5 3-3 8-6 13-8 0 0-2-4-3-7 0-2-1-3-1-5z m30-2c2 3 4 5 6 6 2-1 4-3 5-5 2-3 2-10-1-19l-3-7c6 8 11 11 14 11 2-1 2-3 2-5-1-3-1-6 0-9 0-3-1-6-3-8-3-2-4-5-5-9-1 3-2 6-3 7l0 1-3 0c2 4 4 9 7 14 2 3 2 3 0 1-4-5-7-10-9-16l-4 0-6 13c0 3 2 9 6 19 3 5 2 5-1-1-3-5-5-10-6-15-1 3-2 5-2 8l4 4-1 1c-1 2-5 8-8 13-1 0-1 0-1 0l0 1c-1 1-2 3-3 3l-1 1-5-2c0 2 1 4 2 6 1 2 2 4 2 6 4-2 7-3 10-5 3-1 4-3 4-7l-1-8c0-2 2-2 4 1z m19-59l0 1c-1 1-1 4-2 6 0 0 0 0 0 0 1 2 1 2 0 1 0 0 0 0 0 0-1 2-1 3-2 5 5 4 8 3 6-3z m-4 2l0-1c0 1 0 1 0 1 0 0 0 0 0 0z m-26 38c2-2 3-3 5-5 2-5 4-9 6-14-2 1-4 3-6 4-2 4-4 8-7 13z m4-2c-1 1-2 2-3 2l2 3c0-2 1-4 1-5z m5-18l-2 0c0 1-1 2-1 3 1-1 2-2 3-3z m-5 28c-1 2-1 4-2 6 1-2 2-3 3-4z m8-31c0 0 0 0 0 0l6-15c-2 0-5 3-8 9-1 2-3 4-5 6z m4-2l-1 3 2 0c0-1 0-2-1-3z m3 3l2 1c1-4 3-10 5-15-1-1-1-2-2-4l-2-1-4 13c0 2 0 4 1 6z m32-70c1 0 3 0 5 0-2-14-5-29-7-38l-4 2c3 13 5 28 6 36z m-20 22l-12 3c0 7-1 13-3 19l4 2c3-8 7-16 11-24z m-38 167c0 2 1 3 5 2 3-1 6-8 8-20l5-2c1 4 2 5 3 5 2 0 3-3 4-9 4-3 6-8 6-15-3-4-4-7-4-12l-2 5c-2 5-2 11-2 17 0 3 0 3-1 0 0-5 0-10 0-13-5 6-10 12-16 17-1 4-1 8-1 13 0 5-1 6-1 3-1-5 0-10 0-15-4 4-9 10-14 18-2 3-2 3-2 2 3-7 7-12 11-16 3-5 7-8 9-11-5 2-9 3-12 3-4 1-7 2-10 3-2 1-2 0 1-2 1-1 4-2 9-3 5-1 10-2 14-4 3-2 6-5 10-11l3-8c-5 3-11 5-17 6-6 1-9 2-11 3-4 2-5 2-1-1 1-1 5-2 11-3 7-2 13-4 19-8l1-2c-1-1-2-3-1-5l1-6c-1 2-3 1-6-3 1 3 0 5-1 7-3 4-9 8-18 12l-2-3c-8 3-13 7-15 14 0 2 2 4 6 4 4 0 4 1 2 3-6 2-10 5-13 9-3 3-3 6 0 7l4 1 2 2-3 10c-1 5 1 8 4 10 5 1 10-1 15-4z m-53-8l0 6-5-1c-5-1-10 0-15 5-3-1-4 0-4 3 2 3 1 5-1 5l-8-1c-5 1-8 2-10 4-1 2 0 4 3 7-5 2-8 4-9 6-2 3-1 5 2 6 2 2 7 2 14 1-1 2-2 4-1 6 0 2 5 1 14-3l5-4c2 3 4 4 8 3 4-2 8-5 11-7 4-3 8-7 12-12 4 2 7 2 8-2l1-6c-4 3-9 4-14 0l-4 2c-5 6-9 11-10 14-1 4-1 5-1 1 0-3 2-8 6-13-8 2-13 5-17 9-4 4-7 8-9 10-2 4-2 4-2 0 2-4 5-7 9-11-3 1-6 3-8 4-7 3-12 4-16 4-2 0-2 0 0-1 7-2 12-3 15-5 3-1 5-3 6-4-5-2-10-3-15-3-4 0-5 0-5 0 0-1 2-1 3-1 7-1 13 0 20 2 5-3 11-5 17-7-4-1-8-3-12-6-1-2 0-2 3 0 3 2 7 3 13 4l4-2c0-5 1-10 4-15l-3-1z m21-23l1 3c-5 3-11 6-11 13l5 2c2 3 2 5 0 6-2 1-3 5-3 10 2 4 6 4 14 0 4 7 8 9 13 6-6 0-9-2-10-7 0-3 0-6 0-10-1 2-4 4-6 6-5 3-6 2-3-1 3-3 6-6 8-9-4-3-8-5-13-4-1-1-1-2 1-2 2 0 5 0 8 1-1-3 0-8 2-11 1-2 4-4 6-6-1-1-2-1-3-3-7 0-10 0-11 1-1 0-1 0-1 0 0 1 0 1 0 1-1 1-1 2 3 4z m10-14c-2 1-4 3-7 5 2 0 4 0 5 0 0-1 1-3 2-5z m-199 8l11-11 1 0c7 4 13 8 20 10l1 1-2 15c4 2 13 5 17 6l8-14 1 0c7 2 14 3 21 4l1 0 4 15c2 0 5 0 8 0 4 0 7 0 9 0l4-15 1 0c7-1 14-2 21-4l1 0 8 14c4-1 13-4 17-6l-2-15 1-1c7-3 13-6 20-10l1 0 10 9c0 0 1 0 2 0 1-1 1-1 2-1 4-2 9-6 12-8l-7-14 1-1c6-5 11-10 15-16l1 0 6 2c0-2 1-3 2-5-1 0-4-1-4-3-4-5 3-12 5-15-1 0-3-1-4-2-3-1-2-10 5-12 2-1 10-6 14-10 1-1 4-5 7-9 2-2 3-6 8-6 0 0 0-1 0-1l-7-3 1-1c1-7 3-14 3-22l0-1 16-3c0-4 0-14 0-18l-14-3c-1 2-1 4-2 5-1 3-2 4-4 5 0 0-4 0-5-3 0 2-3 3-5 3-6 2-13-10-12-20-1 0-1 1-2 1 2 11 2 23 1 35l0 2-67-24 57 44 4 3-5 0-71 2 68 18-1 3c-18 31-49 54-85 62l-2 0 2-71-24 68-2 5-1-5-24-67 3 70-2 0c-36-7-67-29-85-61l-1-2 68-20-72-2-5 0 4-3 56-43-65 25-1-3c0-5-1-10-1-15 0 2-1 4-1 5-1 1-2 0-2 0-8-5-11-15-14-27l-2-2c-1-2-3-5-5-7-1 7-2 12-2 18l0 1-16 3c0 4 0 14 0 18l16 3 0 1c0 7 1 14 3 22l0 1-2 1c14 13 45 56 41 78-1-2 7 11 13 22 2 2 4 4 6 5z m-66-108c1 0 2 1 3 1l2-1c-2-7-3-13-3-19l-16-3c3 5 6 12 10 18 1 1 4 4 4 4z m135 167c0-4-2-7-6-11-7-6-14-12-24-16-9-5-22-11-35-18l0 2c17 14 34 25 50 33 4 3 2 4-3 3-5-3-11-6-17-10-11-7-22-14-32-21l0 3c21 18 38 30 51 35 6 1 12 1 16 0z m-62-7c10 8 22 15 36 19 6 2 12 3 17 3 2-1 3-2 2-4l-6-8c-5-1-13-4-22-9-9-5-19-12-29-21l-4-2c-2 1-5 1-11-2 17 14 31 24 44 31 8 4 12 7 13 9-4-1-9-4-16-8-8-4-19-12-36-24l-16-14c9 12 18 22 28 30z m-16-30c3 2 5 3 6 2 0-2 1-4 0-7 0-3-3-10-7-20l-10-19c-7-1-14-5-20-10 3 5 7 12 12 19 4 7 12 18 21 32 2 3 2 4 1 2-2-1-6-6-13-15-6-9-15-23-27-42-3-5-10-16-22-34l1 4 17 28 15 30c8 13 16 23 26 30z m-67-66c8 12 16 28 26 50 3 6 8 13 14 21 2 4 1 4-3 0-9-11-19-28-31-52l5 13c1 3 4 9 9 19 5 11 10 19 14 25 5 6 8 9 10 11 6 6 10 8 11 8 1-1 2-2 1-3l-13-35c-9-16-20-34-34-52-6-6-10-11-11-12-2-2-3-4-4-5l1 4z m8-31c-4-7-7-13-9-18l-2 0 6 17z m-20-45l2 7 1 8 5 1-6-15-4-12z m-1 29c1 8 3 15 5 22l2-3z m-8-65c-5 2-8 6-10 11-3 5-5 12-6 20-2 8-3 18-3 30 1 14 3 27 6 40 5 18 14 35 28 51 3 4 5 4 5 3 1-8 1-15 0-21-1-7-2-15-5-23-7-23-11-39-13-47-2-10-5-22-9-37-1 7 0 23 3 46 3 24 7 41 12 51 2 5 2 6 0 2-11-18-18-46-19-83-1-12 0-22 2-27 2-6 4-9 6-10 1-1 3-1 4 0 0 0-1-5-1-6z m2 45c-2-14-3-26-5-34l-1 2c-1 2 1 13 6 32z m-1-44l0 4c7 7 6 14 9 21l9 24 11 26c6 12 15 25 25 39 7 8 12 12 17 12 1-1 2-5 0-11-1-5-3-11-6-17 0 0-1 0 0-1-11-20-22-35-33-45l0 0 17 29 9 16c4 6 4 8 2 7-18-28-29-45-33-52-3-7-7-14-10-20-4-6-7-11-8-14-1-3-2-9-9-18z m18-43c-2 5-2 8-2 10 2 3 1 5-1 7-2 2-4 10-7 24 0 4 2 10 4 17 1 3 3 6 4 9l0-1c0-3 0-17 0-20l0-1 16-4c0-6 1-12 3-19l-14-8 0-1c1-2 2-7 4-12-1-3-3-7-3-12-2 3-3 7-4 11z m78-146l4 11 12-8z m30 6l-21 12-18 12-4 5c-1 1-2 1-4 1-2-1-4 0-5 3-5-3-10-2-15 3l-9 11-8 14-3 2c-2-1-3-1-6-1-3 1-7 3-11 7-3 3-8 12-16 28-11 21-19 37-23 47-3 9-5 15-5 17-1 2-2 2-2 0 1-2 2-7 5-15 2-8 7-19 14-34 6-13 11-24 17-34-13 15-23 28-29 41-6 12-10 24-12 34-1 4-1 10-1 18 0 7 0 12 0 13 1 2 2 4 4 3 1 0 3-2 7-7 4-6 9-17 16-35 7-18 11-30 12-35 2-6 3-11 5-15 1-4 3-8 5-13 4-6 7-10 10-13 4-3 8-3 10-1l-10 17c-1 1-2 1-3 0-1 0-1 1-1 1 0 0 0-1 0-1 0 0-1 1-1 1 0 0-1 0-1 0 0 0-1 0-1 1 0 0-1 0-1 0 0 1 0 1 0 1 0 1-1 1-1 2 0 0 0 2 1 3 0 3 1 9 3 16 4 14 10 27 17 40-1-6-1-10-1-14-7-15-12-27-15-37-2-6-1-9 0-9l3 1-2 4 1 3 3-6 2 1 2-2-2-3 12-17 3 2 2-2c-3-4-5-6-4-7 3-6 6-11 9-15 5-7 10-10 13-6 1 1 3 0 4-1 2-1 4-4 6-8l-1 6-10 10-5 11c-5 7-8 12-10 15-2 4-5 8-8 13-3 5-6 11-11 17l1 3 9-10c8-10 13-18 16-23 3-5 5-6 6-3l1 5 3-2-2-10 0-3c-1-3 0-4 1-5 1 0 2-2 3-5 1-2 4-5 9-11 5-6 10-10 16-14 6-4 10-7 14-10 4-2 5-5 5-7l5-1-1 6 3 1c2-1 3-3 4-6 5-3 9-6 12-8z m-89 87l2 2 7-13-1-1z m13-25l3 4 7-10 4-8 1-4c-2 2-5 4-6 6l-5 6z m94-59l-12 8c-5 5-8 10-10 12-2 3-4 4-6 5-3 2-6 3-7 2-2 0-3-2-5-5l0 0c1 3 2 5 3 6 2 1 4 0 6-1l13-6 22-8c6-6 9-10 10-12-4-1-9-1-14-1z m20 2l-14 14c-27 12-42 17-44 16-3-2-5-4-6-7-3 1-7 4-13 10l-8 9c-6 7-9 14-7 20l1 8c0 1 0 2-1 3-2 2-5 4-7 4 0 0-1 1-3-4 0-1-3 4-6 8l14 7c4-5 9-9 14-14l-7-15 1-1c3-2 14-10 17-12l1 0 12 11c5-4 11-7 17-9l-1-16 1-1c3-1 16-5 19-6l1 0 8 13c7-1 14-2 20-3l3-15 1 0c2 0 7 0 11 0 3 0 8 0 10 0l1 0 3 15c7 1 14 2 20 3l7-13 2 0c3 1 16 5 19 6l1 1-1 15c6 3 12 6 17 10l12-11 1 0c3 2 14 10 17 12l1 1-7 15c5 4 10 9 14 14l14-7 1 1c0 0 0 0 1 1-2-3-4-6-4-6 0 0-6 4-8 2-3-2-4-5-5-6l1-10c0-5-2-9-7-14-5-5-9-10-10-14-1-4-5-7-11-11 0 1-1 3-4 5 0 1-1 1-2 1-6-2-19-9-37-18-3-2-8-6-14-16l-10 0c-3 4-6 6-10 9-2 1-6 2-12-2-6 2-11 1-17-3-3-1-6-1-7 0z m89-4l-2 0 0 1c-1-1-2-1-3-1l-8 1 9 5 2-5c1 0 1 1 2 1l-2 4c0 3 1 6 4 8 3 2 6 3 9 3 2 0 2-3 0-8-1-2-4-5-11-8z m11 22c-3 0-6-1-10-3-4-1-6-4-6-7-1-2-2-3-3-4-4-2-8-4-11-5l-9 0 5 6c2 3 5 5 8 7 15 7 26 12 31 13 1 0 1 0 2-1l2-2-3-2c-1-2-4-2-6-2z m-51-57l-1 5-7-10-6-3c-3-3-6-4-9-3l-9 5 5 2 1-1c-1-3 0-2 3 1l9 8c0 5-1 11-4 19-3 8-5 12-6 14-1 2-5 2-13 1 5 3 11 3 17 1l6-3 4 2-1 0-6 3 4 0 2-3 1 0 0 0 2-2c9-10 14-17 15-20 1-4 2-7 1-11-4-4-6-6-8-5z m65-39l3 0-1-1-7-3c-3-2-7-4-11-5l-5 1-1 3c1 2 3 3 4 4 2 0 4 1 7 1l7-1z m-10 2c-5 0-8-3-9-3l-4 0c-5 7-9 8-12 11l-13 11c2 1 7 0 15-2z m39 56c5 0 9 0 11 1 5 2 15 9 30 22 15 11 27 19 37 23 3 2 4 3 1 4-3 1-7 1-13 1-2-1-1-2 1-3 2 0 4 0 5-1-12-6-22-12-30-19 1 4 1 12 2 22 0 3-1 6-3 8-2 2 0 4 5 5l3 1 0-6-5 2 1-3c1-2 3-3 6-4l14-1 7 0c7 0 11-2 11-5 0-4 0-7 1-10 1-8 4-15 9-22-1-3-3-7-7-12l-14-9c-12-8-29-20-49-33-15-1-33 0-53 3-15 2-33 6-52 11l-4 1 2 2c3 4 4 7 5 8 0 2-1 5-2 10-1 4-3 10-10 16l0 2 4 1c11-1 21-3 30-5 9-2 19-4 31-6 12-2 20-3 26-4z m-21 8c-4 0-12 2-22 4l9 3c5-1 8 0 9 3 0-4 2-7 4-10z m57 79c-4-4-5-8-4-12-5-3-10-7-14-12-5-5-9-10-11-13-2-4-5-6-8-7-3-1-6-1-10 2l-1-6-18-11-9-4c0 2 1 5 1 9l3 3c13 6 20 12 22 17 2 5 5 9 8 12 3 3 5 6 6 11l0 6 0 7c2-3 5-4 7-2 4 7 8 13 13 19 4 6 8 12 13 17 5 5 9 10 13 13l0-6c-11-14-18-23-21-28-9-14-15-25-18-33-2-4-5-8-9-10-3-2-5-3-7-5-1-2 0-3 3-2 1 2 3 3 6 4 4 2 12 11 25 28l0 10 3 5c-1-5 0-8 1-9 1 0 3 1 4 5 2 3 7 13 14 29-1-5-1-9 0-13-4-3-5-8-3-16z m60 60c0-4-2-8-4-11-7-9-11-14-9-16 2-3 1-7-1-11-4-5-10-10-16-16 2-4 0-7-4-10-5-2-11-5-17-7 11 9 19 18 21 28 4 4 7 6 10 7 3 2 3 2 2 2-4-1-7-3-11-6 4 7 6 14 8 22 7 7 11 13 13 17 2 3 2 4 0 2-3-5-7-9-12-14 2 7 4 16 6 26 1 5 1 6 0 3l-3-10c-1 4-3 7-4 9l3-12c-1-4-2-10-5-19-3 7-6 14-10 20-4 4-4 4-2 0 4-6 8-14 10-24-2-8-4-15-7-21-2 3-5 5-7 7-2 1-2 0 0-2 2-2 4-5 6-7-2-5-5-10-9-14-3-4-7-7-10-10 4 7 6 14 4 22 0 2 1 3 4 4 2 1 3 2 2 3-2 4-3 7-3 9 1 1 3 1 6 0 3 2 2 4 0 7-3 3-5 7-6 13 0 3 3 4 7 4 2 0 2 2 0 7l-4 6c-3 7-2 10 4 8l7-5c5-2 7 2 7 10 0 2 1 2 4 1 3-1 5 1 8 6 2 3 4 0 5-7-1-9 2-14 7-13 1-1 1-3 0-8z m8 23c1-1 0-3-1-4-1-1-3-2-6-3l-3 5c0 5-1 9-4 13 1 1 3 2 5 3 0 0 0 0 0 0-3-1-6-4-7-4l-1 0c2 7 5 13 8 18 1 2 0 3-1 0-4-4-6-9-9-13-1 1-1 3-2 6-1 3-1 3-2 0 1-4 2-7 3-9-4-6-7-8-10-7 2 9 4 18 6 27 4 4 8 6 11 4 4 4 8 4 11 2 1-2 2-5 2-8 0-2-1-5-3-9 4 0 6-1 6-4-2-6-5-10-9-13 4-1 6-2 6-4z m-8 14c-1 0-1 0-1 0 2 0 3 1 1 0z m-317-193c-1 5-6 5-9 5-1-1-2-1-4-1-1-1-3-1-4-1l0-1c1 1 2 1 3 0 0-2 1-5 1-6l2-10c0-2 0-5 1-6-1-1-2-1-3-2l0 0c2 0 3 0 6 1 1 0 2 0 4 0 2 0 4 1 5 2 2 2 3 4 2 6 0 3-1 4-3 5-1 1-3 1-5 1 3 1 5 3 4 7z m-10 1l0 1c0 1 1 1 1 1 3 1 5-1 5-4 0-2 0-3-1-4 0-1-2-2-3-2l-1 0z m7-10c2 0 2-2 3-4 1-3 0-6-3-6-1-1-3-1-3 1-1 1-2 3-2 4l0 5 0 0c2 1 4 1 5 0z m22 12c0 5-5 5-8 5-1 0-3-1-4-1-2 0-3 0-4-1l0 0c1 0 2 0 3-1 0-1 1-4 1-5l1-12c0-1 1-3 1-4 0-2-2-2-2-2l0-1c2 0 3 1 5 1 1 0 3 0 4 1 2 0 4 0 6 2 1 1 2 3 2 6-1 1-2 3-4 4-1 2-3 1-5 1 3 2 5 4 4 7z m-2-8c1-1 2-3 2-5 1-3 0-5-3-6-1 0-2 0-3 1 0 1 0 3-1 4l-1 6 1 0c2 0 3 0 5 0z m-2 3c-1-1-2-1-3-2l-1 0-1 8c0 1 0 2 0 2 0 0 1 0 2 0 2 1 3-1 4-4 0-1 0-3-1-4z m49 20c-6-1-10-8-9-15 1-8 7-13 14-11 2 0 4 1 6 3l1-1-1 9-1-1c0-5-1-8-5-10-6 0-8 5-10 11-1 6 0 13 6 14 3 1 7-2 8-6l0 0-1 8-1 0 0-2c-2 1-4 2-7 1z m-32-7l-1 1c-1-1-3-1-5-1-1-1-3-1-4-1l0-1c1 1 3 1 3 0 0-2 1-5 1-6l2-10c0-2 1-5 0-6 0-1-1-1-2-2l0 0c5 1 11 2 17 3 0 0 1 0 1 0l0 7-1-1c0-2 0-3-2-5-1-1-3-1-4-2-4 0-5 1-6 6l-1 11c0 1-1 4-1 5 0 2 2 2 3 2z m60-14l0-1c1 1 3 1 5 1 1 1 3 1 4 1l0 1c-1 0-3 0-3 1-1 1-2 3-3 4l-9 18-1 0-3-16c-1-3-1-5-1-8-1-2-1-2-3-3l0-1c1 0 2 0 4 1 1 0 2 0 3 0l0 1c-1 0-3 0-3 1 0 2 1 5 1 6l0 2 7 1 3-4c0-1 1-2 1-2 0-2-2-2-2-3z m-8 9l1 10 5-9z m-32 9l0 0c-1 0-3-1-5-1-1 0-3 0-4 0l0-1c1 0 2 0 3-1 0-1 1-4 1-5l2-11c0-1 1-4 0-5 0-2-1-2-2-2l0 0c2 0 3 0 5 0 1 0 3 1 4 1l0 1c-1 0-2 0-3 1 0 0-1 3-1 5l-2 11c0 1 0 3 0 5 0 1 2 2 2 2z m208 1l8-13c1-1 2-3 3-4 1-2 0-2-1-3l0-1c2 1 2 2 4 2 1 1 2 2 3 3l0 0c-2 0-3-1-4 0-1 1-3 3-4 4l-8 11 22-7c1-1 3-1 4-1l0 0-9 14c-1 1-4 4-4 6-1 1 0 1 1 3l-1 0c-1 0-2-1-2-2-2-1-3-1-4-2l1-1c1 1 2 2 4 0 1-1 2-3 4-4l6-10-23 8c-1 0-2-1-3-1 0-1-1-1-2-2l0-1c2 1 3 1 5 1z m-82-11l1-1 1 7-20 3-2-6 2-1c0 5 2 5 5 5 1 0 3-1 3-1l-3-19c0-3-1-4-5-4l0-1c2 0 4 0 6 0 2-1 3-1 5-1l0 0c-3 1-3 2-3 5l3 19c0 1 2 1 4 1 3-1 4-2 3-6z m-32 11l0-1c1 0 2 0 2-2 1-1 0-3 0-5l-1-11c0-1-1-4-2-5 0-1-1-1-3-1l0-1c2 0 3 0 5 0 2-1 3-1 5-2l0 2c-1 0-2 0-2 1 0 1 0 4 0 5l1 12c1 1 1 4 2 5 0 1 2 1 3 1l0 1c-2 0-3 0-5 0-1 0-3 1-5 1z m84-15c0-1 1-4 1-5l0-12c0-1 1-3 0-5 0-1-2-1-2-1l0-1c2 0 3 0 5 1 2 0 3 0 5 0l0 0c-2 0-3 0-3 1-1 2-1 5-1 6l-1 11c0 1 0 4 0 5 0 2 2 2 3 2l0 1c-2 0-4-1-5-1-2 0-4 0-5 0l0-1c1 0 2 1 3-1z m60 13c0-2 0-2-1-4l1-1c0 1 2 2 2 3 2 0 3 1 3 1l0 2c-1-1-2-2-3-1-1 1-2 4-2 6l-1 1 7 5 4-3c0-1 1-1 2-2 1-1-1-2-1-3l0 0c2 1 3 1 4 3 1 1 2 1 4 2l0 1c-2 0-3-1-4 0-1 0-3 2-4 2l-17 12-1 0 5-16c1-3 1-5 2-8z m5 13l-6-5-3 11z m-337-44l2 0 15 14c2 2 5 5 7 4l0 0c-1 1-2 1-3 2-1 0-2 1-3 2l0-1c0-1 2-1 1-3-1-1-6-6-7-7l-7-7 1 11c1 2 2 8 3 9 1 1 2 1 3 0l1 1c-2 0-3 2-5 2-1 1-2 2-4 2l0 0c2-2 1-4 1-6z m290 3c0-3 0-3-1-4l0-1c1 1 2 1 3 2 1 0 2 1 3 2l0 0c-1 0-3-1-3 0-1 2-2 5-2 6l0 2 7 3 3-2c1-1 2-2 2-3 1-1 0-2-1-2l0-1c1 1 3 1 5 2 1 1 3 2 4 3l-1 0c0 0-2 0-3 0-1 1-3 3-4 3l-15 14-1 0 3-16c0-3 1-6 1-8z m6 11l-6-3-2 11z m-324 27l-6-9c-1-2-3-4-4-5-1 0-2 0-3 1l0-1 15-10 3 5 0 0c-3-3-5-2-8-1-1 1-3 2-3 4 0 1 1 3 2 4l3 5c3-1 5-2 3-6l0-1c1 2 2 3 3 5 1 1 2 2 3 4l-1 0c-2-2-3-4-7-1l5 8c1 2 1 2 2 1l2-1c3-2 4-4 2-7l1-1 3 5-13 9-2-1c2-1 3-1 2-3 0-1-2-3-2-4z m16-11l-5-9c-1-2-3-4-4-5 0-1-2 0-3 1l0-2c1 0 3-1 4-2 2-1 3-2 4-3l1 1c-1 1-3 2-2 3 0 1 2 4 2 5l3 4c0 0 1-2 2-1 3-3 8-4 11 1 3 5 0 8-3 10-1 0-3 2-4 2-1 1-3 2-4 3l-1-1c1 0 3-1 2-3 0 0-2-3-3-4z m6 1c1 2 1 2 2 1 3-1 3-4 1-7-2-3-4-4-6-2-1 0-2 0-2 1z m239-5l-2 1-7-15c-1-2-2-5-4-7-1-2-1-3-3-3l-1 0c1 0 3-1 4-1 1 0 2-1 3-1l0 1c0 1-2 1-2 2 1 2 2 5 2 6l1 1 9-1 0-4c0-2 0-3 0-4 0-1-2-1-2-1l-1-1c2 0 4 0 5 0 2 0 4-1 5-1l0 1c-1 0-2 0-3 1 0 2 0 4-1 5z m-8-15l5 10 2-11z m-272 43l-6-10c-1-1-2-3-3-4-2-1-2 0-4 0l0 0c2-1 3-2 4-3 2-1 3-2 4-2l1 0c-2 1-2 1-2 3 0 1 2 3 3 5l2 4c2-2 2-2 2-3l0-10-1-3c1-1 2-1 3-1 0-1 1-2 2-2l0 0c-1 2-1 2-1 4l0 12c3-1 6-1 9 3 3 4 0 7-3 9-1 1-2 2-3 2-2 2-3 3-5 4l0-1c0-1 2-1 1-3 0-1-2-3-3-4z m6 1c0 0 0 1 1 1 0 0 1-1 2-1 2-1 2-4 0-7-3-4-5-2-8 0z m302-61l2 7-1 0c-1-2-1-3-4-5-1 0-2 0-4 0-4 1-5 2-4 7l2 12c0 1 0 4 1 5 1 1 3 1 3 1l1 1c-2 0-4 0-6 1-1 0-3 0-4 0l-1 0c2 0 3-1 3-2 0-2 0-5 0-6l-2-11c-1-1-1-4-1-5-1-1-3-1-4-1l0 0c6-2 12-2 18-4 0 0 1 0 1 0z"/>
<glyph glyph-name="logout" unicode="&#108;" d="M202 154l40-40 142 142-142 142-40-40 73-74-275 0 0-56 275 0z m253 358l-398 0c-32 0-57-26-57-57l0-114 57 0 0 114 398 0 0-398-398 0 0 114-57 0 0-114c0-31 25-57 57-57l398 0c31 0 57 26 57 57l0 398c0 31-26 57-57 57z"/>
<glyph glyph-name="lucchetto-aperto" unicode="&#109;" d="M393 264l-45 0 0 78c0 77-35 124-92 124-56 0-92-47-92-124l-45 0c0 125 74 169 137 169 63 0 137-44 137-169z m-303-25l0-238 332 0 0 238z m183-118l0-71-34 0 0 71c-10 6-17 17-17 29 0 19 15 35 34 35 19 0 34-16 34-35 0-12-7-23-17-29z"/>
<glyph glyph-name="utente" unicode="&#110;" d="M256 512c-141 0-256-115-256-256 0-141 115-256 256-256 141 0 256 115 256 256 0 141-115 256-256 256z m0-77c42 0 77-34 77-77 0-42-35-76-77-76-42 0-77 34-77 76 0 43 35 77 77 77z m0-363c-64 0-121 32-154 82 1 51 103 79 154 79 51 0 153-28 154-79-33-50-90-82-154-82z"/>
<glyph glyph-name="triangolo" unicode="&#111;" d="M256 427l244-326 0-13-488-3 0 16z"/>
<glyph glyph-name="select" unicode="&#112;" d="M455 455l0-398-398 0 0 398 398 0m0 57l-398 0c-31 0-57-26-57-57l0-398c0-31 26-57 57-57l398 0c31 0 57 26 57 57l0 398c0 31-26 57-57 57z m-76-139l-176-176-70 70-38-39 108-108 214 215z"/>
<glyph glyph-name="profili" unicode="&#113;" d="M349 279c39 0 70 31 70 70 0 39-31 70-70 70-39 0-70-31-70-70 0-39 31-70 70-70z m-186 0c39 0 69 31 69 70 0 39-30 70-69 70-39 0-70-31-70-70 0-39 31-70 70-70z m0-46c-54 0-163-28-163-82l0-58 326 0 0 58c0 54-109 82-163 82z m186 0c-7 0-14-1-22-1 27-20 45-46 45-81l0-58 140 0 0 58c0 54-109 82-163 82z"/>
<glyph glyph-name="menu" unicode="&#114;" d="M445 231c1 8 2 16 2 25 0 9-1 17-2 25l54 42c5 4 6 11 3 16l-51 88c-3 6-10 8-16 6l-63-26c-13 11-27 19-43 25l-10 68c0 6-6 10-12 10l-102 0c-6 0-12-4-12-10l-10-68c-15-6-30-15-43-25l-63 26c-6 2-13 0-16-6l-51-88c-3-5-1-12 3-16l54-42c-1-8-2-17-2-25 0-8 1-17 2-25l-54-42c-4-4-6-11-3-16l51-88c3-6 10-8 16-6l63 26c13-11 28-19 43-25l10-68c0-6 6-10 12-10l102 0c6 0 12 4 12 10l10 68c16 6 30 15 43 25l63-26c6-2 13 0 16 6l51 88c3 5 2 12-3 16z m-189-64c-49 0-89 40-89 89 0 49 40 89 89 89 49 0 89-40 89-89 0-49-40-89-89-89z"/>
<glyph glyph-name="manuali" unicode="&#115;" d="M410 461l0-410-308 0 0 410 308 0m0 51l-308 0c-28 0-51-23-51-51l0-410c0-28 23-51 51-51l308 0c28 0 51 23 51 51l0 410c0 28-23 51-51 51z m-131-98l-121 0c-7 0-13-6-13-13 0 0 0 0 0 0 0-8 6-14 13-14 0 0 0 0 0 0l121 0c7 0 13 6 13 13 0 0 0 0 0 0 0 8-6 14-13 14 0 0 0 0 0 0z m-58-289l-63 0c-7 0-13-6-13-13 0 0 0-1 0-1 0-7 6-13 13-13 0 0 0 0 0 0l63 0c7 0 13 6 13 13 0 0 0 0 0 0 0 8-6 14-13 14 0 0 0 0 0 0z m133 216l-196 0c-7 0-13-6-13-13 0 0 0 0 0 0 0-7 6-13 13-13 0 0 0 0 0 0l196 0c7 0 13 6 13 13 0 0 0 0 0 0 0 7-6 13-13 13 0 0 0 0 0 0z m0-72l-196 0c-7 0-13-6-13-13 0 0 0 0 0 0 0-7 6-13 13-13 0 0 0 0 0 0l196 0c7 0 13 6 13 13 0 0 0 0 0 0 0 7-6 13-13 13 0 0 0 0 0 0z m0-72l-196 0c-7 0-13-6-13-13 0 0 0 0 0 0 0-8 6-13 13-13 0 0 0 0 0 0l196 0c7 0 13 5 13 13 0 0 0 0 0 0 0 7-6 13-13 13 0 0 0 0 0 0z"/>
<glyph glyph-name="lucchetto-chiuso" unicode="&#116;" d="M418 312l-54 0c0 90-41 147-108 147-67 0-108-57-108-147l-54 0c0 148 87 200 162 200 75 0 162-52 162-200z m-358-30l0-282 392 0 0 282z m217-139l0-84-42 0 0 84c-11 7-20 19-20 34 0 22 19 41 41 41 22 0 41-19 41-41 0-15-9-27-20-34z"/>
<glyph glyph-name="ricerca" unicode="&#117;" d="M366 190l-23 0-8 8c29 34 46 78 46 124 0 105-86 190-191 190 0 0 0 0 0 0-105 0-190-85-190-190l0 0c0-105 85-191 190-191 0 0 0 0 0 0 46 0 90 17 124 46l8-8 0-23 146-146 44 44z m-176 0c-72 0-131 59-131 131 0 1 0 1 0 1-1 72 58 131 131 131 0 0 0 0 0 0 73 1 132-58 132-131 0 0 0 0 0 0 0-73-59-132-131-132 0 0-1 0-1 0z"/>
<glyph glyph-name="add" unicode="&#118;" d="M256 0c-141 0-256 115-256 256 0 141 115 256 256 256 141 0 256-115 256-256 0-141-115-256-256-256z m0 448c-106 0-192-86-192-192 0-106 86-192 192-192 106 0 192 86 192 192 0 106-86 192-192 192z m32-320l-64 0 0 96-96 0 0 64 96 0 0 96 64 0 0-96 96 0 0-64-96 0z"/>
<glyph glyph-name="trash" unicode="&#119;" d="M288 288l64 0 0-160-64 0z m192 128l-128 0 0 64c0 18-14 32-32 32l-128 0c-18 0-32-14-32-32l0-64-128 0c-18 0-32-14-32-32l0-32 32 0 0-320c0-18 14-32 32-32l384 0c18 0 32 14 32 32l0 320 32 0 0 32c0 18-14 32-32 32z m-256 32l64 0 0-32-64 0z m192-384l-320 0 0 288 320 0z m-256 224l64 0 0-160-64 0z"/>
<glyph glyph-name="trash-alt" unicode="&#120;" d="M480 416l-128 0 0 64c0 18-14 32-32 32l-128 0c-18 0-32-14-32-32l0-64-128 0c-18 0-32-14-32-32l0-32 64 0 0-320c0-18 14-32 32-32l320 0c18 0 32 14 32 32l0 320 64 0 0 32c0 18-14 32-32 32z m-256 32l64 0 0-32-64 0z m160-384l-256 0 0 288 256 0z"/>
<glyph glyph-name="zoom-in" unicode="&#121;" d="M498 14c-19-19-49-19-68 0l-85 85c-35-22-76-36-121-36-124 0-224 101-224 225 0 124 100 224 224 224 124 0 225-100 225-224 0-45-14-86-36-121l85-85c19-19 19-49 0-68z m-274 434c-88 0-160-72-160-160 0-89 72-161 160-161 89 0 161 72 161 161 0 88-72 160-161 160z m32-257l-64 0 0 65-64 0 0 64 64 0 0 64 64 0 0-64 65 0 0-64-65 0z"/>
<glyph glyph-name="zoom-out" unicode="&#122;" d="M498 82l-85 85c22 35 36 76 36 121 0 124-101 224-225 224-124 0-224-100-224-224 0-124 100-225 224-225 45 0 86 14 121 36l85-85c19-19 49-19 68 0 19 19 19 49 0 68z m-274 45c-88 0-160 72-160 161 0 88 72 160 160 160 89 0 161-72 161-160 0-89-72-161-161-161z m-96 129l193 0 0 64-193 0z"/>
<glyph glyph-name="alert" unicode="&#65;" d="M503 112l-219 383c-6 10-17 16-28 16-11 0-22-6-28-16l-219-383c-6-10-6-22 0-32 6-10 16-16 28-16l438 0c12 0 22 6 28 16 6 10 6 22 0 32z m-215 16l-64 0 0 64 64 0z m0 96l-64 0 0 128 64 0z"/>
<glyph glyph-name="arrow-left" unicode="&#66;" d="M36 256l258-172 0 93 182 0 0 158-182 0 0 93z"/>
<glyph glyph-name="arrow-right" unicode="&#67;" d="M476 256l-258 172 0-93-182 0 0-158 182 0 0-93z"/>
<glyph glyph-name="arrow-up" unicode="&#68;" d="M256 476l-172-258 93 0 0-182 158 0 0 182 93 0z"/>
<glyph glyph-name="arrow-doen" unicode="&#69;" d="M256 36l-172 258 93 0 0 182 158 0 0-182 93 0z"/>
<glyph glyph-name="caret-down" unicode="&#70;" d="M91 386l165-260 165 260z"/>
<glyph glyph-name="caret-left" unicode="&#71;" d="M393 91l-274 165 274 165z"/>
<glyph glyph-name="caret-right" unicode="&#72;" d="M119 421l274-165-274-165z"/>
<glyph glyph-name="caret-up" unicode="&#73;" d="M91 119l165 274 165-274z"/>
<glyph glyph-name="check" unicode="&#74;" d="M256 476c-121 0-220-99-220-220 0-121 99-220 220-220 121 0 220 99 220 220 0 121-99 220-220 220z m94-103l46-46-143-142-45-46-46 46-46 46 45 45 47-46 142 143z"/>
<glyph glyph-name="check-circled" unicode="&#75;" d="M256 476c-121 0-220-99-220-220 0-121 99-220 220-220 121 0 220 99 220 220 0 121-99 220-220 220z m0-48c95 0 172-77 172-172 0-95-77-172-172-172-95 0-172 77-172 172 0 95 77 172 172 172z m84-68l-127-127-41 41-41-40 82-82 41 40 127 128z"/>
<glyph glyph-name="check-mark-two" unicode="&#76;" d="M404 439l-224-223-72 72-72-71 145-144 71 71 224 224z"/>
<glyph glyph-name="circle-arrow-up" unicode="&#77;" d="M476 256c0-121-99-220-220-220-121 0-220 99-220 220 0 121 99 220 220 220 121 0 220-99 220-220z m-109-24l-111 166-111-166 60 0 0-118 102 0 0 118z"/>
<glyph glyph-name="circle-arrow-left" unicode="&#78;" d="M256 36c121 0 220 99 220 220 0 121-99 220-220 220-121 0-220-99-220-220 0-121 99-220 220-220z m24 109l-166 111 166 111 0-60 118 0 0-102-118 0z"/>
<glyph glyph-name="circle-arrow-right" unicode="&#79;" d="M256 476c-121 0-220-99-220-220 0-121 99-220 220-220 121 0 220 99 220 220 0 121-99 220-220 220z m-24-109l166-111-166-111 0 60-118 0 0 102 118 0z"/>
<glyph glyph-name="download-two" unicode="&#80;" d="M36 96l440 0 0-60-440 0z m301 380l-162 0 0-182-101 0 182-170 182 170-101 0z"/>
<glyph glyph-name="error" unicode="&#81;" d="M256 476c-121 0-220-99-220-220 0-121 99-220 220-220 121 0 220 99 220 220 0 121-99 220-220 220z m-147-161l294 0 0-118-294 0z"/>
<glyph glyph-name="error-two" unicode="&#82;" d="M256 476c-121 0-220-99-220-220 0-121 99-220 220-220 121 0 220 99 220 220 0 121-99 220-220 220z m0-60c88 0 160-72 160-160 0-88-72-160-160-160-88 0-160 72-160 160 0 88 72 160 160 160z m-117-117l0-86 234 0 0 86z"/>
<glyph glyph-name="exclamation-sign" unicode="&#83;" d="M256 476c-121 0-220-99-220-220 0-121 99-220 220-220 121 0 220 99 220 220 0 121-99 220-220 220z m-80-44l160 0-34-241-92 0z m81-258c26 0 47-21 47-47 0-26-21-47-47-47-26 0-47 21-47 47 0 26 21 47 47 47z"/>
<glyph glyph-name="graph" unicode="&#84;" d="M36 405l0-333 440 0 0 333z m54-54l332 0 0-225-332 0z m282-18l-56-98-27 56-16 34-21-32-47-72-19 20-13 14-16-13-54-45 27-33 39 33 24-26 19-20 15 23 40 63 28-57 17-37 21 36 76 133z"/>
<glyph glyph-name="refresh" unicode="&#85;" d="M256 475c-107 0-195-75-215-176l61 0c18 68 80 117 154 117 44 0 84-18 113-47l-70-70 176 0 0 176-64-64c-40 40-94 64-155 64z m-219-262l0-176 64 64c40-40 94-64 155-64 107 0 195 75 215 176l-61 0c-18-68-80-117-154-117-44 0-84 18-113 47l70 70z"/>
<glyph glyph-name="remove" unicode="&#86;" d="M37 379l122-123-122-123 96-96 123 122 123-122 96 96-122 123 122 123-96 96-123-122-123 122z"/>
<glyph glyph-name="remove-circled-two" unicode="&#87;" d="M256 475c-121 0-219-98-219-219 0-121 98-219 219-219 121 0 219 98 219 219 0 121-98 219-219 219z m-69-96l69-69 69 69 54-54-69-69 69-69-54-54-69 69-69-69-54 54 69 69-69 69z"/>
<glyph glyph-name="repeat" unicode="&#88;" d="M256 439c-101 0-183-82-183-183 0-101 82-183 183-183 68 0 127 37 158 92l-64 37c-19-33-54-55-94-55-60 0-109 49-109 109 0 60 49 109 109 109 26 0 49-9 68-24l-48-34 163-55 0 171-53-38c-33 33-79 54-130 54z"/>
<glyph glyph-name="setting-gear" unicode="&#89;" d="M370 446l-7-30c-6-1-12-3-18-5l-21 21-24-19 16-26c-4-5-7-10-9-16l-30 0-3-31 29-7c1-6 3-12 6-18l-22-21 20-24 25 16c5-3 11-6 17-9l0-30 31-3 6 29c6 1 12 3 18 6l21-22 25 20-17 25c4 5 7 11 9 17l30 0 4 31-30 6c-1 6-3 12-5 18l21 22-19 24-26-17c-5 4-11 7-17 9l1 31-31 3z m5-72c1 0 2 0 3-1 16-1 27-15 25-31-1-16-15-28-31-26-16 2-28 16-26 32 1 15 14 26 29 26z m-223-3l-4-41c-9-2-17-6-24-10l-33 26-30-30 26-32c-4-8-7-16-9-24l-42-4 0-43 42-4c2-9 5-17 9-24l-26-32 30-31 33 27c7-5 15-8 24-10l4-42 42 0 5 42c8 2 16 5 24 10l32-27 30 31-26 32c4 7 7 15 10 24l41 4 0 43-41 4c-3 8-6 16-10 24l26 32-30 30-32-26c-8 4-16 8-24 10l-5 41z m21-97c22 0 40-18 40-40 0-22-18-39-40-39-22 0-39 17-39 39 0 22 17 40 39 40z m182-53l-5-22c-4 0-8-2-13-4l-15 16-17-14 12-19c-3-4-5-8-6-12l-22 0-2-23 21-4c1-5 2-9 4-13l-15-16 13-18 18 12c4-2 8-5 12-6l0-23 22-2 4 22c5 1 9 2 13 4l15-16 17 14-12 19c3 4 5 8 7 12l21 0 2 23-21 4c0 5-2 9-3 14l15 15-14 18-18-12c-3 3-7 5-12 6l0 23z m3-53c1 0 2 0 2 0 11-1 20-12 18-23-1-12-11-20-22-19-11 1-19 12-18 23 1 11 10 19 20 19z"/>
<glyph glyph-name="x" unicode="&#90;" d="M434 160l-96 96 96 96c4 4 4 10 0 14l-68 68c-4 4-10 4-14 0l-96-96-96 96c-4 4-11 4-14 0l-68-68c-2-1-3-4-3-7 0-2 1-5 3-7l96-96-96-96c-2-2-3-5-3-7 0-3 1-6 3-7l68-68c1-2 4-3 7-3 2 0 5 1 7 3l96 96 96-96c2-2 5-3 7-3 3 0 5 1 7 3l68 68c4 4 4 10 0 14z"/>
<glyph glyph-name="wrench" unicode="&#48;" d="M442 392l-20-20-19-19-25-24c-13-1-26 4-36 13-9 10-14 23-13 36l63 64c1 1 1 3 0 4 0 1 0 1-1 1l0 0c0 0 0 0 0 0 0 0 0 0 0 0-14 6-29 10-45 10-61 0-111-50-111-111 0-12 2-23 6-33l-116-116c-39-1-70-32-70-71 0-39 32-71 71-71 39 0 70 31 71 70l116 116c10-4 21-6 33-6 61 0 111 50 111 111 0 16-4 31-10 45 0 0 0 0 0 0 0 0 0 1 0 1l0 0c0 0-1 0-1 0-1 1-3 1-4 0z m-286-266c0-16-14-29-30-29-16 0-29 13-29 29 0 16 13 30 29 30 16 0 30-14 30-30z"/>
<glyph glyph-name="trash-1" unicode="&#49;" d="M388 341l-264 0c-7 0-12-5-12-12l0-256c0-6 5-12 12-12l264 0c7 0 12 6 12 12l0 256c0 7-5 12-12 12z m17 82l-101 0 0 16c0 6-5 12-12 12l-72 0c-7 0-12-6-12-12l0-16-100 0c-7 0-13-5-13-12l0-35c0-7 6-13 13-13l297 0c6 0 12 6 12 13l0 35c0 7-6 12-12 12z"/>
<glyph glyph-name="eye" unicode="&#50;" d="M475 238c-29 45-65 78-108 101 11-20 17-42 17-65 0-35-13-65-38-90-25-25-55-38-90-38-35 0-65 13-90 38-25 25-38 55-38 90 0 23 6 45 17 65-43-23-79-56-108-101 25-39 57-70 95-94 38-23 79-34 124-34 45 0 86 11 124 34 38 24 70 55 95 94z m-205 109c0 4-2 7-4 10-3 3-6 4-10 4-24 0-44-8-61-25-17-17-26-38-26-62 0-4 1-7 4-9 3-3 6-4 10-4 4 0 7 1 10 4 2 2 4 5 4 9 0 17 5 31 17 42 12 12 26 18 42 18 4 0 7 1 10 4 2 2 4 6 4 9z m242-109c0-7-2-13-6-20-26-44-62-79-107-105-45-27-93-40-143-40-50 0-98 13-143 40-45 26-81 61-107 105-4 7-6 13-6 20 0 6 2 13 6 19 26 44 62 79 107 106 45 26 93 39 143 39 50 0 98-13 143-39 45-27 81-62 107-106 4-6 6-13 6-19z"/>
<glyph glyph-name="eye-slash-close" unicode="&#51;" d="M159 131l22 40c-17 12-30 27-39 45-9 19-14 38-14 58 0 23 6 45 17 65-43-23-79-56-108-101 31-49 72-85 122-107z m111 216c0 4-2 7-4 10-3 3-6 4-10 4-24 0-44-8-61-25-17-17-26-38-26-62 0-4 1-7 4-9 3-3 6-4 10-4 4 0 7 1 10 4 2 2 4 5 4 9 0 17 5 31 17 42 12 12 26 18 42 18 4 0 7 1 10 4 2 2 4 6 4 9z m103 55c0-1 0-2 0-3-20-35-50-89-90-161-40-72-70-126-90-162l-14-26c-2-3-5-4-8-4-2 0-15 6-38 20-3 2-5 4-5 8 0 2 4 10 13 25-28 12-53 28-76 49-23 21-43 44-59 70-4 6-6 12-6 20 0 7 2 14 6 19 29 45 65 81 108 106 44 26 91 39 142 39 17 0 34-1 51-5l16 28c2 3 4 5 8 5 1 0 3-1 5-2 2-1 5-3 9-4 3-2 6-4 9-6 3-1 6-3 9-5 3-2 5-3 6-3 3-2 4-5 4-8z m11-128c0-26-8-50-23-72-15-22-35-38-59-47l80 143c1-8 2-16 2-24z m128-36c0-7-2-14-6-20-7-12-18-26-31-41-28-33-62-59-99-77-38-18-78-27-120-27l21 38c41 3 78 16 112 39 35 23 63 52 86 88-21 34-48 62-80 84l18 32c18-12 35-27 52-44 17-17 30-34 41-53 4-6 6-13 6-19z"/>
<glyph glyph-name="menu-1" unicode="&#52;" d="M410 282c7 0 13-3 18-8 5-5 7-11 7-18 0-7-2-13-7-18-6-5-12-8-18-8 0 0-308 0-308 0-6 0-12 3-18 8-5 5-7 11-7 18 0 7 2 13 7 18 5 5 11 8 18 8 0 0 308 0 308 0m-308 51c-6 0-12 2-18 7-5 6-7 12-7 18 0 7 2 13 7 18 5 5 11 8 18 8 0 0 308 0 308 0 7 0 13-3 18-8 5-5 7-11 7-18 0-6-2-12-7-18-6-5-12-7-18-7 0 0-308 0-308 0m308-154c7 0 13-2 18-7 5-6 7-12 7-18 0-7-2-13-7-18-6-5-12-8-18-8 0 0-308 0-308 0-6 0-12 3-18 8-5 5-7 11-7 18 0 6 2 12 7 18 5 5 11 7 18 7 0 0 308 0 308 0"/>
<glyph glyph-name="minus-circled" unicode="&#53;" d="M256 471c59 0 110-21 152-63 42-42 63-93 63-152 0-59-21-110-63-152-42-42-93-63-152-63-59 0-110 21-152 63-42 42-63 93-63 152 0 59 21 110 63 152 42 42 93 63 152 63m129-188c0 0-258 0-258 0 0 0 0-53 0-53 0 0 258 0 258 0 0 0 0 53 0 53"/>
<glyph glyph-name="right-open-big" unicode="&#54;" d="M144 67c0 0 183 189 183 189 0 0-183 190-183 190-9 9-9 18 0 25 8 9 17 9 24 0 0 0 201-202 201-202 8-9 8-17 0-25 0 0-201-202-201-202-7-9-16-9-24 0-9 7-9 16 0 25"/>
<glyph glyph-name="left-open-big" unicode="&#55;" d="M368 67c9-9 9-18 0-25-8-9-17-9-24 0 0 0-201 202-201 202-8 8-8 16 0 25 0 0 201 202 201 202 7 9 16 9 24 0 9-7 9-16 0-25 0 0-183-190-183-190 0 0 183-189 183-189"/>
<glyph glyph-name="up-open-big" unicode="&#56;" d="M446 143c0 0-190 184-190 184 0 0-189-184-189-184-9-7-18-7-26 0-8 9-8 17 0 26 0 0 203 200 203 200 9 9 17 9 24 0 0 0 203-200 203-200 8-9 8-17 0-26-9-7-17-7-25 0"/>
<glyph glyph-name="down-open-big" unicode="&#57;" d="M67 369c0 0 189-183 189-183 0 0 190 183 190 183 8 9 16 9 25 0 9-8 9-16 0-25 0 0-203-201-203-201-7-7-15-7-24 0 0 0-203 201-203 201-9 9-9 17 0 25 8 8 17 8 26 0"/>
<glyph glyph-name="mobile" unicode="&#33;" d="M353 507c15 0 27-5 37-15 10-10 14-22 14-36 0 0 0-400 0-400 0-13-4-25-14-36-10-10-22-15-37-15 0 0-194 0-194 0-14 0-26 5-36 15-10 11-15 23-15 36 0 0 0 400 0 400 0 14 5 26 15 36 10 10 22 15 36 15 0 0 194 0 194 0m-97-481c10 0 19 2 26 7 6 5 10 11 10 18 0 8-4 14-10 19-7 4-16 7-26 7-10 0-18-3-25-8-7-5-11-11-11-18 0-7 4-13 11-18 7-5 15-7 25-7m108 76c0 0 0 338 0 338 0 0-216 0-216 0 0 0 0-338 0-338 0 0 216 0 216 0"/>
<glyph glyph-name="monitor" unicode="&#34;" d="M461 481c14 0 26-5 36-15 10-10 15-22 15-36 0 0 0-282 0-282 0-14-5-27-15-39-10-12-22-19-35-22 0 0-112-22-112-22 0 0 44-20 44-20 17-10 14-14-10-14 0 0-256 0-256 0-33 0-28 9 16 26 0 0 19 8 19 8 0 0-113 22-113 22-13 3-25 10-35 22-10 12-15 25-15 39 0 0 0 282 0 282 0 14 5 26 15 36 11 10 23 15 36 15 0 0 410 0 410 0m0-330c0 0 0 284 0 284 0 0-410 0-410 0 0 0 0-284 0-284 0 0 410 0 410 0"/>
<glyph glyph-name="login" unicode="&#35;" d="M435 486c15 0 27-5 37-14 9-10 14-22 14-37 0 0 0-358 0-358 0-14-5-26-14-36-10-10-22-15-37-15 0 0-230 0-230 0-14 0-26 5-36 15-9 10-14 22-14 36 0 0 0 51 0 51 0 0 50 0 50 0 0 0 0-51 0-51 0 0 230 0 230 0 0 0 0 358 0 358 0 0-230 0-230 0 0 0 0-77 0-77 0 0-50 0-50 0 0 0 0 77 0 77 0 15 5 27 14 37 10 9 22 14 36 14 0 0 230 0 230 0m-179-343c0 0 0 62 0 62 0 0-230 0-230 0 0 0 0 77 0 77 0 0 230 0 230 0 0 0 0 61 0 61 0 0 102-99 102-99 0 0-102-101-102-101"/>
<glyph glyph-name="logout-1" unicode="&#36;" d="M283 77c0 0 0 51 0 51 0 0 50 0 50 0 0 0 0-51 0-51 0-14-5-26-15-36-10-10-22-15-36-15 0 0-205 0-205 0-14 0-26 5-36 15-10 10-15 22-15 36 0 0 0 358 0 358 0 15 5 27 15 37 10 9 22 14 36 14 0 0 205 0 205 0 14 0 26-5 36-14 10-10 15-22 15-37 0 0 0-77 0-77 0 0-50 0-50 0 0 0 0 77 0 77 0 0-206 0-206 0 0 0 0-358 0-358 0 0 206 0 206 0m203 167c0 0-101-101-101-101 0 0 0 62 0 62 0 0-230 0-230 0 0 0 0 77 0 77 0 0 230 0 230 0 0 0 0 61 0 61 0 0 101-99 101-99"/>
<glyph glyph-name="lock" unicode="&#37;" d="M404 321c7 0 14-4 21-10 7-7 10-14 10-21 0 0 0-200 0-200 0-16-8-28-24-34 0 0-31-9-31-9-14-5-31-8-49-8 0 0-149 0-149 0-19 0-36 3-50 8 0 0-31 9-31 9-16 6-24 18-24 34 0 0 0 200 0 200 0 7 2 14 7 21 6 6 12 10 18 10 0 0 52 0 52 0 0 0 0 35 0 35 0 38 8 67 26 87 17 21 43 31 76 31 33 0 59-10 76-31 18-20 26-49 26-87 0 0 0-35 0-35 0 0 46 0 46 0m-199 46c0 0 0-46 0-46 0 0 102 0 102 0 0 0 0 46 0 46 0 17-4 31-14 41-9 10-21 15-37 15-16 0-28-5-37-15-10-10-14-24-14-41"/>
<glyph glyph-name="lock-open" unicode="&#38;" d="M404 307c7 0 14-3 21-10 7-7 10-14 10-21 0 0 0-199 0-199 0-7-2-14-7-20-5-7-11-11-17-13 0 0-31-10-31-10-18-6-34-8-49-8 0 0-149 0-149 0-15 0-32 2-50 8 0 0-31 10-31 10-6 2-12 6-17 13-5 6-7 13-7 20 0 0 0 199 0 199 0 8 2 15 7 21 6 7 12 10 18 10 0 0 205 0 205 0 0 0 0 72 0 72 0 37-17 56-51 56-34 0-51-19-51-56 0 0 0-21 0-21 0 0-51 0-51 0 0 0 0 11 0 11 0 37 8 66 26 87 17 20 43 30 76 30 68 0 102-39 102-117 0 0 0-62 0-62 0 0 46 0 46 0"/>
<glyph glyph-name="chevron-down" unicode="&#39;" d="M86 384c-13 13-34 13-48 0-6-7-10-16-10-24 0-9 4-18 10-24l218-218 218 218c13 13 13 35 0 48-14 13-35 13-49 0l-169-170z"/>
<glyph glyph-name="chevron-left" unicode="&#40;" d="M384 425c13 14 13 35 0 49-7 6-16 10-24 10-9 0-18-4-24-10l-218-218 218-218c13-13 35-13 48 0 13 14 13 35 0 49l-170 169z"/>
<glyph glyph-name="chevron-right" unicode="&#41;" d="M128 87c-13-14-13-35 0-49 7-6 16-10 24-10 9 0 18 4 24 10l218 218-218 218c-13 13-35 13-48 0-13-14-13-35 0-49l170-169z"/>
<glyph glyph-name="chevron-up" unicode="&#42;" d="M425 128c14-13 35-13 49 0 6 7 10 16 10 24 0 9-4 18-10 24l-218 218-218-218c-13-13-13-35 0-48 14-13 35-13 49 0l169 170z"/>
<glyph glyph-name="check-1" unicode="&#43;" d="M192 92c-11 0-22 5-30 13l-121 118c-17 17-17 43 0 59 16 16 43 16 59 0l92-90 220 215c16 17 43 17 59 0 17-16 17-42 0-58l-249-244c-8-8-19-13-30-13z"/>
<glyph glyph-name="cancel-circle" unicode="&#44;" d="M256 484c-126 0-228-102-228-228 0-126 102-228 228-228 126 0 228 102 228 228 0 126-102 228-228 228z m94-322c-5-5-12-7-18-7-7 0-13 3-19 7l-57 58-58-58c-5-5-11-7-18-7-6 0-13 3-18 7-10 10-10 26 0 36l58 58-58 58c-10 10-10 26 0 36 10 10 26 10 36 0l58-58 57 58c10 10 26 10 36 0 10-10 10-26 0-36l-57-58 57-58c11-10 11-26 1-36z"/>
<glyph glyph-name="single-user" unicode="&#45;" d="M256 293c61 0 109 49 109 109 0 61-48 110-109 110-61 0-110-49-110-110 0-60 49-109 110-109z m0-74c-85 0-256-42-256-128l0-91 512 0 0 91c0 86-171 128-256 128z"/>
<glyph glyph-name="single-user-1" unicode="&#46;" d="M256 293c61 0 109 49 109 109 0 61-48 110-109 110-61 0-110-49-110-110 0-60 49-109 110-109z m0-74c-85 0-256-42-256-128l0-91 512 0 0 91c0 86-171 128-256 128z"/>
<glyph glyph-name="out" unicode="&#47;" d="M480 288c-18 0-32-14-32-32l0-192-384 0 0 192c0 18-14 32-32 32-18 0-32-14-32-32l0-224c0-18 14-32 32-32l448 0c18 0 32 14 32 32l0 224c0 18-14 32-32 32z m-256-96c0-18 14-32 32-32 18 0 32 14 32 32l0 192 96 0-128 128-128-128 96 0z"/>
<glyph glyph-name="in" unicode="&#58;" d="M480 288c-18 0-32-14-32-32l0-192-384 0 0 192c0 18-14 32-32 32-18 0-32-14-32-32l0-224c0-18 14-32 32-32l448 0c18 0 32 14 32 32l0 224c0 18-14 32-32 32z m-192 0l0 196c0 15-14 28-32 28-18 0-32-13-32-28l0-196-96 0 128-128 128 128z"/>
<glyph glyph-name="home" unicode="&#59;" d="M503 314l-189 189c-8 7-17 10-27 9l-62 0c-10 1-19-2-27-9l-38-39 0 48-96 0 0-144-55-54c-7-8-10-17-9-27l0-63c0-18 14-32 32-32l32 0 0-160c0-18 14-32 32-32l320 0c18 0 32 14 32 32l0 160 32 0c18 0 32 14 32 32l0 63c1 10-2 19-9 27z m-55-58l-64 0 0-192-64 0 0 128-128 0 0-128-64 0 0 192-64 0 0 18 174 174 36 0 174-174z"/>
<glyph glyph-name="calendar" unicode="&#60;" d="M416 512l-64 0 0-64 64 0z m64 0l-32 0 0-96-128 0 0 96-128 0 0-96-128 0 0 96-32 0c-18 0-32-14-32-32l0-448c0-18 14-32 32-32l448 0c18 0 32 14 32 32l0 448c0 18-14 32-32 32z m-32-448l-384 0 0 288 384 0z m-288 448l-64 0 0-64 64 0z m128-224l-64 0 0-64 64 0z m96 0l-64 0 0-64 64 0z m-192-96l-64 0 0-64 64 0z m0 96l-64 0 0-64 64 0z m96-96l-64 0 0-64 64 0z m96 0l-64 0 0-64 64 0z"/>
<glyph glyph-name="trashcan" unicode="&#61;" d="M416 448l-128 0c0 0 0 12 0 16 0 9-7 16-16 16-9 0-16-7-16-16 0-9 0-16 0-16l-128 0c-18 0-32-14-32-32l0-32c0-18 14-32 32-32l0-288c0-18 14-32 32-32l224 0c18 0 32 14 32 32l0 288c18 0 32 14 32 32l0 32c0 18-14 32-32 32z m-32-368c0-9-7-16-16-16l-192 0c-9 0-16 7-16 16l0 272 32 0 0-240c0-9 7-16 16-16 9 0 16 7 16 16l0 240 32 0 0-240c0-9 7-16 16-16 9 0 16 7 16 16l0 240 32 0 0-240c0-9 7-16 16-16 9 0 16 7 16 16l0 240 32 0z m32 312c0-4-4-8-8-8l-272 0c-4 0-8 4-8 8l0 16c0 4 4 8 8 8l272 0c4 0 8-4 8-8z"/>
<glyph glyph-name="tools" unicode="&#62;" d="M143 279c9-8 41-42 41-42l18 18-28 30 54 57c0 0-24 24-14 14 11 38 1 81-28 110-28 30-69 40-105 30l62-64-17-63-60-17-62 64c-10-38-1-79 28-109 30-31 73-40 111-28z m206-62l-74-73 123-128c10-10 23-15 36-15 13 0 27 5 37 15 20 21 20 55 0 76z m163 214l-78 81-231-239 28-29-138-143-32-16-44-73 11-12 70 46 17 33 138 143 28-30z"/>
<glyph glyph-name="triangle-left" unicode="&#63;" d="M160 256l192-192 0 384z"/>
<glyph glyph-name="triangle-right" unicode="&#64;" d="M160 448l192-192-192-192z"/>
<glyph glyph-name="triangle-up" unicode="&#91;" d="M256 384l-192-192 384 0z"/>
<glyph glyph-name="triangle-down" unicode="&#93;" d="M64 320l192-192 192 192z"/>
<glyph glyph-name="ban-denied" unicode="&#94;" d="M411 411c-85 86-225 86-310 0-86-85-86-225 0-310 85-86 225-86 310 0 86 85 86 225 0 310z m-60-21l-229-229c-46 64-40 154 17 212 58 57 148 63 212 17z m39-39c46-64 40-154-17-212-58-57-148-63-212-17l229 229z"/>
<glyph glyph-name="home-1" unicode="&#95;" d="M256 476l-199-155 0-285 137 0 0 172 124 0 0-172 137 0 0 285z"/>
<glyph glyph-name="home-circled" unicode="&#96;" d="M256 476c-121 0-220-99-220-220 0-121 99-220 220-220 121 0 220 99 220 220 0 121-99 220-220 220z m0-102l107-83 0-153-74 0 0 92-66 0 0-92-74 0 0 153 107 83z"/>
<glyph glyph-name="cerchio" unicode="&#123;" d="M255 480c-124 0-223-99-223-223 0-124 99-223 223-223 124 0 223 99 223 223 2 122-99 223-223 223z"/>
<glyph glyph-name="drag1" unicode="&#124;" d="M9 512l494 0 0-32-494 0z m0-240l494 0 0-32-494 0z m0-240l494 0 0-32-494 0z m0 120l494 0 0-32-494 0z m0 240l494 0 0-32-494 0z"/>
<glyph glyph-name="drag2" unicode="&#125;" d="M248 450l16 0 0-388-16 0z"/>
<glyph glyph-name="drag-intero" unicode="&#126;" d="M465 512l21 0 0-512-21 0z m-439-92l316 0 0-21-316 0z m0-154l316 0 0-20-316 0z m0-153l316 0 0-21-316 0z m0 76l316 0 0-20-316 0z m0 154l316 0 0-20-316 0z"/>
<glyph glyph-name="esagono" unicode="&#92;" d="M384 478l0 0-256 0-128-222 0 0 128-222 0 0 256 0 128 222 0 0z"/>
<glyph glyph-name="quadrato" unicode="&#57344;" d="M32 480l446 0 0-446-446 0z"/>
<glyph glyph-name="arrow-move" unicode="&#57345;" d="M480 256l-96 96 0-76-108 0 0 108 76 0-96 96-96-96 76 0 0-108-108 0 0 76-96-96 96-96 0 76 108 0 0-108-76 0 96-96 96 96-76 0-1 108 109 0 0-76z"/>
<glyph glyph-name="vai" unicode="&#57346;" d="M0 224l389 0-178-179 45-45 256 256-256 256-45-45 178-179-389 0z"/>
<glyph glyph-name="pencil" unicode="&#57347;" d="M140 73l26 26-67 67-26-26 0-30 37 0 0-37z m150 265c0 4-2 7-7 7-1 0-3-1-4-2l-155-155c-2-2-2-3-2-5 0-4 2-6 6-6 2 0 4 0 5 2l155 154c1 2 2 3 2 5z m-16 55l119-119-238-237-118 0 0 118z m195-27c0-10-3-19-10-26l-48-47-118 118 47 48c7 7 15 10 26 10 10 0 18-3 26-10l67-67c7-8 10-16 10-26z"/>
<glyph glyph-name="trash-2" unicode="&#57348;" d="M201 119l0 201c0 3-1 5-2 7-2 1-4 2-7 2l-18 0c-3 0-5-1-7-2-2-2-2-4-2-7l0-201c0-3 0-5 2-7 2-1 4-2 7-2l18 0c3 0 5 1 7 2 1 2 2 4 2 7z m73 0l0 201c0 3-1 5-2 7-2 1-4 2-7 2l-18 0c-3 0-5-1-7-2-1-2-2-4-2-7l0-201c0-3 1-5 2-7 2-1 4-2 7-2l18 0c3 0 5 1 7 2 1 2 2 4 2 7z m73 0l0 201c0 3 0 5-2 7-2 1-4 2-7 2l-18 0c-3 0-5-1-7-2-1-2-2-4-2-7l0-201c0-3 1-5 2-7 2-1 4-2 7-2l18 0c3 0 5 1 7 2 2 2 2 4 2 7z m-155 283l128 0-14 34c-1 1-3 2-5 3l-90 0c-2-1-4-2-5-3z m265-9l0-18c0-3-1-5-2-7-2-1-4-2-7-2l-27 0 0-271c0-16-5-30-14-41-9-12-20-17-32-17l-238 0c-12 0-23 5-32 16-9 11-14 25-14 41l0 272-27 0c-3 0-5 1-7 2-1 2-2 4-2 7l0 18c0 3 1 5 2 7 2 1 4 2 7 2l88 0 20 48c3 7 8 13 16 18 7 5 15 7 22 7l92 0c7 0 15-2 22-7 8-5 13-11 16-18l20-48 88 0c3 0 5-1 7-2 1-2 2-4 2-7z"/>
<glyph glyph-name="trash-o" unicode="&#57349;" d="M201 302l0-165c0-3-1-5-2-6-2-2-4-3-7-3l-18 0c-3 0-5 1-7 3-2 1-2 3-2 6l0 165c0 2 0 5 2 6 2 2 4 3 7 3l18 0c3 0 5-1 7-3 1-1 2-4 2-6z m73 0l0-165c0-3-1-5-2-6-2-2-4-3-7-3l-18 0c-3 0-5 1-7 3-1 1-2 3-2 6l0 165c0 2 1 5 2 6 2 2 4 3 7 3l18 0c3 0 5-1 7-3 1-1 2-4 2-6z m73 0l0-165c0-3 0-5-2-6-2-2-4-3-7-3l-18 0c-3 0-5 1-7 3-1 1-2 3-2 6l0 165c0 2 1 5 2 6 2 2 4 3 7 3l18 0c3 0 5-1 7-3 2-1 2-4 2-6z m37-207l0 271-256 0 0-271c0-4 1-8 2-12 1-3 3-6 4-7 2-2 3-3 3-3l238 0c0 0 1 1 3 3 1 1 3 4 4 7 1 4 2 8 2 12z m-192 307l128 0-14 34c-1 1-3 2-5 3l-90 0c-2-1-4-2-5-3z m265-9l0-18c0-3-1-5-2-7-2-1-4-2-7-2l-27 0 0-271c0-16-5-30-14-41-9-12-20-17-32-17l-238 0c-12 0-23 5-32 16-9 11-14 25-14 41l0 272-27 0c-3 0-5 1-7 2-1 2-2 4-2 7l0 18c0 3 1 5 2 7 2 1 4 2 7 2l88 0 20 48c3 7 8 13 16 18 7 5 15 7 22 7l92 0c7 0 15-2 22-7 8-5 13-11 16-18l20-48 88 0c3 0 5-1 7-2 1-2 2-4 2-7z"/>
<glyph glyph-name="pencil-1" unicode="&#57350;" d="M384 480l-64-64 96-96 64 64z m-352-352l0-96 96 0 256 256-96 96z m96-64l-64 0 0 64 32 0 0-32 32 0z"/>
<glyph glyph-name="pencil-2" unicode="&#57351;" d="M464 406l-57 58c-16 15-43 14-60-3-18-17-19-44-3-60l58-58c16-16 43-15 60 3 17 17 18 44 2 60z m-367-195l115-115 188 187-116 116z m-61-174l152 31-121 121z"/>
<glyph glyph-name="information" unicode="&#57352;" d="M256 476c-121 0-220-99-220-220 0-121 99-220 220-220 121 0 220 99 220 220 0 121-99 220-220 220z m-7-76c10 0 18-2 25-8 6-5 9-13 9-21 0-9-3-17-9-22-7-5-15-8-25-8-10 0-18 3-24 8-7 5-10 13-10 22 0 8 3 16 10 21 6 6 14 8 24 8z m32-96l8-10c-4-12-7-25-7-40l0-106c0-3 1-6 1-7 1-2 3-3 6-5 5-3 13-6 23-9l-3-15c-25 2-43 4-53 4-10 0-27-2-51-4l-4 15c11 3 18 5 23 9 4 2 7 7 7 12l0 108c0 10-4 15-12 15l-15-3-4 18c11 4 24 8 41 12 17 4 30 6 40 6z"/>
<glyph glyph-name="star-2" unicode="&#57353;" d="M388 46l-134 99-137-95 52 158-132 101 166-1 55 158 51-159 166-4-135-97z"/>
<glyph glyph-name="star" unicode="&#57354;" d="M258 466l-14-40-41-118-125 1-41 0 33-25 99-76-39-119-13-39 34 24 103 71 101-74 33-25-12 40-36 120 102 73 33 24-41 1-125 3-38 119z m-1-88l28-89 3-9 10-1 94-2-76-54-8-6 3-10 27-89-76 55-8 6-8-6-77-53 30 89 3 9-8 6-75 57 94 0 10 0 3 9z"/>
<glyph glyph-name="pencil-3" unicode="&#57355;" d="M455 362l-93 93c-5 5-14 5-20 0l-253-254 1 0-1 0-35-130 0 0c-2-4 0-10 3-14 5-4 11-5 16-2l0 0 128 34 0 0 0 0 254 254c5 5 5 14 0 19z m-359-265l21 76 56-56z"/>
<glyph glyph-name="dot-3" unicode="&#57356;" d="M77 312c16 0 29-5 40-16 11-11 16-24 16-40 0-15-5-28-16-39-11-12-24-17-40-17-16 0-29 5-40 17-11 11-17 24-17 39 0 16 6 29 17 40 11 11 24 16 40 16m179 0c16 0 29-5 40-16 11-11 16-24 16-40 0-15-5-28-17-39-11-12-24-17-39-17-15 0-28 5-39 17-12 11-17 24-17 39 0 16 5 29 16 40 11 11 24 16 40 16m179 0c16 0 29-5 40-16 11-11 17-24 17-40 0-15-6-28-17-39-11-12-24-17-40-17-15 0-29 5-40 17-11 11-16 24-16 39 0 16 5 29 16 40 11 11 25 16 40 16"/>
<glyph glyph-name="user-female" unicode="&#57357;" d="M479 85c-19 19-93 38-130 57-22 11-34 33-37 55 29 0 40 0 40 0 0 0 14 27 20 143 5 93-41 127-81 138-9 3-19 4-27 5 0 0-1 0-1 0-2 0-4 0-6 0-15 1-26-1-30-3-12-6-18-17-21-24-1-2-1-3-1-4 0 0 0 0 0 0-8 4-25 1-38-12-49-44-7-243-7-243 0 0 11 0 40 0-3-22-15-44-37-55-37-19-112-38-130-57-19-19-19-57-19-57l484 0c0 1 0 38-19 57z"/>
<glyph glyph-name="user-male" unicode="&#57358;" d="M479 85c-19 19-93 38-130 57-25 13-38 40-38 63 0 12 8 22 16 31 6 7 11 17 15 29 10 4 22 13 22 36 0 14-2 23-7 29 2 13 3 26 4 39 0 4 0 7 0 10-2 113-118 109-135 101-15-8-21-25-21-28 0 0 0 0-1 0-10 5-33-1-46-24-13-24-8-59-8-59 1-13 3-27 5-39-5-6-7-15-7-29 0-23 12-32 22-37 4-12 9-22 15-28 7-9 15-19 15-31 0-24-12-51-37-63-37-19-112-38-130-57-19-19-19-57-19-57l484 0c-1 1-1 38-19 57z"/>
<glyph glyph-name="users" unicode="&#57359;" d="M352 115c-15 16-78 32-109 48-21 11-32 33-32 53 0 10 7 19 13 26 5 6 9 14 13 24 8 4 18 12 18 31 0 12-2 19-5 24 1 11 2 22 3 34 4 45-42 90-89 90-47 0-92-45-88-90 1-12 2-23 3-34-4-5-5-12-5-24 0-19 9-27 18-31 4-10 8-18 13-24 6-7 13-16 13-26 0-20-11-42-32-53-18-9-48-19-72-28l0-68 354 0c0 0 0 32-16 48z m146 7c-21 8-46 16-62 24-17 8-25 27-25 43 0 8 5 15 10 21 4 5 8 12 11 20 7 3 15 10 15 25 0 10-2 16-5 20 1 9 2 18 3 27 3 37-34 76-73 76-38 0-75-39-72-76 1-9 2-18 3-27-3-4-5-10-5-20 0-16 8-22 15-25 3-8 7-15 11-20 4-6 10-13 10-21 0-10-4-22-11-31 30-11 43-22 53-33 19-19 19-58 19-58l103 0z"/>
<glyph glyph-name="exclamation" unicode="&#57360;" d="M311 155l0-64c0-5-2-9-6-12-3-4-7-6-12-6l-74 0c-5 0-9 2-12 6-4 3-6 7-6 12l0 64c0 5 2 10 6 13 3 4 7 6 12 6l74 0c5 0 9-2 12-6 4-3 6-8 6-13z m8 302l-8-219c0-5-2-10-5-13-4-4-8-6-13-6l-74 0c-5 0-9 2-13 6-3 3-5 8-5 13l-8 219c-1 5 1 9 5 13 3 4 7 5 12 5l92 0c5 0 9-1 12-5 4-4 6-8 5-13z"/>
<glyph glyph-name="servizi" unicode="&#57361;" d="M508 279l-368 0 0 21c0 102 79 184 181 186 103 3 185-79 187-181 0 0 0-3 0-3 0-2 0-23 0-23z m-322 44l279 0c-13 76-85 130-162 117-61-10-110-56-117-117z m284-93c-28-12-123-48-123-48l-113 7c0 0 64 18 90 23 10 3 15 11 15 21 0 8-7 13-15 15-13 0-133-5-133-5l-80-28 21-136c0 0 15 29 33 29 18 0 159-3 179 0 21 2 139 84 151 94 8 8 8 21 0 26-7 8-18 8-25 2z m-466-30l0-174 123 23-31 166z"/>
<glyph glyph-name="link-esterno" unicode="&#57362;" d="M358 330l40 40-142 142-142-142 40-40 74 73 0-275 56 0 0 275z m154-273l0 402-57 0 0-402-398 0 0 402-57 0 0-402c0-31 26-57 57-57l398 0c31 0 57 26 57 57z"/>
<glyph glyph-name="file-excel" unicode="&#57363;" d="M481 374c-2 2-122 120-122 120-12 11-29 16-45 16l-207 0c-25 0-45-20-45-44l0-156 33 0 0 156c0 6 5 11 10 11l207 0c0 0 2 0 2 0l0-112c0-24 18-42 42-42l101 0 0-276c0-5-5-11-10-11l-340 0c-5 0-11 6-11 11l0 22-34 0 0-22c0-23 20-43 43-43l343 0c24 0 44 20 44 43l0 296c2 11-4 22-11 31z m-122-20c-5 0-10 5-10 11l0 92 105-103z m31-76l-346 0c-15 0-26-11-26-26l0-127c0-14 11-25 26-25l348 0c15 0 26 11 26 25l0 127c-2 15-13 26-28 26z m-245-147l-25 36-25-36-37 0 44 60-42 58 38 0 24-33 23 33 37 0-42-57 43-59z m135 0l-86 0 0 116 31 0 0-89 53 0z m63 72c15-7 33-16 33-36-2-22-20-38-42-36 0 0-2 0-2 0-16 0-34 5-45 18l18 20c7-7 18-13 29-13 5 0 9 4 9 7 0 6-5 10-23 19-15 5-26 18-28 34 0 20 17 35 42 35 15 0 29-6 42-17l-18-20c-6 6-15 9-22 11-7 0-9-3-9-7-2-6 2-9 16-15z"/>
<glyph glyph-name="file-pdf" unicode="&#57364;" d="M481 374c-2 2-122 120-122 120-12 11-29 16-45 16l-207 0c-25 0-45-20-45-44l0-156 33 0 0 156c0 6 5 11 10 11l207 0c0 0 2 0 2 0l0-112c0-24 18-42 42-42l101 0 0-276c0-5-5-11-10-11l-340 0c-5 0-11 6-11 11l0 22-34 0 0-22c0-23 20-43 43-43l343 0c24 0 44 20 44 43l0 296c2 11-4 22-11 31z m-122-20c-5 0-10 5-10 11l0 92 105-103z m-147-134l-12 0 0-62 12 0c17-2 33 11 33 29 2 16-11 33-29 33 0 0-2 0-4 0z m-110 2l-18 0 0-30 18 0c9 0 16 6 16 13 0 9-5 17-13 17-1 0-1 0-3 0z m288 56l-346 0c-15 0-26-11-26-26l0-127c0-14 11-25 26-25l348 0c15 0 26 11 26 25l0 127c-2 15-13 26-28 26z m-286-113l-19 0 0-34-32 0 0 116 52 0c22 2 42-13 46-36 0-2 0-4 0-6 0-22-20-40-42-40-2 0-4 0-5 0z m107-34l-42 0 0 116 43 0c33 4 62-22 64-55 0-1 0-1 0-3-2-35-29-60-64-58 0 0 0 0-1 0z m170 89l-54 0 0-22 47 0 0-27-47 0 0-40-31 0 0 116 85 0z"/>
<glyph glyph-name="file-txt" unicode="&#57365;" d="M481 374c-2 2-122 120-122 120-12 11-29 16-45 16l-207 0c-25 0-45-20-45-44l0-156 33 0 0 156c0 6 5 11 10 11l207 0c0 0 2 0 2 0l0-112c0-24 18-42 42-42l101 0 0-276c0-5-5-11-10-11l-340 0c-5 0-11 6-11 11l0 22-34 0 0-22c0-23 20-43 43-43l343 0c24 0 44 20 44 43l0 296c2 11-4 22-11 31z m-122-20c-5 0-10 5-10 11l0 92 105-103z m31-76l-346 0c-15 0-26-11-26-26l0-127c0-14 11-25 26-25l348 0c15 0 26 11 26 25l0 127c-2 15-13 26-28 26z m-237-58l-31 0 0-89-33 0 0 89-31 0 0 27 95 0z m88-89l-25 36-25-36-37 0 44 60-42 58 38 0 24-33 23 33 37 0-42-58 44-60z m135 89l-31 0 0-89-31 0 0 89-31 0 0 27 95 0z"/>
<glyph glyph-name="file-word" unicode="&#57366;" d="M481 374c-2 2-122 120-122 120-12 11-29 16-45 16l-207 0c-25 0-45-20-45-44l0-156 33 0 0 156c0 6 5 11 10 11l207 0c0 0 2 0 2 0l0-112c0-24 18-42 42-42l101 0 0-276c0-5-5-11-10-11l-340 0c-5 0-11 6-11 11l0 22-34 0 0-22c0-23 20-43 43-43l343 0c24 0 44 20 44 43l0 296c2 11-4 22-11 31z m-122-20c-5 0-10 5-10 11l0 92 105-103z m-143-134c-16 0-31-13-33-29 0-17 13-31 29-33 17 0 31 13 33 29 0 0 0 0 0 2 0 16-13 31-27 31 0 0 0 0-2 0z m-127 0l-13 0 0-62 13 0c16-2 33 11 33 29 0 18-11 33-29 33 0 0-2 0-4 0z m301 58l-346 0c-15 0-26-11-26-26l0-127c0-14 11-25 26-25l348 0c15 0 26 11 26 25l0 127c-2 15-13 26-28 26z m-303-147l-41 0 0 116 43 0c33 4 62-22 64-55 0-1 0-1 0-3-2-35-29-60-64-58 0 0 0 0-2 0z m129-2c-33-2-60 24-62 56 0 0 0 2 0 2 0 33 28 60 60 60 0 0 0 0 2 0 33 2 60-24 62-56 0 0 0-2 0-2 0-33-27-60-62-60 2 0 0 0 0 0z m125 0c-32-2-60 24-61 56 0 0 0 2 0 2 0 33 27 60 59 60 0 0 0 0 2 0 18 2 35-6 46-20l-24-20c-5 7-14 11-24 11-16-2-29-16-29-33 2-14 13-27 29-29 10 0 19 4 26 13l22-20c-9-13-28-20-46-20z"/>
<glyph glyph-name="file-zip" unicode="&#57367;" d="M481 374c-2 2-122 120-122 120-12 11-29 16-45 16l-207 0c-25 0-45-20-45-44l0-156 33 0 0 156c0 6 5 11 10 11l207 0c0 0 2 0 2 0l0-112c0-24 18-42 42-42l101 0 0-276c0-5-5-11-10-11l-340 0c-5 0-11 6-11 11l0 22-34 0 0-22c0-23 20-43 43-43l343 0c24 0 44 20 44 43l0 296c2 11-4 22-11 31z m-122-20c-5 0-10 5-10 11l0 92 105-103z m-52-132l-18 0 0-30 18 0c9 0 16 6 16 13 0 7-5 15-14 17 0 0-2 0-2 0z m83 56l-346 0c-15 0-26-11-26-26l0-127c0-14 11-25 26-25l348 0c15 0 26 11 26 25l0 127c-2 15-13 26-28 26z m-210-53l-58-67 58 0 0-27-100 0 0 23 58 68-54 0 0 27 96 0z m52-94l-32 0 0 116 32 0z m77 34l-20 0 0-34-31 0 0 116 51 0c21 2 41-13 45-36 0-2 0-4 0-6 0-23-20-42-42-42-2 2-3 2-3 2z"/>
<glyph glyph-name="brochure" unicode="&#57368;" d="M323 512l-226 0c-28 0-53-26-53-54l0-402c0-30 25-56 53-56l318 0c30 0 53 26 53 54l0 312z m-228-461l0 410 192 0 0-131 130 0 0-279z m48 74l228 0 0-28-228 0z m0 77l228 0 0-28-228 0z m0 80l228 0 0-29-228 0z m0 130l103 0 0-28-103 0z"/>
<glyph glyph-name="guida" unicode="&#57369;" d="M230 154l52 0 0-52-52 0z m26 256c-56 0-102-46-102-103l51 0c0 28 23 51 51 51 28 0 51-23 51-51 0-51-77-46-77-128l52 0c0 59 76 64 76 128 0 57-46 103-102 103z m0 102c-141 0-256-115-256-256 0-141 115-256 256-256 141 0 256 115 256 256 0 141-115 256-256 256z m0-461c-113 0-205 92-205 205 0 113 92 205 205 205 113 0 205-92 205-205 0-113-92-205-205-205z"/>
<glyph glyph-name="testimonianze" unicode="&#57370;" d="M465 465l-418 0c-26 0-47-20-47-46l0-279c0-26 21-47 47-47l116 0 0-46 186 0 0 46 116 0c26 0 47 21 47 47l0 279c0 26-21 46-47 46z m0-325l-418 0 0 279 418 0z m-116 139l-163-93 0 186z"/>
<glyph glyph-name="print" unicode="&#57371;" d="M463 332c0 5-4 9-9 9l-67 0 0 110c0 5-5 10-10 10l-242 0c-5 0-10-5-10-10l0-110-67 0c0 0 0 0 0 0-5 0-9-4-9-9l0 0 0-188c0-5 4-10 9-10l67 0 0 79 262 0 0-79 67 0c5 0 9 5 9 10l0 188z m-102-33l-210 0 0 127c0 5 4 9 9 9l192 0c5 0 9-4 9-9l0-127z m-209-238c0-5 4-10 9-10l190 0c5 0 9 5 9 10l0 126-208 0z"/>
<glyph glyph-name="print-1" unicode="&#57372;" d="M435 358l-358 0c-44 0-77-33-77-76l0-154 102 0 0-102 308 0 0 102 102 0 0 154c0 43-33 76-77 76z m-77-281l-204 0 0 128 204 0z m77 179c-15 0-25 10-25 26 0 15 10 25 25 25 16 0 26-10 26-25 0-16-10-26-26-26z m-25 230l-308 0 0-102 308 0z"/>
<glyph glyph-name="link" unicode="&#57373;" d="M434 165c0 7-2 14-8 19l-59 59c-5 6-12 8-20 8-8 0-14-3-20-9 0 0 2-2 5-5 3-3 5-5 6-6 1-1 3-3 5-6 2-2 3-4 3-7 1-2 1-5 1-8 0-7-2-14-8-19-5-5-11-8-19-8-3 0-5 0-8 1-2 1-5 2-7 4-3 1-4 3-6 4-1 1-3 3-6 6-3 3-4 5-5 5-6-5-9-12-9-20 0-8 2-15 8-20l58-59c6-5 12-8 20-8 7 0 14 3 19 8l42 41c6 6 8 12 8 20z m-201 201c0 8-2 14-8 19l-58 60c-6 5-12 8-20 8-7 0-14-3-19-8l-42-42c-6-5-8-12-8-19 0-8 2-14 8-19l59-60c5-5 12-8 20-8 8 0 14 3 20 9 0 1-2 3-5 6-3 3-5 5-6 6-1 1-3 3-5 5-2 3-3 5-3 7-1 3-1 5-1 8 0 8 2 14 8 20 5 5 11 8 19 8 3 0 5-1 8-1 2-1 5-2 7-4 3-2 4-3 6-4 1-1 3-3 6-6 3-3 4-5 5-6 6 6 9 13 9 21z m256-201c0-23-8-43-24-58l-42-42c-16-16-35-24-58-24-23 0-43 8-58 24l-59 60c-16 15-24 35-24 58 0 23 8 43 25 59l-25 25c-16-16-36-25-59-25-23 0-43 8-59 24l-59 60c-16 16-24 35-24 58 0 23 8 42 24 58l42 42c16 16 35 23 58 23 23 0 43-8 58-24l59-59c16-16 24-35 24-58 0-23-8-43-25-60l25-25c16 17 36 25 59 25 23 0 43-8 59-24l59-59c16-16 24-36 24-58z"/>
<glyph glyph-name="envelope-o" unicode="&#57374;" d="M475 82l0 220c-6-7-12-13-19-19-51-39-92-72-122-97-10-8-18-14-24-19-6-4-14-9-24-14-11-4-21-7-30-7l0 0c-9 0-19 3-30 7-10 5-18 10-24 14-6 5-14 11-24 19-30 25-71 58-122 97-7 6-13 12-19 19l0-220c0-2 0-4 2-6 2-2 4-3 7-3l420 0c3 0 5 1 7 3 2 2 2 4 2 6z m0 301l0 7 0 3-1 4-1 2-3 3-4 0-420 0c-3 0-5-1-7-2-2-2-2-4-2-7 0-32 14-59 42-81 36-29 75-59 114-91 1-1 5-3 10-8 6-5 10-8 13-11 4-2 8-5 13-9 5-3 10-6 14-8 5-1 9-2 13-2l0 0c4 0 8 1 13 2 4 2 9 5 14 8 5 4 9 7 13 9 3 3 7 6 13 11 5 5 9 7 10 8 39 32 78 62 114 91 11 8 20 19 29 33 9 14 13 26 13 38z m37 10l0-311c0-12-4-23-13-32-9-9-20-13-33-13l-420 0c-13 0-24 4-33 13-9 9-13 20-13 32l0 311c0 13 4 23 13 32 9 9 20 14 33 14l420 0c13 0 24-5 33-14 9-9 13-19 13-32z"/>
<glyph glyph-name="android-alarm-clock" unicode="&#57376;" d="M470 387l-98 82-28-33 98-82z m-303 50l-28 33-97-83 28-33z m100-98l-32 0 0-127 101-61 16 27-85 50z m-11 85c-107 0-193-86-193-191 0-105 86-191 193-191 106 0 193 86 193 191 0 105-87 191-193 191z m0-340c-82 0-150 67-150 149 0 82 68 149 150 149 82 0 150-67 150-149 0-83-68-149-150-149z"/>
<glyph glyph-name="information-white" unicode="&#57377;" d="M256 369c-20 0-34-12-34-31 0-18 14-30 34-30 21 0 34 12 34 30 0 19-13 31-34 31z m-32-81l64 0 0-145-64 0z m32 196c-126 0-228-102-228-228 0-126 102-228 228-228 126 0 228 102 228 228 0 126-102 228-228 228z m0-399c-94 0-171 77-171 171 0 94 77 171 171 171 94 0 171-77 171-171 0-94-77-171-171-171z"/>
<glyph glyph-name="line-chart" unicode="&#57378;" d="M549 73l0-36-586 0 0 438 37 0 0-402z m-37 357l0-125c0-4-2-6-6-8-3-2-7-1-10 2l-34 35-181-181c-2-2-4-3-7-3-2 0-4 1-6 3l-67 66-119-118-55 54 168 168c1 1 4 2 6 2 3 0 5-1 7-2l66-67 133 133-35 34c-3 3-3 7-2 10 2 4 5 6 9 6l124 0c3 0 5-1 6-3 2-1 3-4 3-6z"/>
<glyph glyph-name="bar-chart" unicode="&#57379;" d="M146 256l0-146-73 0 0 146z m110 146l0-292-73 0 0 292z m293-329l0-36-586 0 0 438 37 0 0-402z m-183 256l0-219-73 0 0 219z m109 110l0-329-73 0 0 329z"/>
<glyph glyph-name="warning-alt" unicode="&#57380;" d="M256 484c-126 0-228-102-228-228 0-126 102-228 228-228 126 0 228 102 228 228 0 126-102 228-228 228z m0-399c-94 0-171 77-171 171 0 94 77 171 171 171 94 0 171-77 171-171 0-94-77-171-171-171z m-2 312c-23-2-40-23-37-46l12-118c2-13 12-24 26-26 16-1 30 10 31 26l13 118c0 3 0 6 0 8-2 23-22 40-45 38z m-21-220c-7-7-11-16-11-25 0-10 4-19 11-26 7-6 16-10 25-10 9 0 19 4 25 10 7 7 11 16 11 26 0 9-4 18-11 25-13 13-37 13-50 0z"/>
<glyph glyph-name="arrow-big-down" unicode="&#57381;" d="M61 414l195-195 195 195 61-60-256-256-256 256z"/>
<glyph glyph-name="arrow-big-up" unicode="&#57382;" d="M451 98l-195 195-195-195-61 60 256 256 256-256z"/>
<glyph glyph-name="arrow-small-down" unicode="&#57383;" d="M448 410l-192-192-192 192-58-58 250-250 250 250z"/>
<glyph glyph-name="exit" unicode="&#57384;" d="M201 154l41-41 144 143-144 143-41-41 75-75-276 0 0-58 276 0z m253 358l-396 0c-34 0-58-24-58-58l0-113 58 0 0 113 399 0 0-399-399 0 0 116-58 0 0-113c0-34 24-58 58-58l399 0c31 0 58 24 58 58l0 396c-3 34-27 58-61 58z"/>
<glyph glyph-name="events" unicode="&#57385;" d="M230 294l52 0 0-51-52 0z m103 0l51 0 0-51-51 0z m-205 0l51 0 0-51-51 0z m26-140c-23 0-41 18-41 41 0 23 18 41 41 41 23 0 41-18 41-41 0-23-18-41-41-41z m0 69c-16 0-29-13-29-28 0-16 13-29 29-29 15 0 28 13 28 29 0 15-13 28-28 28z m179-5l51 0 0-52-51 0z m-103 0l52 0 0-52-52 0z m0-77l52 0 0-51-52 0z m103 0l51 0 0-51-51 0z m-205 0l51 0 0-51-51 0z m-26 371l52 0 0-128-52 0z m256 0l52 0 0-128-52 0z m77-51l-10 0 0-95-85 0 0 95-168 0 0-95-88 0 0 95-7 0c-28 0-51-23-51-51l0-359c0-28 23-51 51-51l358 0c28 0 51 23 51 51l0 359c0 28-23 51-51 51z m0-410l-358 0 0 282 358 0z"/>
<glyph glyph-name="ethical" unicode="&#57386;" d="M500 438c0 27-21 48-46 51-12 0-23-5-33-14-9-10-14-21-14-35l-7-96-2 0c-7-2-14-7-19-11l-100-121 0-186 131 0 0 81 90 114c7 9 12 21 12 33z m-25-194l-100-125 0-58-63 0 0 134 88 108c3 2 3 2 5 4 2 0 5 0 5 0l7-2c4-5 4-12 2-19l-2-2-35-49c-3-2-3-5-3-9 0-7 5-12 12-14 2 0 5 2 7 4 0 0 0 0 2 3l38 51c11 16 11 40-3 53 0 3-2 3-2 3l-2 2 9 110c0 2 2 7 5 9 4 4 13 4 18 0 2-2 5-7 5-9l11-184c-2-5-2-7-4-10z m-361 100l-7 96c0 14-5 25-14 35-12 9-23 14-35 14-28 0-49-24-46-51l-12-187c0-11 5-23 12-32l90-114 0-82 131 0 0 186-100 121c-5 7-12 10-19 14z m84-283l-61 0 0 58-100 125c-2 3-2 5-2 7l12 187c0 7 4 13 14 13 6 0 13-4 13-11l10-107-7-5-3-2c-13-16-16-40-2-56l2-2 35-49 3-3c2-2 4-4 7-4 7 0 11 7 11 14 0 2 0 4-2 7l-2 2-38 51c-4 10-2 17 0 19l5 2 5 3c2 0 4 0 4 0 3 0 5-3 5-3l91-109z m123 316c0-36-29-65-65-65-36 0-65 29-65 65 0 36 29 65 65 65 36 0 65-29 65-65z"/>
<glyph glyph-name="insurgency2" unicode="&#57387;" d="M167 420c5 0 8-2 13-5 29-14 58-29 88-43 5-1 7-5 6-10-5-18-21-28-38-28-3 0-5 0-7 1-11 2-21 6-32 8-3-7-8-15-11-23-2-1 2-6 4-7 20-17 39-35 58-52 7-6 12-13 16-21 5-19 14-38 21-55 1-2 2-5 3-8l2 0 19 78c7-5 14-9 21-13 5-3 9-6 14-8 3-2 8-4 11-5 4 0 6 1 9 4 12 14 26 26 39 40 3 4 6 6 8 9 2-16-2-32-10-46-8-17-16-34-25-50-5-13-12-25-18-38-3-5-4-11-4-15 0-31 0-61 0-91 0-9 0-9-9-9l-150 0c-2 0-6 0-11 1 2 17 4 33 5 49 2 23 6 47 8 71 0 4-1 8-3 11-31 44-58 88-86 132-6 8-6 18-2 26 17 28 32 56 48 84 5 10 8 13 13 13m100-279c-5 0-9 1-15 2 0 0-1 0-1-1 0 0 0 0 0-1 13-10 20-23 20-39 0-10 1-33 2-44 0 0 0-1 1-1 0 0 1 0 1 1 3 11 8 33 11 43 3 14 14 26 25 33 0 0 0 0 0 1-1 0-2 0-3 0-6 0-11 1-15 3-4 3-6 6-7 10-3-4-5-6-8-7-4 0-7 0-11 0m-100 310c-17-1-33-11-40-27l-12-24c-12-21-24-40-35-61-12-19-11-42 1-60 29-44 56-88 81-129-1-14-2-28-4-41-1-8-3-16-3-25-1-12-2-22-3-34l-1-15c-1-18 10-33 28-34 0 0 0 0 1 0l3 0c4 0 6 0 8 0l151 0c26 0 40 14 40 41l0 28c0 20 0 41 0 60 0 1 0 3 0 3 4 8 8 17 13 25l6 12 7 14c6 11 11 24 17 37 11 19 15 40 14 61-1 17-16 30-33 29-5 0-11-3-16-5-4-3-9-7-12-12l-2-1c-9-10-19-21-29-30-2 1-3 2-5 3-5 3-10 6-14 9l-5 4c-14 10-34 5-43-9-4 5-8 9-13 13-8 7-15 13-23 20 28 3 51 23 58 51 6 18-4 39-22 46-18 8-35 18-53 26l-36 17c-7 5-15 7-24 8z m149-168c-2 0-4 0-6 1l-1 1c-2 1-5 2-7 5-9 8-19 16-28 24-9 8-9 21-2 30 19 27 39 55 59 83 6 9 19 13 28 7 1 0 1-1 2-1 15-9 29-22 40-37 7-10 6-22-2-31-16-16-30-32-45-48l-22-26c-1-1-3-4-6-5-2-2-5-3-10-3z m-20 47c6-5 13-11 19-17l18 21c14 16 29 31 43 48-7 9-16 18-25 24-18-25-36-51-55-76z m-10 13c-3 0-5 1-6 3-6 2-8 9-7 15l1 4c1 4 1 6 2 10 0 1 0 3 0 4-1 2-2 2-3 3-5 2-9 4-14 7l-9 4c-2 1-4 3-5 4l-2 1c-6 3-9 12-5 19l3 7c3 4 6 9 9 15l8 14c4 8 10 16 15 24 6 12 18 16 30 11 18-7 33-18 47-31 9-7 10-19 3-29-50-70-59-85-67-85z m-19 71l4-1c4-2 10-5 15-8 4-2 8-6 11-9 10 14 21 30 31 43-10 9-21 16-33 21-5-9-9-17-14-24l-8-12c-2-4-5-6-6-10z m86-170c-6 0-10 3-15 6-6 6-14 15-20 22-8 8-7 21 1 29 21 22 42 45 62 67 4 4 9 7 16 7 6 0 11-3 14-7 8-10 26-32 26-32 1-1 1-1 1-2 2-5 2-8 1-13-1-4-3-9-7-13-1-1-43-38-64-58-3-3-9-6-15-6z m-11 42c3-3 8-8 11-13 19 17 48 44 57 52-3 4-9 12-15 18-17-18-35-38-53-57z m-105 114c-3 0-4 0-6 1l-52 26c-7 4-10 12-7 18l1 2c2 2 2 4 3 7 8 15 17 29 25 44 3 12 16 17 28 14 1 0 2-1 2-1 15-5 30-12 42-22 10-7 13-20 6-31 0 0 0-1-1-1-6-9-12-19-18-29l-8-14c-1-1-2-3-4-4l-1-3c-2-4-6-7-10-7z m-34 45l29-14 6 10c6 9 10 19 16 27-9 7-20 11-30 15-7-12-14-25-21-38z"/>
<glyph glyph-name="search" unicode="&#57389;" d="M366 189l-23 0-8 8c69 79 59 200-20 269-79 69-200 59-269-21-69-79-59-199 21-268 71-62 176-62 248 0l8-8 0-23 145-146 44 44z m-177 0c-71 0-130 59-130 131 0 72 59 131 130 131 72 0 131-59 131-131 3-72-56-131-131-131z"/>
<glyph glyph-name="source2" unicode="&#57390;" d="M253 509c42 0 82-6 121-17 25-6 48-17 70-34 11-8 20-17 23-28 2-8 2-20-3-28-9-14-17-22-31-31-25-14-51-25-79-31-39-8-81-11-120-8-40 0-76 8-113 19-19 6-36 17-53 29-8 5-14 11-20 19-8 14-5 34 3 45 11 14 23 23 39 31 28 14 59 22 90 28 25 3 48 6 73 6z m-210-253l11-8c25-17 50-31 81-40 28-8 59-14 90-14 28-3 53 0 82 3 36 3 73 11 109 25 20 9 36 20 53 34l3 0 0-6c0-16 0-33 0-50 0-20-8-39-25-48-17-11-34-22-53-28-34-11-71-17-107-20-25-2-51-2-79 0-36 3-70 12-104 26-16 5-30 17-44 28-9 5-12 14-15 25-2 3-2 11-2 17 0 20 0 36 0 56z m0 112l11-11c17-11 36-22 56-28 31-8 62-17 93-20 31-2 61-2 92 0 31 3 59 9 87 17 23 6 45 17 65 28 5 3 11 9 17 14l5 0c0-3 0-3 0-5 0-17 0-31 0-48 0-20-8-39-25-51-22-16-45-28-73-33-50-14-101-17-154-14-28 3-56 5-85 14-22 8-44 19-64 36-11 6-20 17-23 31-2 3-2 9-2 14 0 20 0 37 0 56z m0-224l11-12c17-14 36-22 59-28 31-11 62-16 92-19 31-3 65-3 96 0 34 3 67 8 98 22 20 9 39 17 56 31 3 3 9 6 12 9 0-3 0-3 0-6 0-14 0-28 0-39 0-14-6-28-15-40-14-11-28-22-44-28-31-14-62-19-96-25-25-6-50-6-78-6-45 0-90 12-132 28-17 6-31 17-42 29-12 11-17 25-17 39 0 14 0 25 0 39 0 3 0 6 0 6z"/>
<glyph glyph-name="stability" unicode="&#57391;" d="M354 78l-76 0 0 310c15 9 24 24 24 41 0 0 0 2 0 2l118 30-59-95 19-8 54 88 53-88 15 10-60 100 28 7-11 35-172-44c-21 17-50 14-67-7-3-3-6-8-8-13l-187-48 9-35 34 8-60-96 16-11 54 89 53-89 15 11-61 101 130 33c5-9 10-16 19-21l0-312-76 0 0-35-38 0 0-39 273 0 0 40-39 0z m-117 353c0 10 9 18 19 18 10 0 19-8 19-18 0-2 0-4-2-5-2-7-9-12-17-14-10-2-19 7-19 19 0-2 0-2 0 0z m-79-195l0 5-158 0c-3-43 27-82 71-85 43-3 82 27 85 71 0 4 0 7 2 9z m196 96c-3-42 27-81 72-84 44-4 81 27 84 71 0 3 0 5 0 8l0 5z"/>
<glyph glyph-name="youtube" unicode="&#57392;" d="M425 429l-330 2c-63 0-89-50-89-113l0-121c0-63 26-114 89-114l324-2c64 0 87 50 87 113l0 121c0 63-18 114-81 114z m-219-245l0 139 137-71z"/>
<glyph glyph-name="word" unicode="&#57393;" d="M320 143l126 0 0-22-126 0z m0 49l126 0 0-22-126 0z m-19-118l0 428c0 0-205-37-291-53 0-130 0-259 0-390 86-16 291-55 291-55z m-106 102l-33 2c0 0-15 74-23 111-6-35-24-107-24-107l-33 2-27 146 29 2c0 0 12-70 18-107 7 37 23 109 23 109l31 2c0 0 16-76 24-113 6 39 19 115 19 115l34 2z m125 168l126 0 0-22-126 0z m180 84c2 12-8 21-21 21-53 0-106 0-160 0l0-17 164 0 0-358-164 0 0-15c48 0 99 0 148 0 10 0 20 0 27 6 6 9 4 23 6 33 0 109 2 221 0 330m-180-186l126 0 0-21-126 0z m0 151l126 0 0-22-126 0z m0-100l126 0 0-21-126 0z"/>
<glyph glyph-name="warning" unicode="&#57394;" d="M230 179l52 0 0-51-52 0z m0 205l52 0 0-154-52 0z m26 128c-141 0-256-115-256-256 0-141 115-256 256-256 141 0 256 115 256 256 0 141-115 256-256 256z m0-461c-113 0-205 92-205 205 0 113 92 205 205 205 113 0 205-92 205-205 0-113-92-205-205-205z"/>
<glyph glyph-name="user" unicode="&#57395;" d="M256 512c-141 0-256-115-256-256 0-141 115-256 256-256 141 0 256 115 256 256 0 141-115 256-256 256z m0-77c44 0 77-33 77-77 0-43-33-76-77-76-44 0-77 33-77 76 0 44 33 77 77 77z m0-363c-61 0-120 30-154 82 0 51 103 79 154 79 51 0 154-28 154-79-34-52-93-82-154-82z"/>
<glyph glyph-name="updates" unicode="&#57396;" d="M419 349l-93-93 70 0c0-77-63-140-140-140-23 0-44 5-65 17l-35-35c86-56 202-31 256 58 21 30 30 65 30 100l70 0z m-303-93c0 77 63 140 140 140 23 0 44-5 65-17l35 35c-88 54-202 28-258-58-19-30-28-65-28-100l-70 0 93-93 93 93z"/>
<glyph glyph-name="twitter" unicode="&#57397;" d="M161 51c162-2 296 129 296 291 0 0 0 2 0 2 0 6 0 8 0 13 20 15 38 33 53 53-20-7-38-12-61-15 23 13 38 33 46 58-20-12-43-20-66-25-38 43-103 45-146 5-21-20-33-46-33-76 0-7 0-15 2-23-83 5-162 43-212 109-10-15-15-33-15-50 0-36 17-69 45-86-15 0-33 2-45 12l0-2c0-48 35-91 83-101-10-3-20-6-30-6-8 0-13 0-20 3 12-43 53-71 96-73-36-28-81-43-127-43-7 0-18 0-25 2 48-33 104-48 159-48"/>
<glyph glyph-name="triangle" unicode="&#57398;" d="M499 68l0 32-243 325-243-325 0-32z m-473 0l0 26 230 308 230-308 0-26 26 0 0 36-256 340-256-340 0-36z"/>
<glyph glyph-name="terrorism" unicode="&#57399;" d="M256 364l164-262-328 0 164 262m0 97l-256-410 512 0z"/>
<glyph glyph-name="logo-puzzle" unicode="&#57400;" d="M466 255c-21 5-42 0-58-15-4-3-10-3-14 0-1 1-3 4-3 7l0 143-142 0c-6 0-11 4-11 11 0 3 2 4 3 7 24 25 22 65-3 89-25 23-65 21-88-4-22-23-22-60 0-85 3-4 3-12-2-15-1-2-4-3-6-3l-142 0 0-144c0-6 5-11 11-11 3 0 4 2 8 3 24 25 63 23 88-1 24-25 23-64-2-89-25-23-63-23-86 0-5 5-11 4-14 0-3 0-5-3-5-6l0-144 142 0c6 0 11 5 11 11 0 3-1 5-3 8-23 25-23 65 2 88 24 23 65 23 88-1 23-25 23-62 0-87-3-5-3-11 0-14 1-1 4-3 7-3l143 0 0 142c0 6 4 11 11 11 3 0 4-1 6-3 11-11 26-17 43-17 34 0 62 28 62 62 2 29-19 54-46 60z"/>
<glyph glyph-name="link-1" unicode="&#57401;" d="M84 84c-36 36-36 96 0 132l84 86-39 39-84-84c-57-59-57-155 3-212 57-57 150-57 207 0l83 84-39 42-83-84c-36-39-96-39-132-3z m108 66l170 170-42 42-170-170z m63 317l-84-84 39-39 86 84c33 39 93 39 132 6 39-33 39-93 6-132-3-3-3-3-6-6l-87-83 39-39 84 83c54 63 51 156-12 213-54 48-141 48-197-3z"/>
<glyph glyph-name="language" unicode="&#57402;" d="M256 512c-142 0-256-114-256-256 0-142 114-256 256-256 142 0 256 114 256 256 0 142-114 256-256 256z m176-154l-76 0c-9 32-20 63-35 91 49-17 89-48 111-91z m-176 103c23-31 37-66 48-103l-96 0c11 37 25 72 48 103z m-199-256c-3 17-6 34-6 51 0 17 3 34 6 51l85 0c0-17 0-34-3-51 0-17 0-34 3-51z m23-51l76 0c9-32 20-63 35-91-49 17-89 48-111 91z m74 204l-74 0c22 43 62 74 111 91-17-28-29-59-37-91z m102-307c-23 31-37 66-48 103l96 0c-11-37-25-72-48-103z m60 154l-120 0c-3 17-3 34-3 51 0 17 3 34 3 51l120 0c3-17 3-34 3-51 0-17 0-34-3-51z m5-142c15 28 29 59 35 91l76 0c-22-43-62-74-111-91z m46 142c3 17 3 34 6 51 0 17 0 34-3 51l85 0c6-17 6-34 6-51 0-17-3-34-6-51z"/>
<glyph glyph-name="external" unicode="&#57403;" d="M455 57l-398 0 0 398 199 0 0 57-199 0c-31 0-57-26-57-57l0-398c0-31 26-57 57-57l398 0c31 0 57 26 57 57l0 199-57 0z m-142 455l0-57 102 0-278-279 39-39 279 278 0-102 57 0 0 199z"/>
<glyph glyph-name="arrow-small-up" unicode="&#57404;" d="M64 102l192 192 192-192 58 58-250 250-250-250z"/>
<glyph glyph-name="asset" unicode="&#57405;" d="M205 154l0 25-179 0 0-102c0-28 23-51 51-51l358 0c28 0 51 23 51 51l0 102-179 0 0-25z m256 230l-103 0 0 51-51 51-102 0-51-51 0-51-103 0c-28 0-51-23-51-51l0-77c0-28 23-51 51-51l154 0 0 51 102 0 0-51 154 0c28 0 51 23 51 51l0 77c0 28-23 51-51 51z m-154 0l-102 0 0 51 102 0z"/>
<glyph glyph-name="facebook" unicode="&#57406;" d="M293 10l0 224 76 0 13 88-89 0 0 57c0 25 7 42 44 42l47 0 0 79c-22 2-44 2-69 2-66 0-111-42-111-116l0-64-76 0 0-88 76 0 0-224z"/>
<glyph glyph-name="financial" unicode="&#57407;" d="M509 128l0 356-506 0 0-356 242 0 0-35-48-66 28 0 31 42 31-42 28 0-48 65 0 35 242 0z m-253-39z m-211 352l422 0 0-269-422 0z m366-28c-20 0-36-15-36-35 0-8 3-15 7-21l-63-87c-4 1-8 3-14 3-5 0-11-2-15-4l-56 46c1 4 2 8 2 13 0 19-15 35-35 35-19 0-35-16-35-35 0-5 0-7 2-10l-50-42c-4 2-9 4-17 4-19 0-35-16-35-35 0-20 16-35 35-35 20 0 36 15 36 35 0 5-2 10-3 14l46 39c6-4 13-7 21-7 7 0 14 3 20 6l55-45c-3-4-5-10-5-16 0-19 16-35 36-35 19 0 35 16 35 35 0 6-2 13-5 17l66 90c2 0 5 0 8 0 19 0 35 16 35 35 0 20-16 35-35 35z m-308-181c-7 0-14 6-14 13 0 7 5 14 12 14 0 0 0 0 2 0 7-2 13-7 13-14 0-7-6-13-13-13z m98 82c-7 0-12 5-12 12 0 7 5 13 12 13 7 0 13-6 13-13 0-7-6-12-13-12z m104-89c-7 0-12 6-12 13 0 7 5 12 12 12 7 0 13-5 13-12 0-7-6-13-13-13z m106 141c-8 0-13 5-13 12 0 7 5 13 13 13 7 0 12-6 12-14 0-6-5-11-12-11z"/>
<glyph glyph-name="back" unicode="&#57409;" d="M512 288l-390 0 179 179-45 45-256-256 256-256 45 45-179 179 390 0z"/>
<glyph glyph-name="back-to-top" unicode="&#57410;" d="M157 288l-18 17 117 116 116-111-16-17-100 95z m99 198c127 0 230-103 230-230 0-127-103-230-230-230-127 0-230 103-230 230 0 127 103 230 230 230m0 26c-141 0-256-115-256-256 0-141 115-256 256-256 141 0 256 115 256 256 0 141-115 256-256 256z m-123-280l-37 0 0 17 94 0 0-17-36 0 0-95-21 0z m122 19c31 1 57-24 58-56 0-1 0-1 0-2 0-32-25-59-58-59-33 0-59 26-59 59 0 31 25 57 56 57 2 1 2 1 3 1z m0-97c21 0 38 18 36 39l0 1c2 21-14 38-35 39-21 1-38-15-39-36 0-1 0-2 0-3 0-21 16-39 38-40-1 0 0 0 0 0z m79 96l44 0c19 1 35-15 35-33 0-1 0-2 0-4 1-19-13-35-33-36-1 0-2 0-3 0l-23 0 0-39-21 0 0 112z m39-56c10-1 18 6 18 16 0 1 0 2 0 2 2 10-6 18-16 20-1 0-2 0-2 0l-19 0 0-38z"/>
<glyph glyph-name="m-structure" unicode="&#57413;" d="M249 308l16 0 0-108-16 0z m155-106l-16 0 0 50-260 0 0-50-19 0 0 69 295 0z m-194 221l92 0 0-93-92 0z m0-241l92 0 0-93-92 0z m139 0l93 0 0-93-93 0z m-277 0l93 0 0-93-93 0z"/>
<glyph glyph-name="help" unicode="&#57414;" d="M230 102l52 0 0 52-52 0z m26 410c-141 0-256-115-256-256 0-141 115-256 256-256 141 0 256 115 256 256 0 141-115 256-256 256z m0-461c-113 0-205 92-205 205 0 113 92 205 205 205 113 0 205-92 205-205 0-113-92-205-205-205z m0 359c-56 0-102-46-102-103l51 0c0 28 23 51 51 51 28 0 51-23 51-51 0-51-77-46-77-128l52 0c0 59 76 64 76 128 0 57-46 103-102 103z"/>
<glyph glyph-name="change" unicode="&#57415;" d="M114 284l-114-113 114-114 0 85 199 0 0 57-199 0z m398 57l-114 114 0-85-199 0 0-57 199 0 0-85z"/>
<glyph glyph-name="control" unicode="&#57416;" d="M77 131l0 370c3 5 0 11-6 14-6 3-11 0-14-6 0-3 0-6 0-6l0-369c-37-6-60-40-54-77 6-37 40-60 77-54 37 6 59 40 54 77-6 25-29 48-57 51z m0-108c-3 0-6 0-12 0-2 0-5 0-11 0-26 5-40 28-34 54 3 17 17 31 34 34 3 0 6 0 11 0 3 0 6 0 12 0 25-6 40-29 34-54-3-17-17-31-34-34z m188 452l0 26c0 5-6 11-12 11-6 0-8-6-8-11l0-26c-37-6-63-40-57-74 5-28 25-51 54-54l0-336c0-5 5-11 11-11 6 0 12 6 12 11l0 333c37 6 59 40 54 77-3 28-26 51-54 54z m0-108c-6-3-15-3-20 0-26 6-40 28-35 54 0 17 15 31 35 34 5 3 14 3 20 0 25-6 39-28 34-54-3-17-17-28-34-34z m190-68l0 202c0 5-6 11-11 11-6 0-12-6-12-11l0-205c-37-6-59-40-54-77 6-28 26-51 54-54l0-156c0-6 6-12 12-12 5 0 11 6 11 12l0 156c37 6 60 40 54 77-3 28-25 51-54 57z m0-111c-6-3-14-3-20 0-25 5-40 28-34 54 3 17 17 31 34 34 6 3 14 3 20 0 26-6 40-29 34-54-3-17-17-29-34-34z"/>
<glyph glyph-name="help-hover" unicode="&#57417;" d="M256 512c-141 0-256-115-256-256 0-141 115-256 256-256 141 0 256 115 256 256 0 141-115 256-256 256z m26-435l-52 0 0 51 52 0z m53 197l-23-23c-20-18-33-46-30-72l-52 0 0 13c0 28 11 54 31 72l31 33c10 10 15 23 15 36 0 28-23 51-51 51-28 0-51-23-51-51l-51 0c0 56 46 102 102 102 56 0 102-46 102-102 0-21-7-44-23-59z"/>
<glyph glyph-name="pdf" unicode="&#57418;" d="M406 183c0 2-2 6-4 8-6 6-20 10-39 10-14 0-30-2-47-4-8 4-16 10-22 16-17 16-31 37-39 63 0 2 2 4 2 5 0 0 10 55 8 73 0 2 0 4-2 6l0 2c-8 6-12 12-20 12l-4 0c-9 0-17-6-19-12-6-22 0-53 11-94l-1-6c-8-20-18-37-26-55l-2-2c-10-20-18-33-25-47l-8-4c0 0-14-8-18-10-25-15-43-33-47-47 0-4 0-10 4-14l10-1c2-2 6-2 10-2 17 0 39 23 70 74 35 12 73 20 108 26 25-16 59-26 78-26 4 0 6 0 10 2 4 2 8 4 10 6 2 6 2 14 2 21m-282-90c4 10 17 28 37 43 2 2 4 4 8 6-22-31-37-45-45-49m117 271c6 0 10-16 10-30 0-13-4-23-8-31-4 12-6 27-6 39 0 0 0 22 4 22m-35-194c4 8 8 15 14 23 11 20 17 38 23 49 10-17 24-33 38-47 1-2 3-4 5-4-31-4-56-11-80-21m188 2c-2-2-8-2-10-2-11 0-23 6-43 13 8 0 14 0 20 0 12 0 14 0 25-1 10-2 10-8 8-10m65 202c-2 2-124 119-124 119 0 0-13 18-43 18l-208 0c-25 0-45-20-45-45l0-422c0-23 20-43 45-43l344 0c23 0 45 20 45 45l0 298c-2 14-10 28-14 30m-133 84l105-104-96 0c-5 0-9 4-9 10z m111-412c0-6-6-12-11-12l-342 0c-5 0-11 4-11 12l0 420c0 6 6 12 11 12l210 0 0-112c0-24 20-43 43-43l102 0 0-277z"/>
<glyph glyph-name="indicator-arrow-down" unicode="&#57420;" d="M224 512l0-390-179 179-45-45 256-256 256 256-45 45-179-179 0 390z"/>
<glyph glyph-name="country" unicode="&#57421;" d="M313 452l-12 60-271 0 0-512 60 0 0 211 169 0 12-60 211 0 0 301z m118-253l-115 0-18 72-208 0 0 184 166 0 15-54 160 0z"/>
<glyph glyph-name="crime" unicode="&#57422;" d="M510 403c-7 32-25 61-53 82-25 18-59 29-91 27-11 0-22-2-34-7-34-9-70-9-104 0-7 0-12-2-16-7l-14-22-7 0c-82-7-148-71-152-153l0-9-23-14c-7-2-11-9-9-16 9-34 9-70 0-104-2-12-5-23-7-32-2-34 7-66 27-93 21-28 50-46 82-53 9-2 18-2 28-2 29 0 56 9 79 25 2 0 2 2 5 5 57 50 63 136 16 193-21 25-53 41-85 48 0 4-2 7-4 11l-34 59c-2 7-12 9-21 7l-11-7c11 44 45 78 89 89l-7-11c-2-9 0-19 7-21l59-34c4-2 7-4 11-4 12-76 82-128 157-117 32 5 59 21 80 44 0 0 7 7 7 9 25 29 32 68 25 107z m-191 13c13 14 31 21 50 25 2 0 4 0 6 0 37 0 64-29 64-63 0-12-2-23-9-32-2-5-7-9-9-11-27-28-68-28-96 0-20 18-22 54-6 81z m-7-102c32-32 79-36 116-11l2 2 2-2c0-3 0-5 3-7 2-2 4-5 6-5l5-2-5-5c-18-13-41-20-63-20-3 0-5 0-7 0-55 2-98 43-105 98l0 2 3 0c4 2 9 5 13 7l5 4 0-6c0-19 9-39 25-55z m152-7c-2-2-4-2-7-2-6 0-11 7-11 11 0 3 0 5 2 7 30 39 23 96-18 125-18 14-41 21-64 18-43-6-77-34-95-72-2-5-7-9-14-9-4-3-11 0-16 2l-50 27 39 66 2 0c34-7 73-7 107 2 9 3 18 5 30 5 27 2 54-7 77-23 48-36 59-104 25-155z m-314-61c62-9 105-66 96-130-3-16-9-34-18-48l-3-4-2 4c-2 3-2 5-5 7-4 5-4 5-6 7l-3 2 3 2c27 41 16 98-25 128-14 9-28 14-44 16l-6 0 4 4c5 5 7 7 7 14z m18-166c-31-19-70-7-88 25-7 11-9 25-9 38 2 19 11 37 22 48 32 21 73 12 94-18 18-27 13-61-10-84 0-5-4-7-9-9z m-38 173c-3-5-5-10-9-14-39-18-66-55-71-96-4-47 30-93 77-97 23-3 46 4 64 18 5 4 12 2 16-3 2-2 2-4 2-6 0-3 0-3 0-5l-4-2 0-2c-18-14-41-21-66-21-7 0-16 0-23 2-27 5-50 21-68 44-16 22-25 47-23 77 0 9 2 18 5 29 9 35 9 71 2 107l0 3 66 38 29-52c3-9 5-14 3-20z m134 177c0-9-7-16-16-16-9 0-16 7-16 16 0 9 7 16 16 16 9 0 16-7 16-16z m-166-166c0-9-7-16-16-16-9 0-16 7-16 16 0 9 7 16 16 16 9 0 16-7 16-16z"/>
<glyph glyph-name="indicator-arrow-up" unicode="&#57423;" d="M288 0l0 390 179-179 45 45-256 256-256-256 45-45 179 179 0-390z"/>
<glyph glyph-name="indicator-same" unicode="&#57424;" d="M0 427l512 0 0-86-512 0z m0-256l512 0 0-86-512 0z"/>
<glyph glyph-name="profile" unicode="&#57425;" d="M349 279c40 0 70 31 70 70 0 40-30 70-70 70-39 0-70-30-70-70 0-37 31-70 70-70z m-186 0c39 0 70 31 70 70 0 40-31 70-70 70-40 0-70-30-70-70 0-37 30-70 70-70z m0-46c-54 0-163-28-163-82l0-58 326 0 0 58c0 54-110 82-163 82z m186 0c-7 0-14 0-23-3 28-16 44-46 46-79l0-58 140 0 0 58c0 54-109 82-163 82z"/>
<glyph glyph-name="download" unicode="&#57426;" d="M467 331l-121 0 0 181-180 0 0-181-121 0 211-211z m-422-271l0-60 422 0 0 60z"/>
<glyph glyph-name="economic-m" unicode="&#57427;" d="M59 467l69 0 0-338-69 0z m107-31l70 0 0-307-70 0z m218 16l69 0 0-323-69 0z m-108-85l70 0 0-240-70 0z m-276-271l512 0 0-51-512 0z"/>
<glyph glyph-name="risk-m" unicode="&#57429;" d="M256 375l163-287-326 0z m-244-336l488 0-244 434z m220 119l46 0 0-46-46 0z m0 130l46 0 0-93-46 0z"/>
<glyph glyph-name="internal" unicode="&#57430;" d="M509 469c0 3 0 3-3 6-5 17-20 28-37 34l-54-54-222-222 0 103-56 0 0-199 199 0 0 56-103 0 222 222z m-54-469c31 0 57 26 57 57 0-31-26-57-57-57z m-398 512c-31 0-57-26-57-57 0 31 26 57 57 57z m398-176l0-279-398 0 0 398 279 0 0 57-279 0c-31 0-57-26-57-57l0-398c0-31 26-57 57-57l398 0c31 0 57 26 57 57l0 279z"/>
<glyph glyph-name="logo-sidi" unicode="&#57388;" d="M266 339l-20 0c-16 0-27-12-27-27l0-20c0-16 12-27 27-27l20 0c16 0 27 12 27 27l0 20c1 15-11 27-27 27z m177 173l-374 0c-38 0-69-31-69-69l0-374c0-38 31-69 69-69l77 0c6 0 12 6 12 12l0 26c0 7-6 12-12 12l-77 0c-10 0-19 9-19 19l0 374c0 10 9 19 19 19l374 0c10 0 19-9 19-19l0-374c0-10-9-19-19-19l-77 0c-6 0-12-6-12-13l0-25c0-7 6-13 12-13l77 0c38 0 70 31 70 70l0 374c-1 38-32 69-70 69z m-174-287l-25 0c-7 0-13-6-13-13l0-200c0-6 6-12 13-12l25 0c7 0 13 6 13 12l0 200c-1 7-6 13-13 13z"/>
<glyph glyph-name="comunicazioni" unicode="&#57375;" d="M461 410l0-308-410 0 0 308z m0 51l-410 0c-28 0-51-23-51-51l0-308c0-28 23-51 51-51l410 0c28 0 51 23 51 51l0 308c0 28-23 51-51 51z m-205-220l-154 97 0-51 154-98 154 98 0 51z"/>
<glyph glyph-name="allarme" unicode="&#57408;" d="M255 12c28 0 51 23 51 51l-100 0c0-28 21-51 49-51z m151 151l0 123c0 77-42 142-112 159l0 18c0 21-16 37-37 37-23 0-39-16-39-37l0-16c-73-19-112-82-112-161l0-125-51-52 0-25 400 0 0 25z m-51-26l-200 0 0 149c0 63 37 112 100 112 63 0 100-49 100-112z m-210 328l-37 35c-60-46-100-118-102-197l51 0c2 65 35 125 88 162z m310-162l51 0c-4 79-42 151-105 197l-34-35c53-37 86-97 88-162z"/>
<glyph glyph-name="link-esterno2" unicode="&#57431;" d="M368 45l-323 0 0 323 208 0 0 45-208 0c-26 3-45-19-45-45l0-323c0-26 19-45 45-45l323 0c26 0 45 19 45 45l0 208-45 0z m-86 467l0-45 150 0-259-256 32-32 259 256 0-150 48 0 0 227z"/>
<glyph glyph-name="notifiche" unicode="&#57432;" d="M256 3c29 0 53 24 53 53l-104 0c0-29 22-53 51-53z m157 157l0 127c0 80-44 147-116 164l0 19c-2 22-19 39-41 39-22 0-39-17-39-39l0-16c-74-20-115-85-115-167l0-130-53-50 0-27 414 0 0 27z m-53-27l-208 0 0 154c0 65 39 116 104 116 65 0 104-53 104-116z"/>
<glyph glyph-name="posizione" unicode="&#57433;" d="M256 512c-100 0-179-79-179-179 0-136 179-333 179-333 0 0 179 197 179 333 0 100-79 179-179 179z m0-243c-36 0-64 28-64 64 0 36 28 64 64 64 36 0 64-28 64-64 0-36-28-64-64-64z"/>
<glyph glyph-name="preferiti-meta" unicode="&#57434;" d="M512 315l-184 15-72 169-72-169-184-15 141-123-41-179 159 95 158-95-41 179z m-256-159l0 238 44-102 112-10-84-75 25-110z"/>
<glyph glyph-name="preferiti" unicode="&#57435;" d="M256 108l159-95-41 179 138 123-184 15-72 169-72-169-184-15 141-123-41-179z"/>
<glyph glyph-name="preferiti-vuota" unicode="&#57436;" d="M512 315l-184 15-72 169-72-169-184-15 141-123-41-179 159 95 158-95-41 179z m-256-159l-97-59 25 110-84 75 112 10 44 102 44-102 112-10-84-75 25-110z"/>
<glyph glyph-name="info" unicode="&#57412;" d="M282 333l-52 0 0 51 52 0z m0-205l-52 0 0 154 52 0z m-26-128c141 0 256 115 256 256 0 141-115 256-256 256-141 0-256-115-256-256 0-141 115-256 256-256z m0 461c113 0 205-92 205-205 0-113-92-205-205-205-113 0-205 92-205 205 0 113 92 205 205 205z"/>
<glyph glyph-name="computer" unicode="&#57428;" d="M512 127l-512 0 0 333 512 0z m-471 43l427 0 0 246-427 0z m179-18l82 0 0-84-82 0z m-125-76l322 0 0-24-322 0z"/>
<glyph glyph-name="segnalibro" unicode="&#57437;" d="M332 281l0-253c2-14-7-26-21-28-9-2-18 2-25 9l-60 60-46 49-7-5-102-104c-9-11-25-14-36-4-3 0-3 2-3 2-4 7-7 14-7 21l0 180c0 66 0 131 0 198-2 37 19 74 53 92 14 9 33 14 51 14l254 0c55 0 104-44 104-101 0 0 0-3 0-3 0-32 0-67 0-99 0-18-12-28-30-28z m-39 180c-55 0-111 0-166 0-28 0-51-25-51-53 0-104 0-207 0-311 0-2 0-5 0-7l2 0c3 2 3 5 5 7l74 74c9 11 25 14 37 4 2-2 4-2 4-4l74-74 7-7 0 7c0 101 0 203 0 304 0 7 0 16 2 23 5 14 10 26 12 37z m143-129c0 28 0 55 0 85 0 10-5 17-9 24-14 18-35 25-56 18-20-7-34-28-34-48 0-24 0-47 0-72 0-2 0-5 0-5z"/>
<glyph glyph-name="mondo" unicode="&#57438;" d="M328 440c-3 5-11 5-16 3-5-3-5-10-2-15 7-13 18-29 23-44l-67 0 0 61c0 6-5 11-10 11-5 0-10-5-10-11l0-61-67 0c5 15 13 31 23 46 5 3 3 10-2 13-5 5-11 2-16-3-12-18-20-36-28-56l-51 0c-5 0-10-5-10-13 0-5 5-10 10-10l43 0c-7-31-10-61-12-95l-69 0c-6 0-11-5-11-10 0-5 5-10 11-10l69 0c0-31 5-64 12-95l-40 0c-6 0-11-5-11-10 0-5 5-10 11-10l51 0c7-21 15-41 28-59 2-5 10-5 15-3 5 3 5 10 3 15-10 13-18 29-26 44l67 0 0-61c0-6 5-11 10-11 5 0 10 5 10 11l0 61 67 0c-5-15-13-31-23-46-3-5-3-13 2-15 5-3 13-3 16 2 12 18 20 39 28 59l48 0c6 0 11 5 11 10 0 5-5 10-11 10l-43 0c8 31 13 62 13 95l69 0c5 0 10 5 10 10 0 6-5 11-10 11l-69 0c0 30-5 64-13 94l43 0c6 0 11 6 11 11 0 5-5 10-11 10l-51 0c-5 23-13 43-25 61z m-62-174l0 95 72 0c8-31 13-61 13-92l-85 0z m87-20c0-31-5-64-13-95l-71 0 0 92z m-107 0l0-95-72 0c-8 31-13 61-13 92z m-87 20c0 31 5 64 13 95l71 0 0-95z m279 172c-100 100-264 100-364 0-84-87-100-223-30-323 10-13 20-25 30-36 13-12 26-25 41-35 18-13 36-21 57-29 28-10 56-15 84-15 141 0 256 115 256 256 0 69-28 133-74 182z m38-182c0-123-100-220-220-220-26 0-49 5-72 13-18 5-36 15-51 25-13 10-23 21-33 31-8 8-18 18-23 28-10 15-21 33-26 51-10 23-15 46-15 72 0 123 100 220 220 220 123 0 220-97 220-220z"/>
<glyph glyph-name="network" unicode="&#57439;" d="M243 330l23 0 0-146-23 0z m215-148l-23 0 0 71-358 0 0-71-23 0 0 94 404 0z m-266 304l131 0 0-128-131 0z m0-332l131 0 0-128-131 0z m189 0l131 0 0-128-131 0z m-381 0l131 0 0-128-131 0z"/>
<glyph glyph-name="ingranaggi" unicode="&#57440;" d="M315 150c2 5 2 13 2 18 0 5 0 13 0 18l41 25c5 3 5 8 2 11l-28 66c-2 5-5 7-10 5l-43-10c-8 7-18 15-28 20l0 49c-3 5-5 7-10 7l-72 10c-5 0-7-2-10-7l-13-46c-10-3-22-8-33-13l-40 23c-5 3-8 0-13-2l-43-59c-3-3-3-8 0-13l35-33c0-5-2-10-2-18 0-5 0-13 0-18l-41-25c-5-3-8-5-5-10l28-66c2-6 5-6 10-6l48 13c8-7 18-15 28-20l0-49c0-5 3-7 8-7l71-10c3-3 8 0 8 5l13 45c10 3 23 8 33 13l43-23c5-2 8 0 10 3l44 58c2 3 2 8 0 13z m-141-28c-35 5-58 36-56 72 3 35 36 58 72 56 35-5 58-36 56-72-5-35-36-61-72-56z m309 255c0 5 0 8 0 13 0 5 0 7 0 12l25 21c3 0 5 2 3 7l-26 44c-2 2-5 2-7 2l-31-15c-5 5-13 10-20 13l-5 33c0 2-3 5-6 5l-48 0c-2 0-5-3-5-5l-5-33c-8-3-15-8-20-13l-31 13c-3 0-5 0-8-3l-25-43c-3-3 0-5 2-8l26-20c0-5 0-8 0-13 0-5 0-7 0-13l-26-20c-2-2-2-5-2-8l25-43c3-2 5-2 8-2l31 12c5-5 12-7 20-12l5-34c0-2 3-5 5-5l48 0c3 0 6 3 6 5l5 34c7 2 15 7 20 12l31-12c2 0 7 0 7 2l26 43c2 3 0 6-3 8z m-92-31c-23 0-43 21-43 44 0 23 20 43 43 43 23 0 43-20 43-43 0-26-20-44-43-44z"/>
<glyph glyph-name="android-funnel" unicode="&#57441;" d="M208 112l96 0 0 48-96 0z m-176 288l0-48 448 0 0 48z m80-169l288 0 0 50-288 0z"/>
<glyph glyph-name="earser" unicode="&#57442;" d="M239 119l90 103-205 0-90-103z m270 288c3-6 4-13 3-19-1-7-4-13-9-18l-238-273c-7-8-16-12-26-12l-205 0c-7 0-13 2-18 6-6 3-10 8-13 14-3 6-4 13-3 19 1 7 4 13 9 18l238 273c7 8 16 12 26 12l205 0c7 0 13-2 18-6 6-3 10-8 13-14z"/>
<glyph glyph-name="save" unicode="&#57443;" d="M492 447l-48 48c-12 11-29 20-46 20l-17 0 0-128-296 0 0 125-42 0c-23 0-43-20-43-43l0-426c0-23 20-43 43-43l426 0c23 0 43 20 43 43l0 358c0 17-6 31-20 46m-65-362l-342 0 0 217 342 0z m-148 427l65 0 0-85-65 0z m-151-256l256 0 0-43-256 0z m0-85l256 0 0-43-256 0z"/>
<glyph glyph-name="newspaper" unicode="&#57445;" d="M510 110l0 353c0 5-5 10-10 10l-390 0c-5 0-10-5-10-10l0-46-37 0c-31 2-58-22-61-54l0-244c-2-34 18-63 49-75 3-3 5-5 8-3l397 0c15 0 27 5 36 15 10 15 18 34 18 54z m-417-25c-5-5-15-9-22-7-8 0-27 7-27 41l0 244c0 3 2 15 22 15l34 0 0-259c2-12-2-21-7-34z m48 32l0 315 330 0 0-322c0-10-3-20-8-27-2-3-5-3-7-3l-324 0c5 13 7 25 9 37z m20 73l197 0 0-24-197 0z m-3 220l271 0 0-47-271 0z m215-81l78 0 0-24-78 0z m0-46l78 0 0-25-78 0z m0-47l78 0 0-24-78 0z m0-46l78 0 0-24-78 0z m-212-46l197 0 0-25-197 0z m212 0l78 0 0-25-78 0z m-212 66l197 0 0 119-197 0z m173 92l0-66-149 0 0 66z"/>
<glyph glyph-name="bullhorn" unicode="&#57411;" d="M412 439c-57-56-140-90-220-95l-119 0c-19 0-36-16-37-37l0-54c1-18 16-36 37-37l48 0c-13-43 1-87 15-130 22-20 73-18 89 9-35 28-52 101-10 119 72-8 143-44 197-93 18 0 35 16 37 37l0 88c37 13 29 59 0 69l0 88c-1 18-16 35-37 36z m1-47l0-224c-53 41-117 69-184 81l0 62c65 10 129 41 184 81z"/>
<glyph glyph-name="database" unicode="&#57419;" d="M169 387l0 0c-1 12-10 21-22 22l0 0-81 0 0 0c-12-1-21-10-21-22l0 0 0-262 0 0c0-12 10-21 21-21l0-1 81 0c12 0 22 10 22 22 0 0 0 0 0 0z m-62-258c-18 0-32 14-32 32 0 17 14 32 32 32 18 0 32-15 32-32 0-18-14-32-32-32z m36 115l-72 0 0 139 72 0z m175 143l0 0c-1 12-10 21-22 22l0 0-81 0 0 0c-11-1-20-10-21-22l0 0 0-262 0 0c0-12 10-21 21-21l0-1 81 0c12 0 22 10 22 22 0 0 0 0 0 0z m-62-258c-18 0-32 14-32 32 0 17 14 32 32 32 18 0 32-15 32-32 0-18-14-32-32-32z m36 115l-72 0 0 139 72 0 0-139z m175 143l0 0c0 12-10 21-22 22l0 0-81 0 0 0c-11-1-20-10-21-22l0 0 0-262 0 0c1-12 10-21 21-21l0-1 81 0c12 0 22 10 22 22 0 0 0 0 0 0z m-62-258c-18 0-32 14-32 32 0 17 14 32 32 32 18 0 32-15 32-32 0-18-14-32-32-32z m36 115l-72 0 0 139 72 0z"/>
<glyph glyph-name="logo-spid" unicode="&#57444;" d="M256 512c-141 0-256-115-256-256 0-141 115-256 256-256 141 0 256 115 256 256 0 141-115 256-256 256z m-76-380c0 22 7 38 21 54 14 14 31 21 52 21 22 0 39-7 53-21 13-14 20-32 20-54z m126 125c-13-14-31-21-51-21-22 0-39 7-53 21-14 14-20 32-20 54 0 22 6 38 20 54 14 14 31 22 53 22 21 0 38-8 52-22 13-14 21-32 21-54-2-22-9-40-22-54z"/>
</font>
</defs>
</svg>
