<?xml version="1.0" encoding="utf-8"?>
<!-- Generator: Adobe Illustrator 23.0.3, SVG Export Plug-In . SVG Version: 6.00 Build 0)  -->
<svg version="1.0" id="Livello_1" xmlns="http://www.w3.org/2000/svg" xmlns:xlink="http://www.w3.org/1999/xlink" x="0px" y="0px"
	 viewBox="0 0 40 40" style="enable-background:new 0 0 40 40;" xml:space="preserve">
<style type="text/css">
	.st0{fill:#FFFFFF;}
	.st1{fill:#0066CC;}
</style>
<rect y="0" class="st0" width="39.8" height="39.8"/>
<title>torna-su_1</title>
<polygon class="st1" points="11.9,20.8 10.4,19.4 20,9.8 29.5,19 28.2,20.4 20,12.6 "/>
<path class="st1" d="M38,2v36H2V2H38 M40,0H0v40h40V0z"/>
<path class="st1" d="M16.2,25c-1,0-1.5,0.4-1.5,1.1c0,0.3,0.1,0.5,0.4,0.7c0.5,0.2,1,0.4,1.6,0.4c0.6,0.1,1.2,0.3,1.8,0.6
	c0.4,0.4,0.6,0.9,0.5,1.5c0,0.6-0.2,1.2-0.7,1.6c-0.6,0.4-1.3,0.5-2,0.5c-0.7,0-1.4-0.1-2-0.2L13.8,31l0.1-0.9
	c0.8,0.1,1.6,0.2,2.4,0.2c0.4,0,0.9-0.1,1.2-0.3c0.3-0.2,0.5-0.5,0.4-0.9c0-0.3-0.1-0.6-0.4-0.8c-0.5-0.2-1-0.4-1.6-0.4
	c-0.6-0.1-1.2-0.3-1.8-0.6c-0.4-0.4-0.6-0.9-0.5-1.4c0-0.6,0.2-1.2,0.7-1.5s1.2-0.5,1.8-0.5c0.7,0,1.4,0.1,2.1,0.2l0.4,0.1v0.9
	C17.9,25.1,17.1,25,16.2,25z"/>
<path class="st1" d="M24.9,24.2h1v7h-1v-0.5c-0.6,0.4-1.3,0.6-2.1,0.6c-0.7,0.1-1.4-0.2-1.9-0.7c-0.4-0.9-0.5-1.8-0.5-2.7v-3.7h1
	v3.6c0,0.7,0,1.4,0.3,2c0.2,0.3,0.6,0.5,1.2,0.5c0.3,0,0.6,0,0.9-0.1s0.5-0.2,0.7-0.3l0.3-0.1L24.9,24.2z"/>
</svg>
