<?xml version="1.0" encoding="utf-8"?>
<!-- Generator: Adobe Illustrator 21.1.0, SVG Export Plug-In . SVG Version: 6.00 Build 0)  -->
<svg version="1.0" id="Livello_1" xmlns="http://www.w3.org/2000/svg" xmlns:xlink="http://www.w3.org/1999/xlink" x="0px" y="0px"
	 viewBox="0 0 70 70" style="enable-background:new 0 0 70 70;" xml:space="preserve">
<style type="text/css">
	.st0{fill:#FFFFFF;}
</style>
<title>logo-sidi</title>
<g>
	<path class="st0" d="M36.4,23.6h-2.8c-2.1,0-3.7,1.7-3.7,3.7v2.8c0,2.1,1.7,3.7,3.7,3.7h2.8c2.1,0,3.7-1.7,3.7-3.7v-2.8
		C40.2,25.3,38.5,23.6,36.4,23.6z"/>
	<path class="st0" d="M60.5,0H9.5C4.2,0,0,4.2,0,9.5v51.1C0,65.8,4.2,70,9.5,70h10.4c0.9,0,1.7-0.8,1.7-1.7v-3.5
		c0-0.9-0.8-1.7-1.7-1.7H9.5c-1.4,0-2.6-1.2-2.6-2.6V9.5C6.9,8,8,6.9,9.5,6.9h51.1c1.4,0,2.6,1.2,2.6,2.6v51.1
		c0,1.4-1.2,2.6-2.6,2.6H50.1c-0.9,0-1.7,0.8-1.7,1.7v3.5c0,0.9,0.8,1.7,1.7,1.7h10.5c5.2,0,9.5-4.2,9.5-9.5V9.5
		C70,4.2,65.8,0,60.5,0z"/>
	<path class="st0" d="M36.8,39.3h-3.5c-0.9,0-1.7,0.8-1.7,1.7v27.3c0,0.9,0.8,1.7,1.7,1.7h3.5c0.9,0,1.7-0.8,1.7-1.7V41
		C38.4,40.1,37.7,39.3,36.8,39.3z"/>
</g>
</svg>
