<?xml version="1.0" encoding="utf-8"?>
<!-- Generator: Adobe Illustrator 24.0.2, SVG Export Plug-In . SVG Version: 6.00 Build 0)  -->
<svg version="1.0" id="Livello_1" xmlns="http://www.w3.org/2000/svg" xmlns:xlink="http://www.w3.org/1999/xlink" x="0px" y="0px"
	 viewBox="0 0 140 140" style="enable-background:new 0 0 140 140;" xml:space="preserve">
<style type="text/css">
	.st0{fill:#FCBA7E;}
	.st1{fill:#E57B2C;}
</style>
<circle class="st0" cx="70" cy="70" r="70"/>
<g transform="matrix(1 0 0 1 -655 -326 )">
	<path class="st1" d="M770.2,449.5C770.5,449.5,770.5,449.5,770.2,449.5c-34.4-11.8-29.1-26-29.1-26c8.4,4.5,26.3-1.1,19.6-5
		c-6.7-3.9-2.8-23.5-3.4-37s-3.9-39.8-31.9-37.5c-28,2.2-32.5,31.4-29.7,43.7c2.8,12.3-8.4,39.8-1.1,36.4c7.3-3.4,16.2,0,16.2,0
		c-1.7,12.3-17.9,21.3-29.4,26c0,0-0.2,0.1-0.6,0.3c12,9.8,27.8,15.7,44.6,15.7C742.5,466,758.1,459.8,770.2,449.5z"/>
</g>
</svg>
