<?xml version="1.0" encoding="utf-8"?>
<!-- Generator: Adobe Illustrator 24.0.2, SVG Export Plug-In . SVG Version: 6.00 Build 0)  -->
<svg version="1.0" id="Livello_1" xmlns="http://www.w3.org/2000/svg" xmlns:xlink="http://www.w3.org/1999/xlink" x="0px" y="0px"
	 viewBox="0 0 140 140" style="enable-background:new 0 0 140 140;" xml:space="preserve">
<style type="text/css">
	.st0{fill:#A5DB7B;}
	.st1{fill:#83B259;}
</style>
<circle class="st0" cx="70" cy="70" r="70"/>
<g transform="matrix(1 0 0 1 -153 -330 )">
	<path class="st1" d="M270,451.8c-2.8-0.6-5.6-1.4-8.1-2.5c-9.5-4.2-16-7.3-15.7-13.2s2.8-20.7,2.8-20.7s3.4,2.8,6.2-3.6
		c2.8-6.4,3.9-16.5-1.1-14.3c0,0,7.8-34.4-7.8-36.1c0,0,2-9.5-21.6-10.1c-23.5,0.6-21.6,10.1-21.6,10.1c-15.7,1.7-7.8,36.1-7.8,36.1
		c-5-2.2-3.9,7.8-1.1,14.3c2.8,6.4,6.2,3.6,6.2,3.6s2.5,14.8,2.8,20.7s-6.2,9-15.7,13.2c-3.6,1.7-7.6,2.5-11.2,2.8
		c12.3,11.2,28.6,17.9,46.5,17.9C240.9,470.3,257.4,463.3,270,451.8z"/>
</g>
</svg>
