<?xml version="1.0" encoding="utf-8"?>
<!-- Generator: Adobe Illustrator 23.0.1, SVG Export Plug-In . SVG Version: 6.00 Build 0)  -->
<svg version="1.0" id="Livello_1" xmlns="http://www.w3.org/2000/svg" xmlns:xlink="http://www.w3.org/1999/xlink" x="0px" y="0px"
	 viewBox="0 0 62.3 70" style="enable-background:new 0 0 62.3 70;" xml:space="preserve">
<style type="text/css">
	.st0{fill:#0066CC;}
	.st1{fill:#FFFFFF;}
</style>
<title>logo-repubblica</title>
<g>
	<g id="ad64818e-aea8-4a40-b554-947bf194d4dc">
		<path class="st0" d="M47.6,46.4c0.3,0,0.8,0.2,0.6,0.4s-0.2,0.7-0.5,0.7S47,47.3,47,47C47,46.7,47.3,46.4,47.6,46.4
			C47.6,46.4,47.6,46.4,47.6,46.4L47.6,46.4z"/>
		<path class="st0" d="M20.2,55c0.3,0.2,0.7,0.2,1,0L21,54.6l-0.6-0.5c-0.3-0.2-0.6,0-0.8,0.5L20.2,55L20.2,55z"/>
		<path class="st1" d="M61.9,32.8c0.2-1.3,0.1-2.2-0.4-2.5c-0.5-0.3-1.1-0.2-1.8,0.3c-0.4-0.2-1,0-1.7,0.6c0.1-0.3,0.1-0.6,0-0.9
			c0.5-0.2,0.9-0.5,1.2-1c0.2-0.5,0.3-1.1,0.3-1.7c0.3-0.9,0.7-1.8,1.3-2.5c0.5-1.2,0.2-1.6-1.2-1.3c0.6-0.4,1-1,1.1-1.7
			c0-0.6-0.2-1.2-0.6-1.7c-0.2-0.4-0.4-0.5-0.8-0.2c0.1-0.3,0.2-0.6,0.2-0.9c-0.1-0.8-0.3-1.5-0.7-2.2c-0.1-1.5-0.4-2.1-1-1.8
			c-0.1-0.8-0.4-1.5-0.7-2.2c-0.6-0.9-1.1-1.1-1.4-0.7c-1-1.4-1.9-2-2.7-1.8c0-0.6-0.2-1.2-0.6-1.7c-0.1-0.7-0.4-1.4-0.8-2
			c-0.4-0.2-0.8,0.1-0.9,0.7c-0.1-0.6-0.3-1.2-0.5-1.7c-0.2-0.5-0.7-0.9-1.3-0.9c-0.2,0-0.4,0-0.6,0.1c-0.3-0.2-0.6-0.3-1-0.4
			c-0.8-0.9-1.6-1-2.3-0.2l-0.1-0.8c-0.2-0.9-0.7-1.1-1.5-0.6c-0.9-1-1.9-1.9-3.1-2.5C39.5,0.6,39,0.7,38.8,1
			c-0.3-0.3-0.7-0.6-1.2-0.7c-0.4-0.1-0.8-0.2-1.2-0.3c-0.6,0-0.8,0.3-0.7,0.9c-0.6,0-1.3,0.1-1.8,0.5c-0.3,0.3-0.4,0.7-0.3,1.1
			c0.2,0.5,0.6,0.9,1.1,1.2c-0.2,0.2-0.2,0.5-0.2,0.8c0,0.4,0.4,0.7,1.2,0.9c0.5,0.1,1.1,0.2,1.7,0c-0.2,0.4,0,0.9,0.5,1
			c0,0,0.1,0,0.1,0c0.7,0.7,1.8,1,2.7,0.6l-0.1,0.7L42,8.3c0,0.6,0.4,1.2,1,1.5l0.6,0.2c-0.3,0.1-0.5,0.3-0.7,0.5
			c-0.1,0.1-0.4,0.8,0.3,1c0.6,0.1,1.2,0.1,1.9,0.1c0,0.2,0.1,0.5,0.2,0.7c0.2,0.4,0.5,0.7,0.8,1c0.5,0.5,1.1,0.9,1.8,1.1
			c-0.1,0.3-0.3,0.6-0.4,1c-0.3,0.6-0.2,1.3,0.1,1.9c-0.1,0-0.4,0.2-0.6,0.4c-0.5,0.7,0.5,1.7,0.7,2.1c-0.2,0-0.4,0.1-0.5,0.2
			c-0.3,0.2-0.2,1.5,0.8,1.7c0.7,0.4,1.3,0.8,1.9,1.3c0.1,0.1,0.4,0.7,0.9,1.3c0.2,0.3,0.5,0.8,1.1,0.9c0.6,1.8,1.4,3.5,2.5,5
			c0.5,0.6,1,1.3,1.3,2c-0.1,0.4-0.1,0.8-0.1,1.2c-0.1,1.1-0.3,2.2-0.6,3.3c-1.1-0.5-1.2,0.2-1.4,0.9c0,0-0.5-0.1-0.6,0.1
			c0-0.4-0.6-0.8-0.9-0.6c0,0-0.3,0.2-0.5,0.4c-0.1,0.1-0.1-0.3-0.2-0.6c0-0.4,0-0.8,0.1-1.2c0,0,0.3-0.3,0.4-0.6
			c0.3-0.6,0.1-2.3-0.3-3.5c-0.1-0.3-0.3-0.5-0.6-0.6c-0.1,0-0.6,0-0.7,0.4c0-0.2-0.4-0.4-0.7-0.5c-0.8-0.2-1.7,1.4-1.6,2.8
			c-0.6-0.5-1.4-0.3-1.3,0.5c0.1,1.1,1.8,3.2,1.9,4.1c-0.5-0.5-1.7-0.5-1.7,0.6c0.1,0.4,0.2,0.8,0.4,1.2c-0.2,1.2,1.1,2,2.2,3.2
			c0,0.5,0.2,0.5,0.3,0.7c-0.2,0.3-1.4,2.3-1.5,2.3c-0.1,0-0.9-0.5-1.2-0.2c-0.3,0.3-0.5,0.5-0.7,0.8l0.1,1.4c0,0.7-0.3,1.5-0.9,1.9
			c-0.6,0.5-1.1,1.2-1.4,1.9c-0.1,0.4-0.6,0.9-1.4,1.4c-0.1-0.3-0.4-0.5-0.6-0.7c0-0.1-0.1-0.1-0.3-0.1c-1.7,0.7-3.4,1.5-5.1,2.5
			c-0.8,0.5-1.5,1.3-1.9,2.2h-1.4c-0.4-0.4-0.8-0.8-1.3-1.2c-0.3-0.2-0.9-0.3-1.7,0.1c-0.8-0.2-1.6,0-2.3,0.4
			c-0.3,0.2-0.7,0.2-1,0.1l-1.8-2c-3.8-1.6-5.8-2.3-6.2-2.1c-0.4,0.2-0.7,0.6-0.8,1c-0.6-0.4-1.2-0.9-1.7-1.4l-1.1-1.3
			c-0.7-0.7-1.1-1.7-1-2.7l0.2-1.2c0-0.1,0-0.3-0.1-0.4c-0.3-0.3-0.6-0.4-1-0.5c-0.1,0-0.2-0.1-0.4,0.6c-0.4-0.5-0.8-1.1-1.2-1.7
			c0.6-0.8,1-1.7,1.3-2.6c0.3-1.1,0.5-2.3,0.5-3.5c0-0.1,0.1-0.1,0.1-0.2c0.6-0.4,1.3-4.6,1.1-5.6c-0.1-0.4-0.2-0.6-0.3-0.6
			c-0.1,0-0.2,0-0.3,0.1l0.2-0.4c0.1-0.3,0.1-0.5,0-0.6c-0.5-0.1-0.9,0-1.3,0.2c-0.1-0.7-0.3-1.3-0.5-1.9c-0.1-0.1-0.2,0-0.2,0
			c-1,0.6-1.5,2-1.9,3.7l-0.3,0.3c-1.4,1.7-2.4,3.7-2.9,5.8c-0.2-0.5-0.4-1-0.5-1.5C7,38,6.9,37.5,7,37.1c0.2-0.3,0.1-0.7-0.2-1
			c-0.5-1.1-0.8-2.2-1-3.3c0.1-0.8,0.3-1.6,0.6-2.3c0.5-1.3,1.2-2.6,1.9-3.8c0.2-0.2,0.3-0.4,0.5-0.5c1.3-0.3,7-7.7,6.4-11.2
			c1-1.6,1.9-3.2,2.7-5l0.3-0.1l0.4-0.1c1.2-0.5,2.3-1,3.3-1.5l1.5-0.8c1.1-0.5,2.1-1.1,3-1.8C27.3,4.9,27.8,4,28,2.9
			c-0.2-0.2-0.7-0.3-1.5-0.4c0.4-0.4,0.7-1,0.7-1.6c-0.3-0.4-1.3-0.5-2.9-0.2c-1.6,0.4-3.1,1-4.4,2c-1.3,0.8-2.5,1.8-3.5,3
			c-1,1.1-1.8,2.3-2.5,3.7l0.7-1.7c0.4-0.8,0.8-1.8,1.2-2.9C16,4.4,16,4,15.9,3.7c-0.1-0.2-0.4-0.3-0.7-0.2C14.3,3.9,13.6,4.4,13,5
			c-1.2,1.3-2.2,2.7-3,4.3c-0.7,1.3-1.3,2.7-1.8,4c0.2-0.9,0.2-1.9-0.1-2.9c-0.1-0.3-0.4-0.4-0.8-0.3c-0.5,0.3-0.9,0.8-1.2,1.2
			c-0.4,0.5-0.8,1.1-1.2,1.6c-0.5,0.7-0.9,1.4-1.3,2.2c-0.6,1.1-1,2.2-1.3,3.3c-0.5,1.7-0.7,3.4-0.9,5.1c-0.1,1.5,0,2.9,0.3,4.4
			c0.3,1.2,0.7,2.3,1.2,3.5c0.4,0.7,0.8,1.2,1.1,1.3c0.2,0.5,0.5,1.4,0.9,2.7c0.2,0.4,0.3,0.9,0.3,1.4c0,0.2,0,0.5,0.2,0.6
			c0.2,0.2,0.4,0.5,0.5,0.7c0.3,1.1,0.7,2.3,1.3,3.3C7.1,42.1,7,42.7,7,43.2c-1.2-3.4-2.2-6-2.9-7.8c-1.4-3.2-2.6-4.6-3.4-4.4
			C0.3,31.2,0,31.7,0,32.1c0,0.2,0,0.8,0,1.7c0,1,0.1,1.9,0.3,2.9c0.6,3,1.9,5.8,3.8,8.2l2.7,3.2c0.5,0.5,1,0.9,1.6,1.2
			c0.4,0.2,0.9,0.3,1.4,0.2c0.7,1.1,1.5,2.1,2.3,3.1c0.6,0.9,1.2,1.3,1.9,1.3c0.2,0.5,0.7,0.9,1.2,0.9l0.6-0.1
			c0.6,0.6,1.3,1.2,2.1,1.8l-0.7,2c-1.1,0.2-2.3,0.3-3.4,0.3c-1-0.7-2.3-1.6-4.1-2.8l-0.1-2.2c-0.1-0.7,0.1-1.3,0.4-1.9
			c0.1-0.4-0.2-0.8-0.7-1.2c-0.8-0.4-1.2-0.6-1.5-0.5c-0.1,0,0,0.2,0,0.4v0.1c0-0.1,0-0.2,0.2-0.1c1,0.3,1.5,0.6,1.4,1
			c-0.3,0.6-0.5,1.2-0.5,1.9l0,1.9c-1.3-0.9-2.8-1.7-4.2-2.3c0.2,0,0.4,0,0.6-0.1c0.2,0,0.4-0.1,0.4-0.2c0.1-0.2-0.1-0.2-0.4-0.3
			c-0.5,0-1,0-1.5,0.2c-0.2,0.2-0.1,0.4,0.1,0.6c1.6,0.8,3.2,1.7,4.7,2.7c2.1,1.4,3.8,2.5,5,3.3c1.6-0.1,3.3-0.2,4.9-0.5l3.2-0.6
			c1.3-0.2,2.7-0.5,4.1-0.6c0.7-0.1,1.3-0.1,2-0.1c0.7,0,1.5-0.1,2.2-0.2c0.6,1,1,2.1,1.2,3.2c0.1,0.5,0,0.7-0.2,0.8
			c-2.1,0.8-4.2,1.5-6.3,2.1c-1.3,0.3-2.4,0.5-3.5,0.8c-2.6,0.5-5.2,0.8-7.7,1.2c-1.9-0.8-3.8-1.8-5.6-2.9c-1.6-0.9-3.1-2-4.6-3.2
			c-1-1.1-1.4-1.7-1.2-1.9c0.6-0.9,1-1.8,1.3-2.8c0.1-0.3,0.1-0.5,0.1-0.8c-0.3-0.8-0.1-1.3,0.6-1.3c1.1-0.1,2.2-0.1,3.3-0.1
			c0.2,0,0.4,0,0.5-0.2l0.6-1.1l-0.3-0.1l-0.5,0.7v-0.8v1L3.9,52c-0.3,0-0.7,0.1-0.9,0.4c-0.3,0.5-0.3,1-0.1,1.5
			c0,0.2,0,0.5-0.1,0.7c-0.3,1-0.8,2-1.4,2.9c-0.1,0.2-0.1,0.4,0.1,0.8C2,58.8,2.4,59.4,3,59.8c0.5,0.4,0.9,0.8,1.5,1.2
			c0.7,0.5,1.8,1.2,3.5,2.2c1.8,1.1,3.7,2.1,5.6,2.9c0.4,0,2.8-0.3,7.4-1l0,0.4c-1.3,1-2.2,1.4-2.5,1.2c-0.5,0-0.7,0.4-0.5,1.2
			c0.2,0.3,0.5,0.6,0.8,0.7l0.5,0.6l1.4,0.8c0.5,0.1,1,0.1,1.5,0c0.5-0.2,0.8-0.6,0.9-1.2l0.1-0.1l1.5-1.5l1.1-0.8
			c0.7,0,1.3-0.4,1.6-0.9c0-0.4,0.2-0.6,0.3-0.7l1.3-0.9c0-0.1,0.6,0.1,1.6,0.6c0.4,0.1,0.9,0.1,1.3-0.1l1-0.6
			c0.9,0.2,2.4,1.3,4.6,3.2c0,0.3,0.2,0.6,0.4,0.8c0.4,0.3,0.9,0.5,1.4,0.6l0.5,1l0.5,0.2c0.8,0,1.6-0.3,2.2-0.8l0.8-0.3
			c0.4-0.3,0.6-0.6,0.6-1l-0.3-0.3l-0.7-0.2c-1-0.5-1.9-1-2.7-1.7l-0.6-0.4c3.3,0.5,6.7,0.9,10.1,1.1c0.7,0,1.4-0.3,2-0.8
			c0.8-0.6,3.3-2.4,7.5-5.4c0.6-0.7,1.1-1.5,1.5-2.3c-0.4-0.4-0.8-0.9-1-1.5c-0.2-0.5-0.4-1.1-0.5-1.6c-0.1-0.4-0.1-0.8,0-1.1
			c0.1-0.4-0.1-0.7-0.3-0.9c-0.2-0.2-0.5-0.3-0.9-0.3c-0.9-0.1-1.8-0.1-2.7,0c-0.5,0-0.7-0.2-0.8-0.3l0-0.9c0.1-0.4,0-0.6-0.3-0.5
			c-0.7,0.1-1.4,0.4-2,0.8c-0.3,0.3-0.3,0.8,0,1.1c0,0,0,0,0.1,0.1c0.3,0.2,0.4,0.5,0.4,0.9c-0.1,1.1-0.2,2.2-0.4,3.3
			c-1.2,1-2.4,1.9-3.7,2.6c-1.2,0.1-2.3,0.1-3.5-0.2c-0.5-0.5-0.8-1.1-0.9-1.8c0.7-0.4,1.3-0.9,2-1.3c0.4-0.1,0.8-0.2,1.2-0.3
			c0.3-0.1,0.5-0.4,0.5-0.9c0.3-0.2,0.6-0.5,0.7-0.8l2.2-2.6c0.6-0.6,1.4-0.9,2.3-1c1.4-0.2,2.7-0.8,3.9-1.7c0.2-0.3,0.2-0.7,0-1.2
			c0.9-0.7,1.6-1.4,2.3-2.3c0.4-0.6,0.5-1.3,0.3-2c0.8-0.8,1.3-1.8,1.7-2.8c0.1-0.7,0.1-1.3,0-2c0.4-0.2,0.7-0.5,1-0.8
			c0.2-0.2,0.3-0.6,0.3-0.9c0-0.4-0.1-0.7-0.4-0.9C62.4,34.8,62.5,33.6,61.9,32.8z M27.4,3.2c0,0.6-0.3,1.2-0.8,1.6
			c-1,0.9-2,1.6-3.2,2.2c-1.3,0.7-3,1.5-4.9,2.4V9.1c2.2-1.7,4.5-3.3,6.9-4.6C25.9,4.1,25.7,4,25,4.2c-0.7,0.4-1.5,0.8-2.4,1.4
			c-1.5,1-2.9,1.9-4.3,2.9l0-0.4c2-2,4.4-3.6,6.9-4.8C25.9,3,26.7,3,27.4,3.2z M19,4c1.4-1.2,3.1-2,4.8-2.6c0.8-0.2,1.6-0.3,2.4-0.3
			c0.3,0.1,0.4,0.3,0.3,0.6l-0.8,1.1c-1,0.2-2,0.6-2.9,1.2c-1.4,0.8-2.8,1.8-4,2.9l-0.5,0.3C17.9,7,17.4,7,16.6,7.4
			c1.9-1.6,3.8-3.1,5.9-4.3c0.7-0.3,1.3-0.7,1.9-1.2c-0.8,0.3-1.6,0.6-2.3,1c-1.7,1-3.3,2.1-4.9,3.3l-2.2,2C16.2,6.7,17.5,5.3,19,4z
			 M16.7,8.2c0.4-0.2,0.7-0.3,0.8-0.3c0.1,0.3,0.1,0.7,0.1,1c-0.2,0.9-0.5,1.9-1,2.7l-1.4,2.7c-1,0.2-2,0.6-2.7,1.3
			c0.4-0.8,1-1.6,1.6-2.6s1.6-2.5,2.9-4.5c0.2-0.4,0.2-0.5,0-0.3c-0.6,0.7-1.2,1.4-1.7,2.1c-0.9,1.2-2.1,3.2-3.7,5.7
			c-0.4,0.6-1.4,2.2-3.1,4.7l0.2-0.6l2.2-3.9l2.1-4C14.1,10.8,15.2,9.3,16.7,8.2z M7.6,17.3c1.3-2.2,2.5-4.5,3.6-6.8
			c0.5-1,1.1-2,1.9-2.9c0.2-0.6,0.1-0.6-0.4,0c-1.6,2.2-3.1,4.6-4.2,7.2l0.7-1.8c0.3-0.9,0.7-1.8,1.2-2.7c0.5-1.2,1.2-2.3,2-3.3
			c0.6-0.8,1.1-1.3,1.3-1.6c0.9-0.8,1.4-1.1,1.6-1.1c0.1,0.1,0.2,0.3,0.1,0.5l-1.8,4.7c-1.3,2.5-2.9,4.9-4.7,7.2
			c-0.8,0.9-1.3,1.5-1.5,1.7C7,18.5,6.9,18.7,6.7,19l0.1-0.6L7.6,17.3z M8.6,21.5c-0.5,0.8-0.9,1.7-1.2,2.6l-0.3,0l0.8-2.4L8.6,21.5
			z M5.8,27.8l0.3-1.1l0.2-1.1l0.6-0.1l-0.7,2l-0.5,1.7L5.8,27.8z M5.7,23.7c0.2-1,0.4-2,0.7-3l0.3,0.4L5.7,23.7z M4.3,31.1
			l-0.1-0.3c-0.1-0.2,0.1-1.7,0.8-4.3C4.7,28.5,4.5,30,4.3,31.1z M3.7,29c-0.2-2.1,0-4.3,0.4-6.4c0.2-2.4,0.8-4.7,1.7-7
			c0.3-0.7,0.3-0.8,0-0.3c-1.5,2.6-2.4,6.4-2.6,11.4c-0.1,1.3,0,2.6,0.3,3.8c0.2,0.8,0.5,1.2,0.9,1.4c0.2,0.1,0.4,0.1,0.6,0
			c-0.1,0.3-0.1,0.5-0.1,0.8c-0.7-0.3-1.2-0.8-1.4-1.5c-0.4-0.9-0.6-1.8-0.8-2.8C2.1,27,2,25.7,2.1,24.3c0.1-1.8,0.4-3.7,0.8-5.5
			c0.7-2.6,2-5,3.8-7c0.4-0.5,0.7-0.6,0.8-0.3c0.1,1,0.1,1.9,0,2.9c-0.1,1.1-0.4,2.1-0.7,3.1c-1,3.2-1.5,5.4-1.7,6.5
			C4.6,25.2,4.2,26.9,3.7,29L3.7,29z M4.8,32.6V32c0.9-1,0.8-2,1.2-2.9l1.3-3.3l1.5-3.5c1-1.9,2.2-3.7,3.4-5.4
			c0.5-0.8,1.4-1.4,2.3-1.6c0.2,0.5,0.2,1,0,1.5c-0.2,0.8-0.5,1.6-0.9,2.4c0,0-0.1,0,0,0c-1.2,2.4-2.8,4.5-4.6,6.4l2.6-4.2l1.2-2.2
			c0.5-0.8,0.6-1.1,0.3-0.9c-2.5,3.8-4,6.1-4.5,7.1s-1,1.9-1.5,2.7c-0.4,0.6-0.8,1.3-1.1,2C5.8,31,5.4,31.8,4.8,32.6L4.8,32.6z
			 M14.8,34.1c-0.1,1.4-0.4,2.8-0.7,4.2c0-0.9-0.1-1.8-0.2-2.7l0.3-0.9c0-0.3,0-0.3-0.2,0l-0.2,0.4l0-0.7l0.6-0.7
			C14.7,33.1,14.8,33.3,14.8,34.1L14.8,34.1z M14.2,32.1c0.3-0.1,0.4,0.1,0.2,0.4l-0.7,1c0-0.4-0.1-0.7-0.2-1.1
			C13.7,32.3,14,32.2,14.2,32.1L14.2,32.1z M11.3,33.8c0.5-2.1,1-3.1,1.5-3.3c0.4,1.3,0.6,2.6,0.7,4c0.2,1.7,0.2,3.5,0,5.3
			c-0.1,1.4-0.4,2.8-1,4l-0.5,1c0-1.5,0-2.8,0.1-3.7c0-1,0.1-2.2,0.1-3.8c0-1.6,0.1-3.4,0.3-5.4c0.1-0.5,0.1-0.6-0.1-0.3
			c-0.4,2.6-0.7,5.3-0.7,7.9l0,2.1l-0.1,2.9l-0.5-0.6c-0.4-1.8-0.5-3.6-0.4-5.5C10.7,36.9,10.9,35.3,11.3,33.8z M8,40
			c0.5-2.1,1.5-4,2.8-5.7c-0.2,0.7-0.3,1.5-0.4,2.3c-1,1.8-1.9,3.6-2.5,5.6c-0.2,0.7-0.3,1.4-0.4,2C7.5,42.9,7.7,41.4,8,40z
			 M10.4,43.1l-0.8-1l0.6-1.5C10.2,41.5,10.3,42.3,10.4,43.1L10.4,43.1z M17.9,58.5l0.5-1.5l1.7,1.1L17.9,58.5z M22,57.7l-2.8-1.7
			l-2.6-1.7l-0.5-0.6c-0.2-0.2-0.4-0.2-0.6-0.1c-0.3,0.1-0.5,0-0.6-0.4c-0.7,0.4-1.6,0.2-2-0.4l-1.2-1.5l-1.1-2L10.1,49
			c-0.2,0.1-0.5,0.2-0.8,0.2c-0.6-0.1-1.2-0.5-1.6-1c-0.9-1.2-1.6-2.5-2.2-3.8c-1.1-2.1-2.2-4.3-3.1-6.5c-0.4-1.2-0.7-2-0.8-2.3
			c-0.1-0.3-0.2-0.3-0.1,0c0.1,0.7,0.3,1.4,0.6,2.1c0.6,1.6,1.2,3.2,1.9,4.7c0.8,1.7,1.6,3.2,2.4,4.6c-1.6-1.6-2.9-3.5-4-5.6
			c-0.7-1.5-1.3-3.1-1.6-4.7c-0.2-0.8-0.2-1.6-0.2-2.4c0-0.6,0-1.2,0-1.8c0.1-0.4,0.3-0.5,0.5-0.5c0.1,0,0.5,0.4,1,1.1
			c0.9,1.5,1.6,3.1,2.2,4.7c0.9,2.5,1.5,4.1,1.7,4.8c0.2,0.8,0.4,1.4,0.6,2c0.2,0.6,0.5,1.2,0.8,1.7c0.3,0.7,0.8,1.3,1.3,1.8
			c0.6,0.4,1,0.5,1.3,0.2l-1.4-2.4c-0.1-0.1-0.3-0.1-0.4,0c0,0,0,0-0.1,0v0c0,0-0.1,0-0.1,0c-0.1,0-0.1,0-0.2,0c0,0-0.1-0.1-0.1-0.1
			c0,0-0.1-0.1-0.1-0.1c0,0,0-0.1-0.1-0.2c0-0.1,0-0.1-0.1-0.2c0-0.1,0-0.3,0-0.4c0.1-0.8,0.3-1.5,0.5-2.3c0.6-1.9,1.4-3.7,2.3-5.5
			c-0.1,0.7-0.2,1.3-0.2,2c-0.9,2.1-1.6,3.7-2,5c-0.2,0.9-0.2,1.4,0,1.3l0.3-0.1l-0.2-0.5l0.1-0.4l0.4,0.8L9.2,45l0.2,0.3l-0.2,0.3
			l1.7,2.4l0.4-0.3l0.3,0.3c-0.5,0.5-0.7,0.8-0.6,1c0.4,0.7,0.8,1.3,1.2,2c0.7,1.1,1.3,1.4,1.8,0.9c0.1-0.1,0.3-0.1,0.6,0.1
			c0.3,0.3,0.6,0.7,0.7,1.1l0-0.9L13.9,51l-0.8-1.6c-0.5-0.7-1-1.4-1.4-2.1c-0.3-0.5-0.6-1.1-1-1.8c-0.4-0.7-0.9-1.5-1.5-2.3
			l0.1-0.4l1.2,1.4c0.8,1,1.5,2,2.2,3.1c0.4,0.7,0.7,0.9,0.8,0.5l0.2-0.7l0.3,0.2l-0.2,1.4l-0.1,0.4c0,0.3,0,0.5,0.2,0.6
			s0.3,0.3,0.4,0.7c0.3,0.6,0.7,1.1,1.2,1.5c0.7,0.7,1.4,1.4,2.2,2c0.8,0.5,1.4,1,1.9,1.3c0.5,0.3,0.7,0.7,0.7,1l0.7,0.1L21,55.5
			l0.4-0.1c0.3,0.2,0.5,0.5,0.6,0.8c0.6,0.5,1.2,0.9,1.7,1.2L22,57.7z M9.8,45.7l0.2-0.2l1,1.7L11,47.4L9.8,45.7z M11.6,49.2
			l0.4-0.5l1,1.4l0.6,1l0.2,0.6c-0.4-0.2-0.7-0.4-0.9-0.8L12.2,50L11.6,49.2z M24.5,57.3l-1.6-1.1c-0.6-0.8-1.1-1.3-1.4-1.7
			c-0.2-0.3-0.5-0.5-0.9-0.7c-0.3-0.2-0.6-0.3-1-0.2c-0.2,0-0.4,0.3-0.6,0.7L19,54.2c0-0.3,0.2-0.6,0.5-0.8c0.3-0.1,0.6-0.1,0.8,0.1
			l1.8,0.9l3,1.2c0.5,0.5,1,1,1.4,1.6C25.9,57.2,25.2,57.3,24.5,57.3z M25.5,65c-1.1,1.1-2.3,2-3.5,2.9l-0.4-0.1
			c0.8-0.5,1.9-1.2,3.3-2.3l0.6-0.7l-0.3,0c-0.5,0.5-1.1,0.9-1.6,1.3c-0.7,0.5-1.4,0.9-2.1,1.2l-1.1,0.5l0.2,0.2l0.8,0.1
			c0.5,0.3,0.7,0.6,0.6,0.9c-0.2,0.4-0.6,0.4-1.2,0.1l-0.9-0.5c-0.3-0.3-0.6-0.5-1-0.7l-0.4-0.3l0.1-0.3l1.1,0.5h0.3l-0.2-0.7
			l1.3-0.8c0.3-0.1,0.5-0.3,0.4-0.6l0.1-0.7c0.6,0.1,1.3,0,1.9-0.3c0.6-0.3,1.2-0.5,1.9-0.5C25.9,64.4,25.9,64.7,25.5,65L25.5,65z
			 M41,7.2L41,6.4l-0.7,0.1c-0.7,0.2-1.5,0-2-0.6c-0.4,0.1-0.6-0.1-0.6-0.5C38,5,37.9,4.8,37.6,4.8l-1.1,0.1c-0.5,0-1-0.2-1.4-0.6
			c-0.1-0.2,0-0.6,0.3-0.9C35,3.3,34.5,3,34.2,2.5c-0.2-0.3-0.1-0.6,0.3-0.8c0.6-0.2,1.3-0.3,2-0.1c-0.2-0.2-0.3-0.6-0.2-0.9
			c0-0.3,0.7-0.1,1.9,0.5L39,1.7c0.2-0.4,0.6-0.5,1-0.3c0.6,0.3,1.1,0.6,1.6,1c0.6,0.5,1.2,1,1.7,1.7c0.5-0.3,0.9-0.3,1.1,0.2
			l0.1,0.9c-0.6-0.5-1.4-0.6-2-0.1L42,4.8c-0.5-0.6-1-1.2-1.3-2c-0.1-0.6-0.2-0.6-0.2-0.1c0.1,0.7,0.4,1.4,0.9,1.9
			c-0.9-0.2-1.7-0.7-2.4-1.3c-0.4-0.4-0.8-0.9-1.2-1.4c-0.3-0.4-0.4-0.4-0.3,0c0.3,0.6,0.7,1.1,1.2,1.5c-0.4-0.2-0.8-0.3-1.1-0.5
			c-0.7-0.3-1.4-0.5-2.2-0.6c-0.3,0-0.3,0,0,0.1c0.7,0.2,1.4,0.4,2.1,0.7c0.3,0.1,0.6,0.3,0.9,0.6c-0.7,0.3-1.4,0.4-2.2,0.4
			c-0.5,0-0.7,0-0.6,0c0.1,0.1,0.3,0.1,0.4,0.1c0.9,0.1,1.8,0,2.7-0.3c0.8,0.4,1.5,0.7,2.3,1c-0.6,0.1-1.1,0.4-1.6,0.7
			c-0.2,0.2-0.1,0.3,0.3,0c0.5-0.3,1.1-0.5,1.8-0.5l0.6,0.3c0,0.7,0.1,1.4,0.5,2l-0.4,0.1L41,7.2z M45.2,11.2c-1.4,0-1.7,0-1.7-0.2
			c-0.1-0.2-0.1-0.3,0.4-0.6l0.3-0.4c-0.8-0.4-1.5-0.8-1.6-1.8l0.7-0.3c0.3-0.3,0.3-0.6,0-0.8s-0.4-0.6-0.5-1.4c0.3-0.6,0.9-0.6,2,0
			c0.5-0.9,1-1.2,1.7-0.8c-0.6-0.1-1.2,0.3-1.3,0.9c-0.1,0.5-0.1,1,0,1.4C45,7,44.7,6.7,44.3,6.4c-0.7-0.3-0.8-0.3-0.4,0.1
			c0.4,0.4,0.8,0.8,1.1,1.3c-0.5,0.4-1.1,0.6-1.8,0.6c-0.2,0.1-0.2,0.2,0.1,0.2c0.3,0.1,0.7,0,1-0.1c0,0.5,0.1,1,0.3,1.4
			c0.3,0.4,0.6,0.7,0.9,0.9C45.4,10.9,45.3,11,45.2,11.2z M46,11.9c0-0.3,0.2-0.5,0.8-0.5c0.5,0,0.6-0.2,0.3-0.5
			c-0.7-0.2-1.3-0.7-1.8-1.3c-0.3-0.4-0.3-0.7,0-0.9l0.6-0.1l0.3-0.3L45.7,7c-0.2-0.5,0.1-1.1,0.6-1.4c0.7-0.1,1.4,0.1,2,0.6
			c0-0.3,0.3-0.5,0.7-0.3c0.4,0.1,0.8,1.1,1.2,2.8l0.6,0.2c0.2-0.5,0.4-0.7,0.5-0.7c0.2,0,0.4,0.4,0.6,1.2c0.5,0.6,0.8,1.4,0.7,2.2
			c-0.3,0.5-0.5,1-0.5,1.6l-0.3-0.7c-0.2-0.8-0.3-1.6-0.2-2.3c0-0.3-0.1-0.3-0.1,0c-0.1,0.6-0.1,1.2,0,1.8c-0.6-0.8-1.4-1.6-2.1-2.3
			C49,9,49,8.4,49,7.8c-0.1-0.6-0.1-0.7-0.2-0.4c-0.1,0.7,0,1.4,0.1,2.1c-0.7-0.8-1.4-1.6-2-2.5c-0.2-0.3-0.3-0.4-0.3-0.2
			c0.4,0.8,0.9,1.5,1.5,2.2c0.5,0.6,0.9,1.1,1.3,1.4c-0.5-0.2-1.1-0.3-1.7-0.4c-0.5-0.1-0.9-0.2-1.3-0.4c-0.4-0.1-0.4,0,0,0.3
			c0.4,0.2,0.9,0.4,1.4,0.4c0.7,0.1,1.3,0.3,1.9,0.6c0.5,0.4,1,0.9,1.3,1.5l0.4,1c-0.7-0.4-1.5-0.6-2.3-0.8c-0.5,0-1-0.2-1.5-0.4
			C47,11.9,47,12,47.5,12.3c0.5,0.3,1,0.4,1.6,0.5c0.9,0.2,1.8,0.6,2.6,1.1l0.1,0.2c-0.2,0.2-0.2,0.5-0.2,0.8l0.3,0.7
			c-0.2-0.3-0.5-0.1-0.9,0.4c0.2-0.3,0.1-0.6-0.1-0.9c-0.7-0.8-1.6-1.3-2.5-1.7L48,13.8C47,13.6,46.3,12.9,46,11.9L46,11.9z
			 M55,30.4c-0.3-0.4-0.6-1-1.1-1.8c-0.4-0.6-0.7-1.3-1.1-1.9c-0.2-0.5-0.3-1-0.1-1.5c0.1-0.5,0.3-0.9,0.4-1.2
			c0.1-0.3,0.1-0.3,0-0.1c-0.3,0.5-0.5,1-0.6,1.5l-0.7-2.1c0.2-1.2,0.7-2.3,1.3-3.2c0.2-0.4,0.2-0.5-0.1-0.1c-0.7,0.9-1.2,1.9-1.4,3
			l-1.2-2.6c0.1-0.9,0.4-1.8,0.9-2.7c0.3-0.7,0.2-0.7-0.2,0.1c-0.4,0.7-0.6,1.4-0.9,2.1c-0.3-1.4-0.7-2.6-1-3.6l-0.3-0.1l0.1,0.4
			c0.2,1.1,0.4,2.2,0.8,3.2c-0.5-0.4-1-0.8-1.6-1c-0.3-0.2-0.3-0.1,0,0.1c0.6,0.3,1.2,0.8,1.6,1.3c0.3,0.7,0.6,1.3,0.8,1.9
			c-0.7-0.5-1.5-0.8-2.3-1.1c-0.4-0.1-0.4,0,0,0.1c1,0.3,1.8,0.8,2.5,1.6l0.7,2c-0.3,0-0.6-0.4-1.1-1.2c-0.7-0.9-1.7-1.6-2.8-2
			c-0.3-0.1-0.5-0.5-0.4-0.8c0-0.3,0.3-0.4,0.9-0.3c-0.1-0.4-0.3-0.7-0.5-1l-0.3-0.4c-0.4-0.8-0.2-1.2,0.7-1.2
			c-0.3-0.5-0.4-0.9-0.3-1.1c0-0.5,0.1-1,0.3-1.4c0.1-0.3,0.3-0.6,0.3-0.9c0.5,0.3,0.9,0.5,1.3,0.7c0.4,0.2,0.6,0.6,0.6,1l-0.2,1.1
			c0.1,0.2,0.3,0.1,0.6-0.2c0.2-0.3,0.5-0.6,0.8-0.8c0.3,0.2,0.6,0.4,0.8,0.7c0.2,0.9,0.1,1.8-0.3,2.6l-0.4,1c0.8-1.1,1.5-1.6,2-1.6
			c0.2,0.1,0.2,0.4,0.2,0.8c-0.1,0.4-0.1,0.8,0,1.2c0.1,0.4-0.1,0.8-0.4,1.1c-0.4,0.4-0.6,0.9-0.7,1.4c0.8-0.6,1.1-0.5,1,0.3
			l-0.4,1.6c-0.1,0.8,0,1.1,0.4,1.1c0.4,0,0.6,0,0.7,0.1c0.1,0.2,0.1,0.5,0.1,0.8c-0.2,0.3-0.3,0.7-0.3,1c0,0.2,0.1,0.3,0.2,0.4
			c0.1,0.1,0.4,0.1,0.7-0.1c0.4-0.2,0.6,0,0.6,0.3c0,0.4,0,0.8,0,1.1c0,0.4,0.1,0.7,0.4,1.1c0.2,0.2,0.4,0.4,0.7,0.5l0.3-0.4
			c-0.5,0-0.7-0.3-0.7-1c0-0.5,0-1,0-1.6c-0.2-0.5-0.4-0.7-0.6-0.8s-0.7-1.3-1.4-3.7l0.8,0c0.6,2.1,1,3.2,1.4,3.4
			c0.3,0.2,0.5,0.3,0.5,0.6c0,0.5,0.1,0.9,0.2,1.4c0.4-0.1,0.7-0.5,0.8-1.2c0.2-0.6-0.1-1.2-0.6-1.5c-0.5-0.3-0.8-0.6-0.9-0.8
			c-0.1-0.4,0-0.7,0.5-0.8c0.3-0.1-0.4-0.7-2-1.8c-0.8-0.6-1.1-1.1-0.7-1.5c0.1-0.2,0.4-0.2,0.7,0s0.6,0.3,0.7,0.2
			c0.2-0.3,0-0.6-0.4-0.7c-0.4-0.1-0.7-0.3-0.6-0.5c0-0.5,0-1,0-1.6c0-0.3,0-0.7-0.1-1c-0.3-0.4-0.8-0.4-1.6,0.1
			c0.2-0.4,0.2-0.8,0.1-1.2c-0.1-0.4-0.3-0.8-0.6-1.1l-0.4-1.1c-0.1-0.4,0.1-0.7,0.7-0.8c-0.2-0.5-0.2-1.1,0-1.6
			c0.1-0.3,0.3-0.6,0.4-0.9c0.1-0.2,0.3-0.2,0.7-0.1c0.7,0.5,1.3,1.2,1.8,2c0.4-0.4,0.8-0.3,1.2,0.5c0.5,0.7,0.6,1.6,0.5,2.5
			c0.9-0.5,1.2-0.2,1,1c0.3,0.6,0.6,1.2,0.7,1.9c0.1,0.4,0,0.9-0.2,1.3c-0.2,0.3-0.3,0.6-0.3,0.9c0,0.2,0.1,0.2,0.3,0
			c0.3-0.3,0.6-0.5,1-0.6c0.2,0.4,0.4,0.9,0.4,1.4c0,0.4-0.2,0.7-0.5,0.9c-0.3,0.3-0.5,0.7-0.6,1.1c0,0.2,0.1,0.3,0.3,0.3
			c0,0,0,0,0.1,0l0.7-0.2c0.3,0,0.4,0.2,0,0.8c-0.3,0.5-0.5,1.1-0.8,1.6C59.1,27.3,59,27.6,59,28c0,0.6-0.1,0.9-0.3,1
			c0-0.7,0-1.5-0.1-2.2c-0.1-0.9-0.3-1.8-0.5-2.6c0.4-0.5,0.7-1.1,0.8-1.7c0.2-0.5,0.1-0.6-0.1-0.2c-0.1,0.5-0.4,1-0.8,1.4
			c-0.3-0.9-0.6-2-0.9-3.3c0.4-0.7,0.6-1.5,0.7-2.3c0-0.8,0-0.9-0.1-0.2c-0.1,0.8-0.4,1.5-0.8,2.2c-0.3-1-0.7-2-1-2.9
			c0.1-0.6,0.2-1.2,0.1-1.8c0-0.7-0.1-0.7-0.2-0.1c0,0.5-0.1,0.9-0.2,1.3l-0.8-2.1l-0.5-1.2c-0.2-0.4-0.2-0.4-0.2,0l0.5,1.6
			c-0.3-0.4-0.6-0.7-1-0.9c-0.3-0.2-0.4-0.2-0.2,0c0.5,0.5,1,1,1.4,1.5c0.3,0.8,0.6,1.6,1,2.4c-0.6-0.6-1.2-1-2-1.3
			c-0.5-0.2-0.5-0.1,0,0.3c0.9,0.6,1.7,1.4,2.4,2.2c0.3,0.9,0.6,1.7,0.9,2.5c-0.7-0.4-1.2-1-1.7-1.6c-0.3-0.3-0.3-0.2,0,0.1
			c0.5,0.8,1.2,1.5,1.9,2.2l0.6,2.3c-0.7-0.7-1.4-1.2-2.2-1.7c-0.4-0.2-0.4-0.2-0.1,0.1c0.9,0.7,1.8,1.6,2.5,2.5
			c0.3,1.2,0.4,2.5,0.3,3.8c0,0.5-0.4,0.8-1,1L57.1,32l-0.9,0C55.6,31.3,55.3,30.8,55,30.4z M56.2,32.1c0.3,0,0.5,0,0.8,0
			c-0.3,1.9-0.7,3.9-1.1,5.2l-0.5-0.3C55.8,35.4,56.1,33.8,56.2,32.1L56.2,32.1z M49.6,42.7c-0.1-0.1-0.5-0.5-1.2-1
			c-0.6-0.5-0.8-1-0.6-1.5c-0.2-0.2-0.3-0.5-0.5-0.8c-0.1-0.3-0.1-0.6,0.1-0.9c0.2-0.3,0.7-0.2,1.4,0.4c0.1-0.4,0.1-0.8,0-1.2
			c-0.1-0.4-0.3-0.8-0.4-1.1c-0.3-0.5-0.6-1-0.9-1.5c-0.3-0.6-0.3-0.9-0.2-1s0.4,0,0.7,0.3c0.6-0.7,1-0.9,1.2-0.6
			c0.3,0.4,0.4,0.9,0.5,1.4c0.1,0.7,0.1,1.4,0,2.1l-0.1,0.1l0.1,0.1c0,0.6,0,1.1-0.2,1.7c0,0.2,0.1,0.4,0.2,0.6c0-0.2-0.1-0.4,0-0.7
			c0-0.1,0.1-0.4,0.2-0.9c0.1-0.3,0.2-0.5,0.2-0.8c0-0.1,0-0.1-0.2-0.1c0.2,0,0.3-0.2,0.3-0.3c0.1-0.1,0.1-0.3,0-0.4
			c-0.1-0.4-0.1-0.8-0.1-1.2c0-0.5-0.1-1-0.2-1.5c-0.1-0.3-0.2-0.5-0.2-0.8c0-0.2-0.2-0.3-0.4-0.3c-0.3,0-0.7,0.2-1.2,0.8
			c0.1-0.7,0.3-1.5,0.7-2.1c0.2-0.4,0.5-0.5,0.7-0.3c0.2,0.1,0.4,0.3,0.5,0.5c0.1,0.2,0.2,0.1,0.3-0.1c0.1-0.2,0.3-0.3,0.4-0.2
			c0.1,0.1,0.2,0.3,0.3,0.4c0.1,0.2,0.2,0.5,0.2,0.7c0.1,0.4,0.1,0.9,0.1,1.4c0.1,0.5,0,0.9-0.2,1.3c-0.2,0.2-0.3,0.5-0.3,0.8
			c0,1.3,0.1,1.9,0.3,1.9c0.2,0,0.4-0.1,0.5-0.3c0.1-0.2,0.3-0.2,0.6-0.2c0.2,0,0.3,0.4,0.3,1.1s0.1,0.7,0.2,0.2s0.3-0.8,0.6-0.8
			s0.3,0.7,0.1,2.2c-0.8,0.7-1.5,1.4-2.1,2.2c-0.2-0.4-0.2-0.9,0-1.3c0.1-0.3,0.3-0.5,0.4-0.8c0.1-0.3,0.2-0.6,0.3-0.8
			c0.2-0.6,0.2-0.6-0.1-0.1c-0.1,0.3-0.3,0.6-0.4,0.8c-0.1,0.2-0.2,0.5-0.4,0.7c-0.1-0.7-0.3-1.4-0.5-2.1c-0.2-0.7-0.3-0.7-0.2,0
			c0.2,1.1,0.3,2.2,0.4,3.4c-0.4-0.4-0.8-0.8-1.3-1.2c-0.4-0.3-0.8-0.6-1.1-1c-0.3-0.2-0.3-0.1-0.1,0.1c0.4,0.5,0.8,1,1.3,1.4
			c0.4,0.3,0.7,0.7,1.1,1.1c0.1,0.1,0.2,0.3,0.2,0.4c-0.2,0.3-0.5,0.6-0.8,0.9c-0.2-0.1-0.3-0.3-0.3-0.5
			C49.9,43,49.8,42.9,49.6,42.7z M36.3,56.3c0.3-0.4,0.7-0.7,1.2-0.9c1.3-0.7,2.7-1.3,4.2-1.8c0.1-0.1,0.3,0,0.3,0.1l0.3,0.4
			l-0.4,0.3c-0.3,0.2-0.6,0.3-0.9,0.3c-0.5,0-0.9,0.1-1.3,0.3c-0.5,0.1-0.8,0.5-0.9,1c-0.1,0.2-0.2,0.4-0.4,0.6
			c-0.5,0.3-1,0.6-1.5,0.8l-1.2-0.1L36.3,56.3z M39.5,57.5h-0.2l0-0.1c-0.1,0.1-0.3,0.1-0.4,0.1l-1.2-0.2l1.3-0.6l0.3,0.6l0.2-0.1
			l-0.2-0.6c-0.1-0.4,0.1-0.9,0.4-1.1c0.4-0.3,0.8-0.4,1.3-0.4c0.2,0,0.2,0.4,0,1c-0.4,0.5-1,0.9-1.6,1.1L39.5,57.5z M34.1,62.3
			l-0.2-0.6l-1,1.3l-0.8,0.5c-0.3,0.3-0.7,0.4-1.1,0.4l-1.3-0.6l0.7-0.3l0.2,0.1c-0.1,0.4,0,0.3,0.4-0.1l1.2-1.1
			c0-0.9-0.1-1.8-0.5-2.6c-0.2-0.7-0.5-1.4-0.9-2c0-0.2-0.6-0.3-1.7-0.1c0.7-0.3,1.5-0.4,2.3-0.1l0.9,0.4l0.5-0.2l-0.1-0.1l-0.8-0.4
			l0.4,0l0.4,0.4l0.1,0l0,0l0.3,0.2c0.9,0.8,1.6,1.7,2.1,2.8c0.2,0.5,0.2,1,0.1,1.4C34.6,62.2,34.3,62.5,34.1,62.3L34.1,62.3z
			 M42.9,67.6l0.4,0.1l-0.1,0.2l-1,0.3c-0.4,0.4-0.9,0.6-1.5,0.7l-0.6-0.1L40,68.4c0.1-0.2,0.3-0.4,0.6-0.5c0.3-0.1,0.6-0.2,0.9-0.3
			l0.9,0.2L42.9,67.6z M41.6,67.4c-0.7,0-1.1,0.4-1.3,0.4h-0.5c-0.5-0.6-1.1-1.1-1.7-1.6l-1.7-1.5c0.7-0.1,1.4,0,2.1,0.2L41.6,67.4z
			 M46.9,59.7c0.5,0.1,1.1,0,1.6-0.1c1.5-0.9,2.9-1.9,4.1-3c1.6-1.2,3.3-2.3,5.1-3.2c0.4-0.2,0.4-0.4,0.1-0.5
			c-0.6-0.1-1.1-0.2-1.7-0.2c-0.2,0.2-0.2,0.4,0.1,0.5c0.2,0,0.5,0,0.7,0.1c-1.5,0.7-2.8,1.6-4.2,2.6c0.1-1,0.2-1.9,0.3-2.9
			c0-0.4-0.2-0.8-0.4-1.2c-0.2-0.2,0-0.5,0.7-0.7l0.5-0.1v0.8L53,51.5l0.1,0.4c0.2,0.3,0.5,0.5,0.8,0.6l2,0.1l0.9,0
			c1,0,1.5,0.3,1.5,0.8c0,0.5,0,0.9,0.1,1.4c0.2,1.1,0.6,2.1,1.3,3c-0.2,0.6-0.6,1.1-1,1.6l-1.9,1.3c-1.7,1.2-3.9,2.7-6.8,4.6
			c-2.4,0-4.9-0.1-7.3-0.5c-2.4-0.3-4.8-0.9-7.1-1.6L35.1,63l0.3-0.3c0.3-0.3,0.5-0.7,0.7-1.1c0-0.4-0.1-0.9-0.2-1.3
			c-0.2-0.9-0.7-1.7-1.4-2.3v-0.2l0.6-0.1c1.4,0.1,2.8,0.3,4.1,0.6c1.2,0.3,2.6,0.6,4.3,0.8C45,59.4,46.2,59.6,46.9,59.7L46.9,59.7z
			 M44.1,58.7c-0.6-0.1-1.7-0.3-3.1-0.6l1.3-0.4c0.7,0.1,1.1,0,1.2-0.4C43.6,57.8,43.8,58.3,44.1,58.7L44.1,58.7z M51.8,47.7
			c-0.5,0.4-0.7,1.1-0.5,1.7c-0.8,0.4-1.4,1-2,1.6c-0.5,0.6-1,1.2-1.5,1.8c-0.2,0.4-0.6,0.7-1.1,0.9c-0.5,0.2-1.1,0.1-1.4-0.3
			l-0.1,0.9l-2.5,1.5l-1.2,0.5c0.1-0.4,0.2-0.8,0.2-1.3l0.4-0.4c1.7-0.9,2.7-1.7,3-2.4c0.3-0.6,0.7-1.1,1.1-1.5
			c0.4-0.4,0.7-0.9,0.9-1.5l0-0.9L47,47.5c0.4,0.4,0.8,0.5,1.1,0.3c0.5-0.9,1.1-1.8,1.7-2.7c0.6-0.8,1.2-1.6,1.9-2.3
			c0.7-0.7,1.2-1.3,1.7-1.8l0,0.9c-1,1.2-1.9,2.4-2.8,3.7c-1,1.4-1.9,2.9-2.6,4.5c-0.3,0.6-0.7,1.1-1.2,1.5
			c-0.3,0.2-0.6,0.4-0.9,0.6c-0.2,0.3-0.1,0.4,0.3,0.3c0.2-0.2,0.5-0.4,0.8-0.6c0.5-0.3,1.7-1.6,3.5-3.9l0-1.3l0.4-0.7
			c0,0.7,0,1.1,0.2,1.2s0.4-0.1,0.6-0.6c0.3-0.5,0.9-1.8,1.9-4c-0.2,0.6-0.2,1.2,0,1.7c-0.6,0.4-0.8,1.1-0.5,2.2L51.8,47.7z
			 M60.2,39.5c-0.1,0.6-0.3,1.1-0.6,1.6c-1,1.2-1.4,1.9-1.3,2.1c0.3,0.5,0.2,1.1-0.1,1.6c-0.7,0.8-1.4,1.5-2.1,2.2
			c0.2,0.5,0.1,0.9-0.6,1.3c-0.8,0.4-1.6,0.8-2.4,1c1.4-0.9,2.4-2.3,3-3.9c0.4-0.4,0.9-0.7,1.4-0.9c0.3-0.2,0.4-0.3,0.2-0.3
			c-0.5,0.2-1,0.5-1.4,0.8c0.5-1,0.8-2,1-3c0.7-0.6,1.3-1.4,1.8-2.2c0.3-0.5,0.4-0.6,0-0.3c-0.5,0.7-1,1.4-1.7,2
			c0.4-1.2,0.7-2.4,0.9-3.6c0.1-0.8,0.1-0.9-0.1-0.4l-0.4,1.3c-0.1-0.4-0.3-0.8-0.6-1.2l0.5,1.6c-0.2,0.9-0.4,1.8-0.7,2.6
			c-0.3-1-0.8-1.9-1.4-2.7c-0.5-0.6-0.6-0.7-0.3,0c0.6,1,1.1,2.1,1.4,3.2c-0.2,1-0.6,2-1,3c-0.2-0.4-0.5-0.7-0.9-0.9
			c-0.2-0.1-0.2,0,0,0.2c0.3,0.3,0.6,0.6,0.8,1c-0.3,0.7-0.7,1.3-1.2,1.9c-0.4,0.5-0.9,1-1.4,1.4c0.6-0.9,0.8-2,0.6-3
			c0-0.2,0.2-0.4,0.5-0.5c0.3-0.1,0.4-0.3,0.3-0.4c-0.2-0.4-0.4-0.8-0.4-1.3c0.3-0.1,0.6-0.1,0.9,0c0.3-0.2,0.3-0.5-0.1-0.9
			C54.3,42,54,41.4,54,40.8c0-0.4,0.3-0.6,0.9-0.5c0.3,0,0.3-0.3,0.1-1l-0.6-0.9c-0.4-1-0.3-1.3,0.6-1.1l1,0.6
			c0.6,0.2,1-0.2,0.9-1.3c0-0.2,0.2-0.3,0.6-0.2s0.7-0.2,1.1-0.9c0.3-0.3,0.6,0,0.7,1c-0.1,1.3,0.2,1.9,1,1.9
			C60.2,38.5,60.3,38.9,60.2,39.5L60.2,39.5z M61.3,36.3c0,0.2,0,0.4-0.2,0.6c-0.2,0.2-0.5,0.4-0.9,0.4l-0.4-0.7
			c0-0.6-0.2-1.2-0.6-1.7c0.2-0.2,0.5-0.3,0.8-0.5c0.3-0.1,0.2,0-0.1,0.1C59.5,34.6,59.2,35,59,35h-0.1c0.2-0.9,0.6-1.7,1.1-2.4
			c0.1-0.3,0-0.4-0.2,0c-0.4,0.6-0.8,1.2-1.1,1.8c-0.2-0.2-0.3-0.5-0.3-0.8c-0.1-0.5-0.2-0.5-0.2,0c0,0.4,0.1,0.8,0.3,1.2
			c-0.5,0.8-1,1.2-1.3,1c0.2-1.2,0.5-2.4,0.8-3.7c0.6-0.6,1.1-0.8,1.5-0.6c0.6-0.5,1.1-0.6,1.5-0.3c0.2,0.3,0.3,0.7,0.3,1.1
			c0,0.4-0.2,0.8-0.4,1.2c0.5,0,0.7,0.2,0.7,0.6c-0.1,0.7-0.6,1.4-1.2,1.8C61,35.9,61.2,36.1,61.3,36.3L61.3,36.3z"/>
		<path class="st1" d="M9.3,60c0,0.1,0.1,0.1,0.2,0.2c0.3,0.2,0.7,0.1,0.9-0.3c0.2-0.2,0.3-0.6,0-0.9c0-0.1-0.1-0.1-0.2-0.1
			c-0.2-0.2-0.2-0.2-0.3,0.1L9.3,60L9.3,60z M4.4,56.7c0.4,0.3,0.7,0.5,1.2-0.1c0.2-0.3,0.2-0.7,0-0.9c0,0,0,0,0,0
			c-0.1-0.1-0.2-0.1-0.3-0.2c-0.1,0-0.1,0.1-0.2,0.1L4.4,56.7L4.4,56.7z M11.5,60.2c0.1-0.3,0.1-0.6-0.1-0.8l0.1-0.1
			c0.2,0.1,0.4,0.2,0.5,0.3c0.2,0.1,0.4,0.2,0.6,0.3L12.5,60c-0.1-0.1-0.3-0.1-0.4,0s-0.3,1-0.4,1.3l-0.3,1.4l1.1-0.9
			c0.3-0.3,0.6-0.6,0.9-1c0.2-0.3,0-0.3-0.1-0.4l0-0.2c0.2,0.2,0.3,0.2,0.4,0.3c0.2,0.1,0.3,0.1,0.4,0.2v0.1c-0.3-0.2-0.7,0.2-1,0.5
			l-2.1,2l-0.2-0.1L11.5,60.2L11.5,60.2z M8.8,60.7c-0.1,0.2-0.2,0.4-0.3,0.7c-0.1,0.2,0.1,0.3,0.3,0.4l-0.1,0.1
			c-0.2-0.1-0.4-0.3-0.6-0.4c-0.2-0.1-0.3-0.2-0.5-0.3l0-0.2c0.2,0.1,0.3,0.2,0.4,0.1c0.2-0.2,0.4-0.4,0.5-0.6l0.8-1.3
			c0.1-0.2,0.2-0.4,0.4-0.6c0.1-0.3-0.1-0.3-0.3-0.4l0.1-0.1c0.2,0.2,0.4,0.2,0.6,0.4c0.2,0.1,0.3,0.2,0.5,0.3
			c0.4,0.2,0.7,0.7,0.5,1.1c0,0.1-0.1,0.1-0.1,0.2c-0.3,0.5-0.8,0.6-1.3,0.4c-0.1,0-0.1-0.1-0.2-0.1c-0.1,0-0.3-0.2-0.3-0.2
			L8.8,60.7L8.8,60.7z M6.9,57.7c0.1-0.2,0.2-0.4,0.4-0.6c0.1-0.3-0.1-0.3-0.3-0.4l0.2-0.1L9,57.8l-0.5,0.7l-0.1-0.1
			c0.3-0.5,0.1-0.7-0.3-1l-0.3-0.2c-0.1-0.1-0.1-0.1-0.2,0.1L7,58.5c0.5,0.4,0.8,0.1,1-0.1l0.1,0c-0.2,0.3-0.3,0.4-0.4,0.6
			c-0.1,0.2-0.2,0.4-0.4,0.6l-0.1-0.1c0.3-0.5,0.1-0.7-0.3-0.9l-0.5,0.8c-0.1,0.2-0.2,0.3-0.2,0.5c0,0.2,0.2,0.4,0.4,0.5
			c0.4,0.2,0.7,0.3,1.1-0.1l0.1,0L7.3,61l-2.1-1.4l0.1-0.1c0.1,0.1,0.3,0.1,0.4,0.1C5.7,59.5,6,59.1,6.1,59L6.9,57.7L6.9,57.7z
			 M4.9,58.9c0,0.3,0,0.3,0.2,0.5L5,59.5c-0.1-0.1-0.2-0.2-0.3-0.2s-0.3-0.1-0.3-0.1l0.1-0.4l0-1.3c0-0.3,0-0.3-0.2-0.4l-0.4,0.5
			c-0.1,0.2-0.3,0.5-0.4,0.7c0,0.2,0.1,0.2,0.3,0.3l-0.1,0.1c-0.2-0.1-0.3-0.2-0.5-0.3C3,58,2.8,57.9,2.6,57.8l0.1-0.1
			c0.2,0.1,0.3,0.2,0.4,0.1c0.2-0.2,0.4-0.4,0.5-0.6l0.9-1.3c0.1-0.2,0.3-0.4,0.4-0.6C4.9,55.1,4.7,55,4.6,55l0-0.2
			C4.8,55,5,55.1,5.3,55.3c0.2,0.1,0.3,0.2,0.4,0.3c0.4,0.3,0.8,0.7,0.4,1.3c-0.2,0.4-0.8,0.6-1.2,0.4c0,0,0,0-0.1,0L4.9,58.9
			L4.9,58.9z M29,60l-0.7-1.3l-0.2,1.4L29,60L29,60z M18.2,62.4c0.1,0.2,0.1,0.4,0.2,0.6s0.3,0.2,0.4,0.2c0.3-0.1,0.5-0.5,0.4-0.8
			c0,0,0,0,0,0c0-0.3-0.1-0.5-0.4-0.6c-0.2,0-0.4,0-0.6,0l-0.2,0L18.2,62.4L18.2,62.4z M18.1,61.5L18.1,61.5
			c0.2-0.1,0.4-0.1,0.5-0.2c0.1-0.2,0.2-0.4,0.1-0.7c-0.1-0.4-0.3-0.6-0.6-0.6c-0.1,0.1-0.2,0.1-0.3,0.1c0,0,0,0.2,0,0.2L18.1,61.5
			L18.1,61.5z M15.5,62.8c0,0.2,0.1,0.4,0.2,0.7c0.1,0.2,0.3,0.2,0.4,0.1c0.4,0,0.6-0.3,0.5-0.8c-0.1-0.2-0.2-0.5-0.4-0.6
			c-0.2-0.1-0.4-0.1-0.7,0h-0.1L15.5,62.8L15.5,62.8z M15.3,61.9l0.2-0.1c0.2,0,0.3,0,0.4-0.2c0.1-0.2,0.2-0.4,0.1-0.6
			c-0.1-0.4-0.3-0.6-0.7-0.6c-0.1,0-0.2,0-0.2,0.1v0.2L15.3,61.9L15.3,61.9z M27.9,60.5c0,0.2-0.1,0.7-0.1,0.8
			c0,0.2,0.3,0.2,0.4,0.2v0.2c-0.2,0-0.3,0-0.5,0c-0.2,0.1-0.3,0.1-0.5,0.1v-0.1c0.2,0,0.4-0.2,0.4-0.4c0.1-0.4,0.1-0.7,0.1-1.1
			l0.4-2.2h0.2l1.3,2.5c0.1,0.2,0.3,0.4,0.3,0.6c0.1,0.1,0.3,0.1,0.4,0.1v0.2c-0.2,0-0.4,0-0.6,0.1c-0.2,0-0.5,0.1-0.7,0.1v-0.1
			c0.1-0.1,0.3-0.1,0.2-0.3c0-0.1-0.1-0.2-0.1-0.3L29,60.1l-1.1,0.2L27.9,60.5L27.9,60.5z M26.4,58.4L26.4,58.4l0.3,1.1h-0.1
			c-0.2-0.6-0.6-1-1.1-0.9c-0.8,0.1-0.9,1.1-0.8,1.9c0.2,0.8,0.5,1.6,1.4,1.5c0.6-0.2,0.7-0.7,0.7-1.3l0.1-0.1l0.2,1.2l-0.2-0.2
			c-0.2,0.3-0.5,0.5-0.9,0.5c-0.9,0.1-1.7-0.5-1.8-1.3c0-0.1,0-0.1,0-0.2c-0.1-1.1,0.4-2,1.3-2.1c0.3-0.1,0.7,0,1,0.1L26.4,58.4
			L26.4,58.4z M23,60c0-0.2-0.1-0.5-0.1-0.7c-0.1-0.1-0.3-0.2-0.4-0.2l-0.1-0.1c0.2-0.1,0.4-0.1,0.7-0.1c0.2,0,0.5-0.1,0.7-0.1V59
			c-0.1,0-0.3,0.1-0.3,0.3c0,0.2,0,0.4,0.1,0.7l0.2,1.6c0,0.2,0.1,0.4,0.2,0.6c0.1,0.2,0.3,0.2,0.4,0.2v0.2l-0.7,0
			c-0.2,0.1-0.4,0.1-0.7,0.1v-0.1c0.2,0,0.3,0,0.3-0.3c0.1-0.2,0-0.5,0-0.7L23,60L23,60z M20.2,60.5c0-0.2-0.1-0.6-0.1-0.7
			c-0.1-0.1-0.3-0.2-0.4-0.1c0,0,0,0,0,0l-0.1-0.2c0.2,0,0.4,0,0.7-0.1c0.2,0,0.4,0,0.7-0.1l0.1,0.2c-0.2,0-0.3,0-0.4,0.2
			c0,0.2,0.1,0.6,0.1,0.7l0.2,1.5c0.1,0.7,0.3,0.8,0.8,0.7c0.2-0.1,0.4-0.1,0.6-0.3c0.1-0.2,0.2-0.4,0.1-0.7l0.2-0.1l0.1,1l-0.2,0
			c-0.7,0.1-1.6,0.3-2.3,0.4V63c0.2-0.1,0.3-0.1,0.3-0.3c0-0.2,0-0.5,0-0.7L20.2,60.5L20.2,60.5z M17.5,61c0-0.2-0.1-0.5-0.2-0.7
			c-0.1-0.2-0.2-0.2-0.4-0.1v-0.1c0.2-0.1,0.4-0.1,0.7-0.1c0.2,0,0.3-0.1,0.5-0.1c0.5-0.1,1.1,0,1.2,0.6c0.1,0.5-0.2,0.7-0.6,0.9
			c0.2,0,0.5,0,0.7,0.1c0.2,0.2,0.4,0.4,0.5,0.6c0.1,0.5-0.3,1-0.9,1.1c-0.1,0-0.2,0-0.2,0c-0.1,0.1-0.3,0.1-0.5,0.1
			c-0.3,0-0.5,0.1-0.7,0.2v-0.2c0.1,0,0.3,0,0.3-0.3c0-0.2-0.1-0.5-0.1-0.7L17.5,61L17.5,61z M14.8,61.5c0-0.2-0.1-0.6-0.1-0.7
			c-0.1-0.2-0.3-0.2-0.4-0.1v-0.2c0.2,0,0.4,0,0.6-0.1c0.2,0,0.4,0,0.6-0.1c0.5-0.2,1,0.1,1.1,0.5c0,0.1,0,0.1,0,0.2
			c0.1,0.4-0.1,0.8-0.5,0.9c0.2,0,0.4,0,0.7,0.1c0.3,0.1,0.4,0.4,0.4,0.7c0.1,0.3-0.1,0.6-0.3,0.8c-0.2,0.2-0.5,0.3-0.7,0.3
			c-0.2,0-0.4,0-0.6,0.1c-0.3,0-0.5,0.1-0.8,0.1v-0.1c0.2-0.1,0.3-0.1,0.4-0.3c0-0.2-0.1-0.6-0.1-0.7L14.8,61.5L14.8,61.5z
			 M42.7,61.9l-0.2-1.5l-0.7,1.3L42.7,61.9L42.7,61.9z M48.3,61.5c0-0.2-0.1-0.6-0.1-0.7c-0.1-0.3-0.3-0.2-0.4-0.2v-0.2h0.7
			c0.2,0,0.4-0.1,0.7-0.1v0.2c-0.2,0-0.3,0-0.4,0.2v0.8l0.2,1.5c0,0.3,0,0.5,0.1,0.8c0.1,0.2,0.2,0.2,0.4,0.2V64h-0.7
			c-0.2,0.1-0.4,0.1-0.7,0.1V64c0.1,0,0.3,0,0.3-0.2c0-0.2,0-0.4,0-0.7L48.3,61.5L48.3,61.5z M45,61.2c0-0.2,0.1-0.6,0.1-0.8
			c-0.1-0.2-0.2-0.3-0.4-0.3l0.1-0.1c0.2,0,0.4,0.1,0.6,0.1c0.2,0.1,0.5,0.1,0.7,0.1L46,60.5c-0.1,0-0.3-0.1-0.4,0.1
			s-0.1,0.6-0.2,0.8l-0.2,1.6c-0.1,0.7,0,0.8,0.5,0.9c0.3,0,0.5,0.1,0.7,0c0.3-0.2,0.3-0.3,0.4-0.7h0.2l-0.2,1
			c0-0.1-0.2-0.1-0.2-0.1c-0.8-0.2-1.6-0.3-2.4-0.4v-0.1c0.2,0,0.4,0,0.5-0.2c0-0.2,0.1-0.5,0.2-0.7L45,61.2L45,61.2z M41.5,62.1
			c-0.1,0.2-0.2,0.6-0.3,0.8c0,0.2,0.2,0.2,0.3,0.3v0.1c-0.2,0-0.3-0.1-0.5-0.1s-0.3-0.1-0.5-0.1l0.1-0.1c0.2,0,0.3-0.1,0.5-0.3
			c0.2-0.3,0.3-0.7,0.5-1l1-2l0.2,0.1l0.5,2.8c0.1,0.2,0.1,0.5,0.2,0.7s0.2,0.2,0.3,0.3v0.1c-0.2,0-0.4-0.1-0.7-0.1
			c-0.2-0.1-0.4-0.1-0.7-0.1l0.1-0.2c0.1,0,0.3,0.1,0.3-0.1v-0.5l-0.1-0.6l-1.2-0.2L41.5,62.1L41.5,62.1z M41.2,60.4L41.2,60.4
			c0-0.6-0.2-0.8-0.6-0.8c-0.2,0-0.5-0.1-0.5,0.1l-0.4,2.6c0,0.4,0,0.5,0.4,0.7v0.1c-0.3,0-0.5-0.1-0.7-0.2c-0.3,0-0.5,0-0.8-0.1
			v-0.1c0.5,0,0.6-0.1,0.7-0.5l0.3-2.6c0.1-0.1-0.2-0.2-0.3-0.2c-0.5-0.1-0.7-0.1-0.7,0.6l-0.2-0.1l0.2-0.8l2.8,0.5L41.2,60.4
			L41.2,60.4z M37,59.8c0-0.2,0-0.4,0-0.7c0-0.2-0.2-0.3-0.3-0.3v-0.2c0.2,0.1,0.4,0.1,0.7,0.2c0.3,0,0.5,0.1,0.7,0.1L38,59
			c-0.1,0-0.3,0-0.4,0.2s-0.1,0.5-0.2,0.7l-0.2,1.6c-0.1,0.2-0.1,0.4-0.1,0.7c0,0.2,0.2,0.2,0.3,0.2v0.2c-0.2-0.1-0.4-0.1-0.7-0.2
			c-0.2,0-0.5,0-0.7-0.1v-0.1c0.2,0,0.3,0,0.4-0.2c0.1-0.2,0.2-0.4,0.2-0.7L37,59.8L37,59.8z M57.1,57.3l-1.2-0.8l0.5,1.4L57.1,57.3
			L57.1,57.3z M51.5,61.3l-1.1-1l0.3,1.4L51.5,61.3L51.5,61.3z M56.4,58.2c0,0.3,0.1,0.6,0.3,0.8c0.2,0.2,0.3,0,0.4-0.1l0.1,0.2
			c-0.1,0.1-0.3,0.2-0.4,0.3c-0.1,0.1-0.3,0.2-0.3,0.3l-0.1-0.2c0.2-0.2,0.2-0.2,0.2-0.5c-0.1-0.4-0.2-0.7-0.3-1.1l-0.7-2.2l0.1-0.1
			l2.4,1.7c0.1,0.1,0.3,0.3,0.5,0.3c0.2,0.1,0.4,0,0.5-0.1v0.2c-0.2,0.1-0.4,0.2-0.5,0.3c-0.2,0.2-0.3,0.3-0.5,0.4l-0.1-0.1
			c0.1-0.1,0.2-0.3,0.2-0.4c-0.1-0.1-0.2-0.2-0.3-0.2l-0.5-0.3L56.4,58.2L56.4,58.2L56.4,58.2z M52.2,58.8c-0.2-0.1-0.4-0.1-0.6,0.1
			l-0.1-0.2c0.2-0.1,0.2-0.1,0.3-0.2c0.1,0,0.2-0.1,0.3-0.2l3.2,1.1l-0.9-1.3c-0.2-0.2-0.3-0.5-0.5-0.7c-0.2-0.2-0.3-0.1-0.6,0
			l-0.1-0.1c0.2-0.1,0.3-0.2,0.5-0.3c0.1-0.2,0.2-0.3,0.3-0.3l0.1,0.1c-0.1,0.2-0.3,0.2-0.2,0.4c0.1,0.2,0.4,0.6,0.6,0.8l1.3,1.8
			L56,60.1c-0.2,0-0.3-0.1-0.5-0.2l-3-1l1.1,1.5c0.1,0.2,0.3,0.4,0.5,0.6c0.2,0.1,0.3,0,0.5-0.1V61c-0.1,0.2-0.2,0.3-0.4,0.3
			c-0.2,0.1-0.3,0.2-0.4,0.3l-0.1-0.1c0.2-0.2,0.2-0.3,0.2-0.5c-0.1-0.2-0.3-0.4-0.4-0.6L52.2,58.8L52.2,58.8z M50.7,62.2
			c0,0.3,0.1,0.6,0.2,0.8c0.1,0.2,0.3,0.1,0.4,0l0.1,0.1c-0.2,0.1-0.2,0.2-0.4,0.3c-0.1,0.1-0.3,0.1-0.4,0.2l-0.1-0.1
			c0.2-0.1,0.3-0.4,0.2-0.6c0-0.4-0.1-0.7-0.2-1.1L50,59.6h0.2l2.2,1.9c0.1,0.2,0.3,0.3,0.5,0.4c0.2,0.1,0.3,0,0.4,0l0.1,0.1
			c-0.2,0.1-0.4,0.2-0.6,0.3c-0.2,0.1-0.4,0.2-0.6,0.3l-0.1-0.2c0.2,0,0.3-0.2,0.2-0.3c-0.1-0.1-0.2-0.3-0.3-0.3l-0.4-0.3l-1,0.5
			L50.7,62.2L50.7,62.2z"/>
		<path class="st1" d="M8.2,38.4c-0.2-0.7-0.5-1.5-0.6-1.7l0-0.2l1.9-1.1c-0.2-0.9-0.3-1.8-0.4-2.7L7,32.3l0-0.2c0-0.5,0-2.4,0-2.8
			l0-0.2l2.2-0.4c0.1-0.9,0.2-1.8,0.4-2.7l-1.1-0.6l0.7-0.1l0.8,0.5l0,0.2c-0.2,1-0.4,1.9-0.5,2.9l0,0.2l-2.1,0.4c0,0.6,0,1.9,0,2.5
			l2.1,0.4l0,0.2c0.1,1,0.2,2,0.5,2.9l0,0.2l-1.9,1.1c0.1,0.3,0.2,0.8,0.4,1.2L8.2,38.4z M12.1,44.7c0.2,0.3,0.4,0.5,0.5,0.7l2-0.9
			l0.1,0.1c0.7,0.7,1.4,1.4,2.1,2.1l0.1,0.1l-0.9,2c0.4,0.3,1.5,1.1,2,1.4l1.6-1.5l0.1,0.1c0.9,0.5,1.7,1,2.7,1.3l0.1,0.1l-0.2,2.2
			c0.5,0.2,1.8,0.6,2.3,0.8l1.1-1.9l0.2,0c1,0.2,2,0.4,2.9,0.5l0.2,0l0.4,2.1c0.3,0,0.7,0,1.2,0s1,0,1.2,0l0.4-2.1l0.2,0
			c1-0.1,2-0.2,2.9-0.5l0.2,0l1.1,1.9c0.6-0.2,1.8-0.6,2.3-0.8l-0.2-2.2l0.1-0.1c0.9-0.4,1.8-0.8,2.6-1.4l0.1-0.1l1.6,1.5
			c0.5-0.3,1.5-1.1,2-1.4l-0.9-2l0.1-0.1c0.8-0.6,1.5-1.4,2.1-2.1l0.1-0.1l2,0.9c0.3-0.4,1.1-1.5,1.4-2l-1.5-1.6l0.1-0.1
			c0.5-0.9,1-1.7,1.3-2.6l0.1-0.1l2.2,0.2c0.2-0.5,0.6-1.8,0.7-2.3L51,35.6l0-0.2c0.2-1,0.4-1.9,0.5-2.9l0-0.2l2.1-0.4
			c0-0.6,0-1.9,0-2.4l-2.1-0.4l0-0.2c-0.1-1-0.2-2-0.5-2.9l0-0.2l1.9-1.1c-0.2-0.5-0.6-1.8-0.7-2.3L50,22.7l-0.1-0.1
			c-0.4-0.9-0.8-1.8-1.3-2.7l-0.1-0.1l1.5-1.6c-0.3-0.5-1.1-1.5-1.4-2l-2,0.9l-0.1-0.1c-0.7-0.8-1.4-1.5-2.1-2.1l-0.1-0.1l0.9-2
			c-0.4-0.3-1.5-1.1-2-1.4l-1.6,1.5l-0.1-0.1c-0.9-0.5-1.7-1-2.7-1.3l-0.1-0.1l0.2-2.2c-0.5-0.2-1.8-0.6-2.3-0.8l-1.1,1.9l-0.2,0
			c-1-0.2-1.9-0.4-2.9-0.5l-0.2,0l-0.4-2.1c-0.3,0-0.7,0-1.2,0s-1,0-1.2,0l-0.4,2.1l-0.2,0c-1,0.1-2,0.2-2.9,0.5l-0.2,0l-1.1-1.9
			c-0.5,0.2-1.8,0.6-2.3,0.8l0.2,2.2l-0.1,0.1c-0.9,0.4-1.8,0.8-2.6,1.3l-0.1,0.1l-1.6-1.5c-0.2,0.2-0.6,0.4-1,0.7l0.1-0.6
			c0.3-0.2,0.6-0.5,0.8-0.6l0.1-0.1l1.6,1.5c0.8-0.5,1.6-0.9,2.4-1.2l-0.2-2.2l0.1-0.1c0.4-0.2,2.2-0.8,2.7-0.9l0.2,0l1.1,1.9
			c0.9-0.2,1.8-0.3,2.7-0.4l0.4-2.1l0.2,0h0l0.1,0h0h0h0.2c0.3,0,0.7,0,1,0c0.5,0,1.2,0,1.4,0l0.2,0l0.4,2.1
			c0.9,0.1,1.8,0.2,2.7,0.4l1.1-1.9l0.2,0c0.5,0.1,2.3,0.7,2.7,0.9l0.1,0.1L39,11c0.8,0.4,1.6,0.8,2.4,1.2l1.6-1.5l0.1,0.1
			c0.4,0.3,1.9,1.4,2.3,1.7l0.1,0.1l-0.9,2c0.7,0.6,1.3,1.2,1.9,1.9l2-0.9l0.1,0.1c0.3,0.4,1.4,1.9,1.7,2.3l0.1,0.1L49,19.8
			c0.5,0.8,0.9,1.6,1.2,2.4l2.2-0.3l0.1,0.2c0.2,0.4,0.7,2.2,0.9,2.7l0,0.2L51.5,26c0.2,0.9,0.3,1.8,0.4,2.7l2.1,0.4l0,0.2
			c0,0.5,0,2.4,0,2.8l0,0.2l-2.1,0.4c-0.1,0.9-0.2,1.8-0.4,2.7l1.9,1.1l0,0.2c-0.1,0.5-0.7,2.3-0.9,2.7l-0.1,0.2l-2.2-0.2
			c-0.4,0.8-0.8,1.6-1.2,2.4l1.5,1.6l-0.1,0.1c-0.3,0.4-1.4,1.9-1.7,2.3l-0.1,0.1l-2-0.9c-0.6,0.7-1.2,1.3-1.9,1.9l0.9,2l-0.1,0.1
			c-0.4,0.3-1.9,1.4-2.3,1.7l-0.1,0.1l-1.6-1.5c-0.8,0.5-1.6,0.9-2.4,1.2l0.2,2.2l-0.2,0.1c-0.4,0.2-2.2,0.7-2.7,0.9l-0.2,0
			l-1.1-1.9c-0.9,0.2-1.8,0.3-2.7,0.4l-0.4,2.1l-0.2,0c-0.3,0-0.9,0-1.4,0s-1.1,0-1.4,0l-0.2,0l-0.4-2.2c-0.9-0.1-1.8-0.2-2.7-0.4
			l-1.1,1.9l-0.2,0c-0.4-0.1-2.2-0.7-2.7-0.9l-0.2-0.1l0.2-2.2c-0.8-0.4-1.6-0.8-2.4-1.2L18,50.7l-0.1-0.1c-0.4-0.3-1.9-1.4-2.3-1.7
			l-0.1-0.1l0.9-2c-0.7-0.6-1.3-1.2-1.9-1.9l-2,0.9l-0.1-0.1c-0.1-0.1-0.3-0.4-0.5-0.7L12.1,44.7z"/>
		<path class="st1" d="M30.5,48.1c-2.5,0-5-0.5-7.2-1.6l-0.3-0.1l7.6-9.5l7.4,9.6l-0.3,0.1C35.4,47.5,33,48.1,30.5,48.1z M23.8,46.1
			c2.1,0.9,4.4,1.4,6.7,1.4c2.3,0,4.5-0.5,6.6-1.3l-6.6-8.5L23.8,46.1z M43,42.8l-6.7-10.1l11.4-4.1l0,0.3c0.5,5-1.1,10-4.5,13.6
			L43,42.8z M37.1,32.9l6,9c3.1-3.5,4.6-8,4.2-12.6L37.1,32.9z M17.9,42.6l-0.2-0.3c-3.4-3.7-4.9-8.7-4.4-13.7l0-0.3l11.4,4.2
			L17.9,42.6z M13.8,29.1c-0.4,4.6,1,9.2,4,12.7l6.1-8.9L13.8,29.1z M34.1,25.8l-0.3-12.1l0.3,0.1c4.9,1,9.1,4.1,11.6,8.5l0.2,0.3
			L34.1,25.8z M34.3,14.4l0.3,10.8L45,22.2C42.7,18.3,38.8,15.4,34.3,14.4L34.3,14.4z M27,25.8l-11.6-3.4l0.2-0.3
			c2.5-4.3,6.7-7.4,11.7-8.4l0.3-0.1L27,25.8z M16.1,22.1l10.3,3l0.5-10.8C22.4,15.3,18.5,18.1,16.1,22.1L16.1,22.1z"/>
		<path class="st1" d="M30.5,15l-3.7,10.4l-0.1,0.2h-0.2l-11.1,0.3l8.8,6.7l0.1,0.1l0,0.2l-3.2,10.6l9.1-6.3l0.1-0.1l0.1,0.1
			l9.1,6.3l-3.2-10.6l0-0.2l0.1-0.1l8.8-6.7l-11.1-0.3h-0.2l-0.1-0.2L30.5,15z M26.4,25.1l3.8-11l0.2-0.7l0.2,0.7l3.9,11l11.6,0.3
			l0.7,0l-0.6,0.4l-9.2,7.1L40.5,44l0.2,0.7l-0.6-0.4l-9.6-6.6L21,44.3l-0.6,0.4l0.2-0.7l3.3-11.2l-9.2-7l-0.6-0.4l0.7,0L26.4,25.1
			L26.4,25.1z"/>
		<polygon class="st1" points="10.1,48.4 10.1,48.4 10.1,48.4 		"/>
		<polygon class="st1" points="9.1,46.3 10.1,48.4 10.1,48.4 		"/>
	</g>
</g>
</svg>
