<svg xmlns="http://www.w3.org/2000/svg" width="400" height="53.803" viewBox="0 0 400 53.803"><title>spid</title><g id="a6103e3f-d608-48bf-b33b-6869ec97b390" data-name="Contenuti"><path d="M198.223,40.373l7.944-32.2h10.387l7.991,32.2h-5.264l-1.739-6.91H205.179l-1.739,6.91Zm11.986-27.825-3.995,16.309h10.293l-3.948-16.309Z" fill="#44484a"/><path d="M248.7,43.569q0,7.707-11.14,7.708-5.358,0-7.943-1.458t-2.585-5.311a5.177,5.177,0,0,1,.846-2.984,12.622,12.622,0,0,1,2.725-2.7,3.819,3.819,0,0,1-1.551-3.432,7.264,7.264,0,0,1,1.269-3.055l.423-.7q-3.383-2.019-3.383-7.05,0-4.23,2.537-6.2a10.9,10.9,0,0,1,6.863-1.974,18.047,18.047,0,0,1,4.088.47l.7.141,7.286-.187V20.96l-3.9-.235a6.131,6.131,0,0,1,1.269,3.855q0,4.608-2.326,6.368t-7.262,1.763a9.632,9.632,0,0,1-2.069-.188,7.143,7.143,0,0,0-.658,2.468,1.2,1.2,0,0,0,.87,1.2,16.4,16.4,0,0,0,4.207.377q5.592.047,7.661,1.5T248.7,43.569Zm-16.639.47a2.457,2.457,0,0,0,1.316,2.35,10.313,10.313,0,0,0,4.513.7q5.685,0,5.687-3.243,0-1.834-1.01-2.326a11.011,11.011,0,0,0-4.019-.541l-4.606-.282a6.166,6.166,0,0,0-1.458,1.574A3.462,3.462,0,0,0,232.065,44.039Zm1.409-16.286a4.651,4.651,0,0,0,3.338,1.01,4.558,4.558,0,0,0,3.313-1.01,4.33,4.33,0,0,0,1.01-3.173,4.276,4.276,0,0,0-1.033-3.173,4.647,4.647,0,0,0-3.337-1.011q-4.325,0-4.325,4.184A4.27,4.27,0,0,0,233.474,27.753Z" fill="#44484a"/><path d="M253.451,40.373V8.176h5.217v32.2Z" fill="#44484a"/><path d="M277.233,40.373h-11.14V8.176h11.14q7.426,0,10.152,3.76t2.727,11.8a37.856,37.856,0,0,1-.541,6.933,15.845,15.845,0,0,1-1.9,5.147Q284.987,40.373,277.233,40.373Zm7.473-16.639q0-5.827-1.458-8.414t-6.015-2.585h-5.922V35.766h5.922q4.653,0,6.2-3.432a13.793,13.793,0,0,0,1.01-3.713A38.435,38.435,0,0,0,284.706,23.734Z" fill="#44484a"/><path d="M299.261,20.825,302.7,8.282h3.045l3.444,12.543h-1.376L306.91,17.6h-5.365l-.906,3.226Zm4.495-11.347-1.9,6.87H306.6l-1.9-6.87Z" fill="#44484a"/><path d="M314.45,25.085a5.667,5.667,0,0,1-3.036-.59,2.419,2.419,0,0,1-.861-2.148,2.041,2.041,0,0,1,.327-1.205,5.06,5.06,0,0,1,1.105-1.042,1.4,1.4,0,0,1-.507-1.251,3.109,3.109,0,0,1,.453-1.142l.163-.29a2.69,2.69,0,0,1-1.432-2.737q0-3.1,3.39-3.1a6.777,6.777,0,0,1,1.613.181l.272.054,2.682-.072V12.9l-1.721-.036a2.465,2.465,0,0,1,.6,1.813,2.9,2.9,0,0,1-.843,2.383,4.211,4.211,0,0,1-2.655.68,5.01,5.01,0,0,1-.888-.072,3.837,3.837,0,0,0-.327,1.033c0,.375.116.608.345.7a8.577,8.577,0,0,0,2.084.136,4.41,4.41,0,0,1,2.5.544,2.461,2.461,0,0,1,.76,2.121Q318.473,25.085,314.45,25.085Zm-2.555-2.846a1.509,1.509,0,0,0,.535,1.332,3.7,3.7,0,0,0,1.976.372,4.007,4.007,0,0,0,2.066-.4,1.457,1.457,0,0,0,.625-1.332q0-.934-.453-1.205a3.873,3.873,0,0,0-1.775-.272l-1.958-.091a3.2,3.2,0,0,0-.807.761A1.529,1.529,0,0,0,311.895,22.239Zm.127-7.558a2.023,2.023,0,0,0,.48,1.522,2.271,2.271,0,0,0,1.586.453,2.233,2.233,0,0,0,1.577-.453,2.062,2.062,0,0,0,.471-1.531,2.065,2.065,0,0,0-.471-1.532,2.959,2.959,0,0,0-3.162.009A2.058,2.058,0,0,0,312.021,14.68Z" fill="#44484a"/><path d="M326.612,19.7l.525-.054.038,1.07a26.128,26.128,0,0,1-3.536.29,3.185,3.185,0,0,1-2.772-1.133,6.073,6.073,0,0,1-.816-3.525q0-4.767,3.788-4.767a3.466,3.466,0,0,1,2.736,1.024,4.764,4.764,0,0,1,.906,3.217l-.072,1.034h-5.981a3.713,3.713,0,0,0,.544,2.229,2.223,2.223,0,0,0,1.894.725Q325.215,19.81,326.612,19.7Zm-.489-3.933a3.935,3.935,0,0,0-.535-2.356,2.069,2.069,0,0,0-1.739-.688,2.23,2.23,0,0,0-1.813.725,3.657,3.657,0,0,0-.625,2.32Z" fill="#44484a"/><path d="M331.143,20.825h-1.358V11.762h1.34V12.4a5.8,5.8,0,0,1,2.81-.815,2.678,2.678,0,0,1,2.438.979A6.906,6.906,0,0,1,337,16.04v4.785h-1.342V16.076a6.132,6.132,0,0,0-.372-2.582,1.632,1.632,0,0,0-1.586-.7,4.724,4.724,0,0,0-1.224.173,6.116,6.116,0,0,0-.988.335l-.345.163Z" fill="#44484a"/><path d="M339.155,12.977V11.762h6.723v1.214L340.8,19.61h5.074v1.214h-6.723V19.61l5.074-6.634Z" fill="#44484a"/><path d="M348.126,9.714V8.137h1.358V9.714Zm0,11.111V11.762h1.358v9.063Z" fill="#44484a"/><path d="M358.676,14.5v4.64q.054.671,1.051.8l-.054,1.07a2.929,2.929,0,0,1-2.158-.725,7.97,7.97,0,0,1-3.262.725,2.462,2.462,0,0,1-1.9-.707,2.887,2.887,0,0,1-.653-2.03,2.547,2.547,0,0,1,.672-1.949,3.561,3.561,0,0,1,2.1-.77l2.846-.272V14.5a1.823,1.823,0,0,0-.4-1.324,1.471,1.471,0,0,0-1.087-.4,25.976,25.976,0,0,0-3.009.181l-.562.054-.054-1.033a18.269,18.269,0,0,1,3.534-.4,3.04,3.04,0,0,1,2.238.707A3.044,3.044,0,0,1,358.676,14.5Zm-5.583,3.7q0,1.668,1.378,1.668a7.309,7.309,0,0,0,2.429-.417l.417-.144V16.311l-2.682.254a1.754,1.754,0,0,0-1.179.471A1.667,1.667,0,0,0,353.092,18.2Z" fill="#44484a"/><path d="M365.708,24.849V11.762h1.34v.652a5.23,5.23,0,0,1,2.719-.833,2.858,2.858,0,0,1,2.5,1.1,6.411,6.411,0,0,1,.78,3.616,5.655,5.655,0,0,1-.916,3.616,3.749,3.749,0,0,1-3.036,1.1,9.684,9.684,0,0,1-2.031-.2v4.042ZM369.568,12.8a4.2,4.2,0,0,0-1.17.181,6.079,6.079,0,0,0-.988.362l-.345.181v6.108a13.871,13.871,0,0,0,1.959.2,2.345,2.345,0,0,0,2.057-.834,4.833,4.833,0,0,0,.589-2.719,5.029,5.029,0,0,0-.535-2.683A1.768,1.768,0,0,0,369.568,12.8Z" fill="#44484a"/><path d="M381.6,19.7l.525-.054.038,1.07a26.129,26.129,0,0,1-3.536.29,3.186,3.186,0,0,1-2.772-1.133,6.073,6.073,0,0,1-.816-3.525q0-4.767,3.789-4.767a3.466,3.466,0,0,1,2.736,1.024,4.764,4.764,0,0,1,.906,3.217l-.072,1.034H376.42a3.714,3.714,0,0,0,.544,2.229,2.224,2.224,0,0,0,1.894.725Q380.206,19.81,381.6,19.7Zm-.489-3.933a3.936,3.936,0,0,0-.534-2.356,2.069,2.069,0,0,0-1.739-.688,2.23,2.23,0,0,0-1.813.725,3.657,3.657,0,0,0-.625,2.32Z" fill="#44484a"/><path d="M384.775,20.825V11.762h1.34v1.232a8.843,8.843,0,0,1,3.317-1.432V12.94a9.875,9.875,0,0,0-1.586.453,10.54,10.54,0,0,0-1.26.544l-.453.236v6.652Z" fill="#44484a"/><path d="M300.211,40.288V27.274h1.333V40.288Z" fill="#44484a"/><path d="M303.693,31.425l.781-3.97h1.4l-1.137,3.97Z" fill="#44484a"/><path d="M307.921,40.288V27.745h1.367V40.288Z" fill="#44484a"/><path d="M316.483,32.4h-2.825v4.332a5.975,5.975,0,0,0,.221,2.048q.223.49,1.057.489l1.581-.108.089,1.123a11.939,11.939,0,0,1-1.811.2,2.3,2.3,0,0,1-1.918-.688,4.565,4.565,0,0,1-.533-2.628V32.4h-1.26V31.225h1.26V28.453h1.314v2.772h2.825Z" fill="#44484a"/><path d="M324.209,33.963V38.6q.052.671,1.03.8l-.054,1.069a2.829,2.829,0,0,1-2.113-.724,7.687,7.687,0,0,1-3.2.724,2.385,2.385,0,0,1-1.864-.706,2.917,2.917,0,0,1-.64-2.03,2.577,2.577,0,0,1,.657-1.949,3.441,3.441,0,0,1,2.061-.771l2.789-.271v-.78a1.851,1.851,0,0,0-.391-1.324,1.427,1.427,0,0,0-1.066-.4,25.108,25.108,0,0,0-2.948.182l-.55.054-.054-1.033a17.5,17.5,0,0,1,3.465-.4,2.938,2.938,0,0,1,2.192.706A3.084,3.084,0,0,1,324.209,33.963Zm-5.472,3.7q0,1.667,1.351,1.667a7.042,7.042,0,0,0,2.379-.417l.41-.145v-2.99l-2.629.253a1.435,1.435,0,0,0-1.51,1.632Z" fill="#44484a"/><path d="M326.766,40.288V27.274H328.1V40.288Z" fill="#44484a"/><path d="M330.584,29.177V27.6h1.333v1.577Zm0,11.111V31.225h1.333v9.063Z" fill="#44484a"/><path d="M340.569,33.963V38.6q.052.671,1.03.8l-.054,1.069a2.83,2.83,0,0,1-2.113-.724,7.687,7.687,0,0,1-3.2.724,2.385,2.385,0,0,1-1.864-.706,2.918,2.918,0,0,1-.64-2.03,2.577,2.577,0,0,1,.657-1.949,3.44,3.44,0,0,1,2.061-.771l2.789-.271v-.78a1.852,1.852,0,0,0-.391-1.324,1.428,1.428,0,0,0-1.066-.4,25.112,25.112,0,0,0-2.948.182l-.55.054-.054-1.033a17.507,17.507,0,0,1,3.465-.4,2.939,2.939,0,0,1,2.192.706A3.084,3.084,0,0,1,340.569,33.963Zm-5.472,3.7q0,1.667,1.351,1.667a7.041,7.041,0,0,0,2.379-.417l.41-.145v-2.99l-2.629.253a1.435,1.435,0,0,0-1.51,1.632Z" fill="#44484a"/><path d="M351.367,40.288H346.98V27.745h4.386a3.86,3.86,0,0,1,3.98,2.429,9.852,9.852,0,0,1,.568,3.662q0,4.73-2.308,5.963A4.725,4.725,0,0,1,351.367,40.288Zm3.144-6.452q0-3.607-1.58-4.495a3.127,3.127,0,0,0-1.564-.364h-3.019V39.055h3.019Q354.511,39.055,354.511,33.836Z" fill="#44484a"/><path d="M358.028,29.177V27.6h1.333v1.577Zm0,11.111V31.225h1.333v9.063Z" fill="#44484a"/><path d="M365.169,44.548a5.48,5.48,0,0,1-2.975-.589,2.449,2.449,0,0,1-.843-2.149,2.078,2.078,0,0,1,.319-1.2,4.993,4.993,0,0,1,1.084-1.042,1.417,1.417,0,0,1-.5-1.251,3.177,3.177,0,0,1,.444-1.141l.161-.29a2.7,2.7,0,0,1-1.4-2.737q0-3.1,3.322-3.1a6.545,6.545,0,0,1,1.58.181l.267.054,2.629-.072v1.161l-1.686-.036a2.5,2.5,0,0,1,.586,1.811,2.939,2.939,0,0,1-.827,2.384,4.062,4.062,0,0,1-2.6.681,4.67,4.67,0,0,1-.87-.074,3.892,3.892,0,0,0-.319,1.034c0,.373.111.607.337.7a8.3,8.3,0,0,0,2.043.136,4.255,4.255,0,0,1,2.45.544,2.489,2.489,0,0,1,.747,2.122Q369.112,44.548,365.169,44.548Zm-2.5-2.846a1.528,1.528,0,0,0,.524,1.333,3.581,3.581,0,0,0,1.936.37,3.864,3.864,0,0,0,2.024-.4,1.468,1.468,0,0,0,.613-1.333c0-.623-.148-1.024-.444-1.206a3.741,3.741,0,0,0-1.741-.271l-1.918-.09a3.2,3.2,0,0,0-.791.76A1.556,1.556,0,0,0,362.664,41.7Zm.124-7.559a2.045,2.045,0,0,0,.471,1.522,2.191,2.191,0,0,0,1.554.453,2.155,2.155,0,0,0,1.545-.453,2.086,2.086,0,0,0,.462-1.531,2.091,2.091,0,0,0-.462-1.531,2.852,2.852,0,0,0-3.1.009A2.083,2.083,0,0,0,362.788,34.143Z" fill="#44484a"/><path d="M370.692,29.177V27.6h1.333v1.577Zm0,11.111V31.225h1.333v9.063Z" fill="#44484a"/><path d="M379.007,32.4h-2.825v4.332a5.979,5.979,0,0,0,.221,2.048q.223.49,1.057.489l1.581-.108.089,1.123a11.939,11.939,0,0,1-1.811.2A2.3,2.3,0,0,1,375.4,39.8a4.565,4.565,0,0,1-.533-2.628V32.4h-1.26V31.225h1.26V28.453h1.314v2.772h2.825Z" fill="#44484a"/><path d="M386.733,33.963V38.6q.052.671,1.03.8l-.054,1.069a2.829,2.829,0,0,1-2.113-.724,7.687,7.687,0,0,1-3.2.724,2.385,2.385,0,0,1-1.864-.706,2.917,2.917,0,0,1-.64-2.03,2.577,2.577,0,0,1,.657-1.949,3.441,3.441,0,0,1,2.061-.771l2.789-.271v-.78a1.851,1.851,0,0,0-.391-1.324,1.427,1.427,0,0,0-1.066-.4,25.108,25.108,0,0,0-2.948.182l-.55.054-.054-1.033a17.5,17.5,0,0,1,3.465-.4,2.938,2.938,0,0,1,2.192.706A3.084,3.084,0,0,1,386.733,33.963Zm-5.472,3.7q0,1.667,1.351,1.667a7.042,7.042,0,0,0,2.379-.417l.41-.145v-2.99l-2.629.253a1.435,1.435,0,0,0-1.51,1.632Z" fill="#44484a"/><path d="M389.289,40.288V27.274h1.333V40.288Z" fill="#44484a"/><path d="M399.148,39.165l.515-.054.036,1.069a25.079,25.079,0,0,1-3.463.289,3.092,3.092,0,0,1-2.718-1.132,6.178,6.178,0,0,1-.8-3.525q0-4.768,3.712-4.767a3.364,3.364,0,0,1,2.683,1.024A4.843,4.843,0,0,1,400,35.286l-.071,1.033h-5.862a3.767,3.767,0,0,0,.533,2.229,2.158,2.158,0,0,0,1.857.726Q397.781,39.273,399.148,39.165Zm-.479-3.933a4,4,0,0,0-.524-2.356,2.008,2.008,0,0,0-1.706-.69,2.162,2.162,0,0,0-1.775.726,3.7,3.7,0,0,0-.613,2.32Z" fill="#44484a"/><circle cx="46.741" cy="22.939" r="5.73" fill="#44484a"/><path d="M41.246,37.689a5.729,5.729,0,1,1,11.459,0Z" fill="#44484a"/><path d="M15.62,22.416s-5.031-.643-7.385-.643S5.4,22.294,5.4,23.394c0,.935.77,1.132,4.5,1.822,4.706.851,6.369,2.232,6.369,6.329,0,4.743-3.081,6.574-8.153,6.574a50.842,50.842,0,0,1-7.788-.973L.488,32.6s5.031.646,7.1.646c2.6,0,3.288-.525,3.288-1.583,0-.887-.447-1.293-4.179-1.9C2.313,29.031,0,27.976,0,23.514c0-4.707,3.572-6.606,7.83-6.606a52.455,52.455,0,0,1,7.87,1.007Z" fill="#44484a"/><path d="M19.076,17.271h5.4v1.1a11.483,11.483,0,0,1,4.622-1.58c5.359,0,7.993,2.92,7.993,10.464,0,8.64-3,10.793-9.208,10.793a23.48,23.48,0,0,1-3.367-.327v8.359H19.076Zm5.437,5.195V33.1a29.152,29.152,0,0,0,2.96.243c3.246,0,4.1-1.787,4.1-6.086,0-4.1-1.377-5.6-3.528-5.6A10.5,10.5,0,0,0,24.512,22.466Z" fill="#44484a"/><path d="M74.032,37.286h-5.4v-.854a14.553,14.553,0,0,1-4.909,1.346c-6.127,0-7.911-3.578-7.911-10.723,0-7.414,2.88-10.539,8.4-10.539a31.775,31.775,0,0,1,4.377.565V10.626h5.438Zm-5.438-4.995V21.629a26.569,26.569,0,0,0-3.976-.411c-2.027,0-3.285,1.745-3.285,5.838,0,4.144.772,5.85,3.327,5.85A15.8,15.8,0,0,0,68.594,32.291Z" fill="#44484a"/><path d="M75.1,21.182l-3.329,4.626L86.938,37.274s2.4-10.543,7.953-18.309S105.62,8.606,105.62,8.606s-7.12.906-13.874,10.36c-5.151,7.2-6.289,12.2-6.289,12.2Z" fill="#62a871"/><rect x="123.974" width="0.462" height="53.803" fill="#44484a"/><path d="M172.536,35.8c.226,0,.542.114.464.3s-.169.511-.348.531a.588.588,0,0,1-.523-.455.387.387,0,0,1,.407-.381Z" fill="#44484a"/><path d="M152.935,41.939a.791.791,0,0,0,.743,0l-.186-.294-.424-.37c-.231-.122-.416-.009-.558.345l.425.319Z" fill="#44484a"/><path d="M165.621,50.535c-.071.125-.026.249.133.372s.291.151.4.08l-.53-.452Z" fill="#44484a"/><path d="M182.79,26.015q.212-1.434-.292-1.805c-.352-.249-.789-.167-1.3.238q-.452-.237-1.223.452a.823.823,0,0,0,.027-.61,1.8,1.8,0,0,0,.888-.7,2.734,2.734,0,0,0,.2-1.208,5.991,5.991,0,0,1,.926-1.805q.585-1.3-.821-.9a1.849,1.849,0,0,0,.768-1.194,2.07,2.07,0,0,0-.4-1.223c-.124-.282-.31-.336-.559-.158a1.5,1.5,0,0,0,.146-.637,5.023,5.023,0,0,0-.489-1.566c-.053-1.044-.3-1.477-.742-1.3a4.225,4.225,0,0,0-.533-1.566q-.637-.955-1.006-.5-1.037-1.538-1.939-1.274A1.992,1.992,0,0,0,176,9.057a3.445,3.445,0,0,0-.584-1.406c-.318-.125-.541.053-.664.532a4.277,4.277,0,0,0-.37-1.221,1.022,1.022,0,0,0-.929-.664.806.806,0,0,0-.452.08,1.425,1.425,0,0,0-.717-.265q-.9-.955-1.646-.16l-.078-.557q-.267-.983-1.062-.426a8.122,8.122,0,0,0-2.229-1.777c-.514-.178-.85-.132-1.009.133a1.8,1.8,0,0,0-.849-.5c-.3-.071-.583-.149-.849-.238-.407-.018-.583.2-.531.663a2.468,2.468,0,0,0-1.314.333.639.639,0,0,0-.186.783,1.51,1.51,0,0,0,.784.822.8.8,0,0,0-.133.583q.027.4.849.664a2.47,2.47,0,0,0,1.194.027.573.573,0,0,0,.425.769,1.682,1.682,0,0,0,1.912.4l-.08.5,1.034.425a1.2,1.2,0,0,0,.691,1.062l.405.176a1.476,1.476,0,0,0-.473.373c-.084.1-.312.587.242.694a10,10,0,0,0,1.324.083,1.463,1.463,0,0,0,.175.492,3.629,3.629,0,0,0,.569.729,4.1,4.1,0,0,0,1.286.815c-.029.033-.154.378-.27.7a1.557,1.557,0,0,0,.059,1.352c-.059-.03-.312.148-.4.288-.33.512.385,1.244.5,1.5a1.011,1.011,0,0,0-.358.169c-.245.175-.163,1.054.538,1.2a6.548,6.548,0,0,1,1.381.959c.077.081.3.5.623.925.172.226.352.605.772.614a14.329,14.329,0,0,0,1.771,3.584,6.8,6.8,0,0,1,.941,1.443,4.2,4.2,0,0,0-.075.825,13.035,13.035,0,0,1-.461,2.349c-.753-.363-.875.132-.988.617.02-.023-.349-.071-.4.1.033-.3-.453-.553-.673-.4-.006,0-.241.169-.387.282-.05.036-.093-.245-.11-.453a2.429,2.429,0,0,1,.057-.831c.015-.03.191-.244.3-.441a4.7,4.7,0,0,0-.217-2.536.67.67,0,0,0-.407-.447.488.488,0,0,0-.533.3c-.021-.172-.3-.274-.506-.325-.581-.137-1.2.977-1.132,2.015-.422-.336-.979-.229-.911.351.095.813,1.314,2.254,1.352,2.908-.366-.328-1.194-.336-1.194.455a2.534,2.534,0,0,0,.277.824c-.169.843.806,1.462,1.6,2.259-.014.378.114.383.236.529-.144.224-1.036,1.626-1.046,1.659-.044.018-.657-.327-.86-.149a3.2,3.2,0,0,0-.491.6l.109.983a1.656,1.656,0,0,1-.652,1.367,4.148,4.148,0,0,0-1,1.393c-.089.318-.433.664-1.034,1.034a1.648,1.648,0,0,0-.425-.5c-.035-.071-.105-.1-.212-.078a36.4,36.4,0,0,0-3.636,1.756,3.791,3.791,0,0,0-1.351,1.569H162.49a7.966,7.966,0,0,0-.9-.827c-.23-.176-.637-.194-1.221.105a2.079,2.079,0,0,0-1.645.3,1.019,1.019,0,0,1-.742.059l-1.3-1.417q-4.034-1.7-4.405-1.516a1.4,1.4,0,0,0-.584.687,5.016,5.016,0,0,1-1.195-1.009l-.821-.929a2.3,2.3,0,0,1-.744-1.911l.133-.824a.382.382,0,0,0-.053-.292,1.487,1.487,0,0,0-.717-.375c-.037-.015-.153-.057-.283.425a14.18,14.18,0,0,1-.861-1.209,5.31,5.31,0,0,0,.9-1.887,10.9,10.9,0,0,0,.388-2.513.46.46,0,0,1,.1-.146c.412-.316.934-3.271.817-3.981-.053-.283-.119-.429-.2-.437a.307.307,0,0,0-.225.065l.16-.319c.088-.229.088-.379,0-.45a1.427,1.427,0,0,0-.948.163,5.813,5.813,0,0,0-.382-1.381c-.037-.083-.152,0-.156.008a3.9,3.9,0,0,0-1.337,2.656l-.213.2a9.95,9.95,0,0,0-2.04,4.145,4.7,4.7,0,0,1-.391-1.077,1.9,1.9,0,0,1-.133-.941.513.513,0,0,0-.133-.691,7.426,7.426,0,0,1-.689-2.387,6,6,0,0,1,.451-1.673,19.54,19.54,0,0,1,1.376-2.745,1.839,1.839,0,0,1,.392-.366c.919-.227,5-5.517,4.573-7.979a20.519,20.519,0,0,0,1.9-3.564l.225-.074.267-.105c.884-.355,1.636-.732,2.326-1.051l1.07-.568a8.977,8.977,0,0,0,2.123-1.3,2.945,2.945,0,0,0,1.141-1.938c-.124-.158-.487-.248-1.088-.265a1.777,1.777,0,0,0,.5-1.114q-.347-.479-2.071-.16A9.362,9.362,0,0,0,152.7,4.519a11.448,11.448,0,0,0-2.482,2.135,12.069,12.069,0,0,0-1.764,2.616l.53-1.221c.267-.583.549-1.266.85-2.043a1.258,1.258,0,0,0,.013-.8c-.079-.16-.252-.2-.517-.134a5.151,5.151,0,0,0-1.539,1.114,12.618,12.618,0,0,0-2.163,3.079,20.96,20.96,0,0,0-1.287,2.893,4.867,4.867,0,0,0-.054-2.043q-.133-.346-.583-.187a3.644,3.644,0,0,0-.85.876q-.423.583-.821,1.128a13.674,13.674,0,0,0-.943,1.553,12.615,12.615,0,0,0-.955,2.39,19.478,19.478,0,0,0-.623,3.66,10.642,10.642,0,0,0,.212,3.132,11.735,11.735,0,0,0,.848,2.47q.425.795.8.926c.16.391.372,1.036.637,1.941a2.644,2.644,0,0,1,.185.967.473.473,0,0,0,.172.465.986.986,0,0,1,.332.529,11.18,11.18,0,0,0,.929,2.364,6.506,6.506,0,0,0-.106,1.167q-1.273-3.686-2.07-5.574-1.539-3.422-2.416-3.131a.9.9,0,0,0-.531.771q-.026.237,0,1.22a17.53,17.53,0,0,0,.185,2.07,13.98,13.98,0,0,0,2.734,5.891l1.936,2.283a4.757,4.757,0,0,0,1.115.863,1.3,1.3,0,0,0,.982.145,18.206,18.206,0,0,0,1.672,2.23q.637.983,1.327.929a.937.937,0,0,0,.875.637l.4-.053a14.03,14.03,0,0,0,1.486,1.274l-.5,1.434a21.923,21.923,0,0,1-2.442.212q-1.035-.745-2.918-2.018l-.08-1.592a2.293,2.293,0,0,1,.291-1.381q.08-.452-.5-.822c-.584-.283-.832-.4-1.08-.346-.106.036-.018.134-.018.292v.1c0-.081.034-.108.136-.074.743.194,1.078.443,1.025.744a2.39,2.39,0,0,0-.323,1.327l.023,1.379a20.612,20.612,0,0,0-3.026-1.644,3.58,3.58,0,0,1,.423-.039.35.35,0,0,0,.319-.173c.053-.109-.045-.169-.293-.187a2.6,2.6,0,0,0-1.061.134c-.124.142-.1.291.08.449a33.448,33.448,0,0,1,3.371,1.912q2.308,1.459,3.582,2.388a31.773,31.773,0,0,0,3.5-.345L154,44.379q1.407-.266,2.919-.452a13.383,13.383,0,0,1,1.407-.105,14.043,14.043,0,0,0,1.566-.132,7.666,7.666,0,0,1,.849,2.283c.053.334.008.521-.132.557A41.139,41.139,0,0,1,156.067,48q-1.38.305-2.494.544-2.787.5-5.493.822a29.507,29.507,0,0,1-3.981-2.043,20.632,20.632,0,0,1-3.265-2.283q-1.062-1.14-.849-1.379a8.239,8.239,0,0,0,.928-2.018,1.176,1.176,0,0,0,.053-.581q-.291-.9.425-.932a19.818,19.818,0,0,1,2.388-.051c.177.016.292-.036.345-.16l.4-.8-.238-.105-.325.53,0-.536v.7l-2.689.053a.9.9,0,0,0-.654.265,1.216,1.216,0,0,0-.056,1.062,1.485,1.485,0,0,1-.047.506,6.7,6.7,0,0,1-.992,2.067c-.072.125-.045.312.087.559a6.132,6.132,0,0,0,.993,1.167,8.663,8.663,0,0,0,1.046.851q.7.5,2.481,1.537a35.113,35.113,0,0,0,4.006,2.072q.4.025,5.308-.717l.026.291q-1.406,1.062-1.8.875c-.371.035-.486.312-.345.824a.9.9,0,0,0,.583.477l.345.4.983.584a1.792,1.792,0,0,0,1.061,0,1.084,1.084,0,0,0,.638-.822l.1-.105,1.064-1.063.769-.581a1.564,1.564,0,0,0,1.168-.639c.035-.282.114-.459.239-.53l.929-.638q.053-.131,1.141.452a1.376,1.376,0,0,0,.929-.053l.69-.4a10.29,10.29,0,0,1,3.265,2.31.752.752,0,0,0,.291.559,1.842,1.842,0,0,0,1.009.4l.371.69.372.132A2.207,2.207,0,0,0,168.8,51.7l.584-.185q.451-.346.4-.691l-.24-.238-.5-.133a10.447,10.447,0,0,1-1.936-1.221l-.425-.319a70.837,70.837,0,0,0,7.191.8,2.009,2.009,0,0,0,1.421-.545q.888-.648,5.373-3.835a5.669,5.669,0,0,0,1.06-1.644,3.246,3.246,0,0,1-.7-1.063,5.2,5.2,0,0,1-.385-1.167,1.867,1.867,0,0,1-.027-.81.7.7,0,0,0-.238-.678.858.858,0,0,0-.61-.236,10,10,0,0,0-1.911.026c-.337-.036-.53-.114-.584-.239l.027-.637c.053-.283-.027-.405-.238-.371a3.062,3.062,0,0,0-1.408.583.533.533,0,0,0,.026.8.8.8,0,0,1,.292.611,22.745,22.745,0,0,1-.292,2.361,19.949,19.949,0,0,1-2.626,1.884,6.552,6.552,0,0,1-2.5-.16,2.259,2.259,0,0,1-.61-1.274,16.394,16.394,0,0,0,1.406-.956,4.706,4.706,0,0,0,.849-.2q.346-.117.345-.651a.9.9,0,0,0,.5-.583l1.539-1.858a3.015,3.015,0,0,1,1.619-.744,6.381,6.381,0,0,0,2.76-1.193q.266-.294,0-.824a8.449,8.449,0,0,0,1.644-1.644,1.538,1.538,0,0,0,.214-1.408,5.065,5.065,0,0,0,1.194-2.016,4.319,4.319,0,0,0-.029-1.434,3.376,3.376,0,0,0,.7-.545.89.89,0,0,0,.2-.622.858.858,0,0,0-.29-.664A1.618,1.618,0,0,0,182.79,26.015ZM158.066,4.838a1.623,1.623,0,0,1-.575,1.114A10.382,10.382,0,0,1,155.2,7.518c-.929.477-2.172,1.043-3.517,1.7v-.16a35.2,35.2,0,0,1,4.91-3.292c.407-.247.248-.318-.229-.212-.531.266-1.107.595-1.743.983q-1.592,1.034-3.1,2.042l.029-.318a19,19,0,0,1,4.964-3.423A2.806,2.806,0,0,1,158.066,4.838Zm-6.02.637a10.556,10.556,0,0,1,3.463-1.858,5.84,5.84,0,0,1,1.7-.239c.23.054.292.185.186.4l-.584.77a6.5,6.5,0,0,0-2.109.876,20.855,20.855,0,0,0-2.881,2.043l-.371.238q-.291-.212-1.061.187a32.863,32.863,0,0,1,4.246-3.1,5.263,5.263,0,0,0,1.354-.824,8.646,8.646,0,0,0-1.646.73,34.388,34.388,0,0,0-3.5,2.375l-1.567,1.406A16.617,16.617,0,0,1,152.046,5.475ZM150.415,8.42q.425-.239.583-.185a1.539,1.539,0,0,1,.054.729,9.388,9.388,0,0,1-.691,1.951l-.981,1.911a3.656,3.656,0,0,0-1.964.955q.479-.822,1.154-1.885t2.111-3.183c.159-.267.163-.331.014-.2a15.324,15.324,0,0,0-1.208,1.525q-.982,1.328-2.627,4.115c-.3.459-1.022,1.567-2.212,3.392l.145-.411,1.594-2.823,1.534-2.867A9.857,9.857,0,0,1,150.415,8.42Zm-6.5,6.5a52.157,52.157,0,0,0,2.547-4.883,13.28,13.28,0,0,1,1.328-2.1c.176-.408.08-.4-.293.027a29.164,29.164,0,0,0-3.025,5.121l.5-1.274a20.6,20.6,0,0,1,.849-1.924,12.791,12.791,0,0,1,1.408-2.375q.689-.876.955-1.141.957-.822,1.114-.77a.321.321,0,0,1,.08.345L148.08,9.3a34.133,34.133,0,0,1-3.345,5.15q-.875.953-1.088,1.22a3.8,3.8,0,0,0-.344.506l.106-.452Zm.717,3.025a13.536,13.536,0,0,0-.849,1.858l-.212-.026.557-1.726Zm-1.964,4.511.185-.769.159-.769.424-.08-.531,1.434-.371,1.248Zm-.107-2.892a14.036,14.036,0,0,1,.5-2.176l.212.265Zm-1.008,5.282-.106-.214a10.192,10.192,0,0,1,.557-3.1Q141.737,23.654,141.551,24.848Zm-.4-1.515a18.024,18.024,0,0,1,.252-4.577,17.981,17.981,0,0,1,1.181-4.977q.344-.768-.026-.236-1.619,2.76-1.884,8.146a9.051,9.051,0,0,0,.212,2.721c.178.556.38.879.611.967a.363.363,0,0,0,.4-.026,2.321,2.321,0,0,0-.082.583,1.969,1.969,0,0,1-1.034-1.073,12.251,12.251,0,0,1-.6-1.979,11.615,11.615,0,0,1-.226-2.918,23.944,23.944,0,0,1,.584-3.927,12.366,12.366,0,0,1,2.707-5.043q.452-.5.558-.239a9.4,9.4,0,0,1-.014,2.058,11.785,11.785,0,0,1-.517,2.215q-1.035,3.451-1.248,4.645Q141.631,21.078,141.153,23.333Zm.787,2.549v-.424c.672-.724.593-1.415.84-2.069l.932-2.39,1.082-2.521a31.845,31.845,0,0,1,2.452-3.874,2.9,2.9,0,0,1,1.65-1.167,1.526,1.526,0,0,1,0,1.086,7.585,7.585,0,0,1-.636,1.726c-.02.009-.044.018-.016.033a17.022,17.022,0,0,1-3.326,4.583l1.83-2.971.874-1.592c.337-.6.394-.815.181-.639-1.787,2.689-2.865,4.38-3.219,5.068s-.716,1.337-1.052,1.939a11.345,11.345,0,0,0-.78,1.4A4.153,4.153,0,0,1,141.94,25.883Zm7.121,1.087a17.11,17.11,0,0,1-.53,2.972,12.862,12.862,0,0,0-.132-1.964l.238-.663c.018-.23-.026-.241-.132-.027l-.16.292-.026-.531.4-.5Q149.114,26.149,149.06,26.97Zm-.4-1.432q.344-.081.133.319l-.5.742a6.241,6.241,0,0,0-.133-.769A2.981,2.981,0,0,1,148.663,25.538Zm-2.1,1.247q.557-2.2,1.06-2.335a12.3,12.3,0,0,1,.479,2.853,19.022,19.022,0,0,1,0,3.755,7.417,7.417,0,0,1-.717,2.865l-.346.744q0-1.647.041-2.68t.08-2.746q.038-1.714.225-3.889c.07-.354.054-.432-.054-.236a35.1,35.1,0,0,0-.5,5.651l-.026,1.512-.053,2.07-.345-.4a17.49,17.49,0,0,1-.319-3.9A19.409,19.409,0,0,1,146.567,26.785Zm-2.349,4.447a10.841,10.841,0,0,1,2-4.049,9.674,9.674,0,0,0-.292,1.619,20.524,20.524,0,0,0-1.8,4.008,11.83,11.83,0,0,0-.266,1.459A11.2,11.2,0,0,1,144.218,31.231Zm1.738,2.213-.584-.742.425-1.062A7.9,7.9,0,0,0,145.956,33.445Zm5.361,10.962.372-1.062,1.22.8Zm2.92-.531-1.991-1.194-1.83-1.221-.346-.45a.356.356,0,0,0-.437-.08c-.186.071-.332-.036-.438-.318a1.12,1.12,0,0,1-1.459-.319l-.876-1.061-.823-1.408-.292-.212a.78.78,0,0,1-.556.116,2.054,2.054,0,0,1-1.141-.7,15.078,15.078,0,0,1-1.592-2.734,44.66,44.66,0,0,1-2.2-4.645q-.425-1.3-.557-1.643c-.088-.232-.124-.236-.107-.015a9.279,9.279,0,0,0,.4,1.488,35.51,35.51,0,0,0,1.38,3.382q.874,1.8,1.725,3.29a16.289,16.289,0,0,1-2.84-3.981,13.814,13.814,0,0,1-1.168-3.4,8.917,8.917,0,0,1-.16-1.71,7.025,7.025,0,0,1,.026-1.289q.132-.4.373-.343c.1,0,.348.253.729.756a16.025,16.025,0,0,1,1.552,3.4q.983,2.638,1.208,3.462c.15.55.3,1.026.451,1.434a12.516,12.516,0,0,0,.544,1.247,3.588,3.588,0,0,0,.955,1.3c.419.3.726.351.928.157l-.97-1.736a.444.444,0,0,0-.3-.013.5.5,0,0,1-.05-.008v.009a.534.534,0,0,1-.1-.023.468.468,0,0,1-.117-.024.283.283,0,0,1-.077-.059.309.309,0,0,1-.086-.077.417.417,0,0,1-.039-.107.489.489,0,0,1-.037-.113,1.233,1.233,0,0,1,.008-.316,14.512,14.512,0,0,1,.345-1.644,18.95,18.95,0,0,1,1.672-3.9,9.558,9.558,0,0,0-.132,1.434q-.983,2.2-1.434,3.554c-.16.655-.15.974.026.956l.213-.107-.16-.371.105-.292.319.557.186-.134.159.239-.159.239,1.194,1.726.291-.239.213.239c-.354.354-.5.583-.425.69a12.176,12.176,0,0,0,.876,1.408c.531.777.964,1,1.3.663.106-.089.239-.071.4.054a2.3,2.3,0,0,1,.53.8l-.026-.611-.983-.929-.557-1.114a17.822,17.822,0,0,1-.982-1.512c-.194-.355-.437-.779-.73-1.274s-.65-1.054-1.074-1.673l.079-.292.85,1.036a26.277,26.277,0,0,1,1.6,2.216q.465.754.545.358l.159-.5.239.133-.159,1.036-.054.316q-.027.373.146.438c.115.045.218.209.306.492a4.476,4.476,0,0,0,.836,1.1,8.9,8.9,0,0,0,1.592,1.408c.559.379,1.018.691,1.381.929s.535.473.517.7l.5.105-.132-.637.318-.08a1.175,1.175,0,0,1,.4.584q.69.531,1.194.849Zm-8.706-8.625.16-.158.743,1.247-.081.158Zm1.248,2.5.292-.372.689.983.4.717.133.4a1.753,1.753,0,0,1-.637-.557l-.424-.557Zm9.235,5.811-1.141-.8c-.46-.55-.8-.945-1.008-1.2a2.306,2.306,0,0,0-.611-.53.931.931,0,0,0-.69-.158c-.123.035-.256.212-.4.53l-.053-.053a.77.77,0,0,1,.332-.559.675.675,0,0,1,.571.054l1.273.61,2.177.822a8.73,8.73,0,0,1,.981,1.168C157.005,43.5,156.527,43.538,156.014,43.556Zm.69,5.546a19.614,19.614,0,0,1-2.522,2.072l-.317-.105q.822-.506,2.335-1.646l.451-.5-.239-.026a14.073,14.073,0,0,1-1.155.915,11.036,11.036,0,0,1-1.5.887l-.77.373.133.158.583.08c.337.212.477.426.425.637-.177.267-.46.3-.849.107l-.637-.346a2.05,2.05,0,0,0-.69-.477l-.265-.211.105-.241.8.343h.238l-.132-.5.956-.6c.247-.087.353-.245.317-.458l.08-.48a2.086,2.086,0,0,0,1.327-.2,4.018,4.018,0,0,1,1.353-.387C157,48.671,156.987,48.873,156.7,49.1ZM167.8,7.758l.054-.613-.5.107a1.391,1.391,0,0,1-1.434-.423c-.319.053-.451-.072-.4-.372.124-.265.089-.407-.106-.425l-.769.08a1.447,1.447,0,0,1-.982-.426c-.106-.176-.035-.4.212-.663a1.636,1.636,0,0,1-.889-.637c-.116-.23-.044-.414.212-.557a2.565,2.565,0,0,1,1.421-.078.613.613,0,0,1-.133-.611q.027-.318,1.379.345l.531.318a.537.537,0,0,1,.717-.238,6.2,6.2,0,0,1,1.141.7,8.535,8.535,0,0,1,1.195,1.182c.371-.248.638-.2.8.158l.08.637a1.109,1.109,0,0,0-1.434-.08l-.371-.158a5.274,5.274,0,0,1-.929-1.408c-.106-.406-.159-.443-.159-.105a2.743,2.743,0,0,0,.637,1.352,3.925,3.925,0,0,1-1.712-.955,11.272,11.272,0,0,1-.836-.982q-.291-.477-.239,0A4.165,4.165,0,0,0,166.151,5q-.423-.187-.8-.372a4.642,4.642,0,0,0-1.539-.425c-.194,0-.2.036-.026.105a8.844,8.844,0,0,1,1.5.491,2.062,2.062,0,0,1,.624.413,3.583,3.583,0,0,1-1.54.292c-.336-.02-.486-.009-.451.026a.765.765,0,0,0,.318.107,4.607,4.607,0,0,0,1.937-.212,13.865,13.865,0,0,0,1.672.715,3.155,3.155,0,0,0-1.141.531q-.212.264.212.026a2.525,2.525,0,0,1,1.274-.4l.451.185a2.656,2.656,0,0,0,.345,1.459l-.291.107Zm3.026,2.838c-.991.016-1.19-.006-1.247-.16-.036-.117-.057-.224.291-.425l.179-.3c-.576-.262-1.107-.575-1.135-1.291l.478-.185q.318-.373.013-.557t-.331-.983q.293-.637,1.434,0,.5-.983,1.22-.583a.8.8,0,0,0-.9.664,3.279,3.279,0,0,0,0,1.034,2.712,2.712,0,0,0-.638-.637q-.716-.371-.265.08a7.583,7.583,0,0,1,.8.929,1.756,1.756,0,0,1-1.275.424c-.16.071-.133.116.079.131a1.371,1.371,0,0,0,.742-.051,2.385,2.385,0,0,0,.182,1.034,2.884,2.884,0,0,0,.653.651A.4.4,0,0,0,170.822,10.6Zm.557.506c-.018-.215.169-.333.557-.36s.452-.136.187-.331a2.728,2.728,0,0,1-1.274-.9q-.346-.452,0-.639l.4-.1.187-.239-.239-.929a.9.9,0,0,1,.4-1.009,1.818,1.818,0,0,1,1.4.425q.027-.37.492-.226t.861,1.979l.425.158c.142-.334.256-.5.346-.5.14,0,.283.292.425.875a1.957,1.957,0,0,1,.5,1.567,1.912,1.912,0,0,0-.371,1.116l-.212-.479a6.4,6.4,0,0,1-.16-1.671c-.018-.248-.045-.248-.08,0a6.561,6.561,0,0,0-.027,1.3,12.643,12.643,0,0,0-1.539-1.675,3.963,3.963,0,0,1-.105-1.327c-.054-.425-.1-.521-.132-.292a6.835,6.835,0,0,0,.051,1.486,13.966,13.966,0,0,1-1.432-1.778q-.212-.371-.185-.158a8.385,8.385,0,0,0,1.06,1.593c.372.424.673.759.9,1.007a7.445,7.445,0,0,0-1.194-.279,2.9,2.9,0,0,1-.929-.279c-.265-.053-.257.009.026.185a2.944,2.944,0,0,0,.968.292,5.017,5.017,0,0,1,1.367.452,3.936,3.936,0,0,1,.931,1.087l.316.717a5.437,5.437,0,0,0-1.644-.557,3.15,3.15,0,0,1-1.062-.292c-.459-.194-.513-.178-.158.054a3.075,3.075,0,0,0,1.126.357,5.754,5.754,0,0,1,1.87.756l.054.158a.7.7,0,0,0-.133.584l.185.533q-.239-.294-.664.265a.564.564,0,0,0-.08-.637,4.349,4.349,0,0,0-1.805-1.2l-.157.292A2.022,2.022,0,0,1,171.38,11.1Zm6.461,13.228q-.278-.411-.8-1.26a13.279,13.279,0,0,1-.756-1.381,1.521,1.521,0,0,1-.08-1.089q.158-.556.265-.848c.069-.194.063-.231-.027-.105a4.288,4.288,0,0,0-.45,1.086l-.531-1.512a5.667,5.667,0,0,1,.955-2.308c.178-.318.16-.345-.051-.081a5.614,5.614,0,0,0-1.036,2.15l-.822-1.83a5.151,5.151,0,0,1,.637-1.912c.23-.5.176-.477-.158.054a7.016,7.016,0,0,0-.611,1.486q-.371-1.513-.717-2.575l-.187-.053.105.292a11.828,11.828,0,0,0,.586,2.31,4.447,4.447,0,0,0-1.141-.742q-.346-.188,0,.078a4.822,4.822,0,0,1,1.167.9q.321.743.584,1.354a8.118,8.118,0,0,0-1.619-.8c-.283-.053-.283-.016,0,.105a3.846,3.846,0,0,1,1.778,1.141l.53,1.408c-.194,0-.452-.291-.768-.875a4.016,4.016,0,0,0-1.992-1.433.5.5,0,0,1-.29-.557q.052-.294.61-.241a2.5,2.5,0,0,0-.372-.717l-.212-.318q-.425-.876.5-.875-.346-.531-.239-.824a1.8,1.8,0,0,1,.239-.982,3.193,3.193,0,0,0,.239-.637c.336.2.64.358.915.491a.786.786,0,0,1,.438.73l-.132.822c.051.158.194.107.423-.16a1.605,1.605,0,0,1,.557-.557,1.523,1.523,0,0,1,.559.479,2.7,2.7,0,0,1-.187,1.857l-.292.744q.9-1.195,1.46-1.141c.124.089.163.27.119.544a2.752,2.752,0,0,0,0,.861.81.81,0,0,1-.306.771,1.735,1.735,0,0,0-.5,1.034q.849-.637.691.239l-.319,1.14c-.087.55,0,.805.265.772s.429,0,.491.1a.933.933,0,0,1,.041.557,1.809,1.809,0,0,0-.212.73.51.51,0,0,0,.145.291c.081.081.253.063.518-.051s.4-.036.4.238,0,.54.014.8a1.472,1.472,0,0,0,.251.756.855.855,0,0,0,.477.346l.239-.292c-.354.018-.517-.214-.491-.691a6.328,6.328,0,0,0-.014-1.114c-.142-.336-.283-.522-.425-.557a8.843,8.843,0,0,1-.982-2.655l.557.027q.61,2.232.982,2.4c.247.116.363.249.346.4a3.838,3.838,0,0,0,.132.968q.477-.133.556-.875a.967.967,0,0,0-.4-1.062c-.372-.212-.583-.407-.637-.583-.105-.3.009-.488.346-.559q.289-.161-1.408-1.274-.874-.61-.531-1.087c.089-.16.253-.155.491.014s.394.208.464.119c.125-.247.027-.422-.29-.518s-.468-.208-.45-.331a6.42,6.42,0,0,1,.026-1.114,1.615,1.615,0,0,0-.053-.691c-.2-.282-.566-.265-1.114.054a1.461,1.461,0,0,0,.093-.875,2.015,2.015,0,0,0-.413-.824l-.265-.824c-.071-.282.087-.477.477-.584a1.812,1.812,0,0,1,0-1.167,5.2,5.2,0,0,0,.266-.61c.051-.16.211-.178.476-.053a4.856,4.856,0,0,1,1.274,1.4c.285-.318.557-.2.824.346a2.7,2.7,0,0,1,.372,1.778q.98-.531.69.717a5.956,5.956,0,0,1,.516,1.366,1.283,1.283,0,0,1-.158.917,1.288,1.288,0,0,0-.239.649c.008.151.071.145.185-.013a1.332,1.332,0,0,1,.7-.4,2.033,2.033,0,0,1,.29.982.951.951,0,0,1-.357.639,1.319,1.319,0,0,0-.413.821.212.212,0,0,0,.239.241l.479-.132q.368-.054.026.583a8.945,8.945,0,0,0-.544,1.167,2.389,2.389,0,0,0-.173.769c-.018.408-.089.646-.212.717a8.883,8.883,0,0,0-.041-1.605,16.447,16.447,0,0,0-.331-1.872,3.773,3.773,0,0,0,.584-1.245q.185-.531-.08-.132a2.054,2.054,0,0,1-.583.982q-.294-.985-.639-2.388a4.072,4.072,0,0,0,.5-1.673q.027-.851-.105-.132a3.466,3.466,0,0,1-.583,1.564q-.348-1.113-.744-2.1a4.924,4.924,0,0,0,.105-1.3q-.027-.743-.132-.054a3.081,3.081,0,0,1-.132.956l-.584-1.486L177.35,12q-.185-.427-.133,0l.345,1.114a3.347,3.347,0,0,0-.744-.662c-.229-.142-.274-.134-.132.026a6.39,6.39,0,0,1,1.009,1.089q.346.847.691,1.751a5.028,5.028,0,0,0-1.408-.956q-.5-.183,0,.187a8.26,8.26,0,0,1,1.7,1.593c.214.617.416,1.22.61,1.8a5.15,5.15,0,0,1-1.221-1.167q-.318-.318-.024.105a7.459,7.459,0,0,0,1.352,1.539l.4,1.619A9.739,9.739,0,0,0,178.2,18.8c-.282-.178-.3-.142-.051.105a9.064,9.064,0,0,1,1.777,1.8,8.992,8.992,0,0,1,.239,2.735c-.017.336-.265.583-.742.742l-.107,1.274-.664.026C178.3,24.988,178.027,24.6,177.841,24.33Zm.866,1.245a2.741,2.741,0,0,1,.575-.008c-.247,1.343-.533,2.819-.763,3.739l-.372-.214A24.02,24.02,0,0,0,178.707,25.575Zm-4.713,7.565c-.1-.078-.395-.324-.888-.73-.443-.387-.584-.742-.425-1.06a2.891,2.891,0,0,1-.333-.559.59.59,0,0,1,.066-.622c.143-.2.468-.111.983.279a1.409,1.409,0,0,0,0-.849,8.143,8.143,0,0,0-.319-.8,10.982,10.982,0,0,0-.664-1.086q-.291-.612-.134-.691c.108-.053.276.018.506.212q.664-.716.875-.413a2.725,2.725,0,0,1,.345,1.022,4.635,4.635,0,0,1,.027,1.488l-.105.105.105.107a4.413,4.413,0,0,1-.133,1.193.805.805,0,0,0,.133.426,1.556,1.556,0,0,1-.027-.479c.018-.089.075-.3.173-.622a4.16,4.16,0,0,0,.146-.557c0-.045.006-.078-.136-.095a.328.328,0,0,0,.229-.224.42.42,0,0,0,.027-.292,5.065,5.065,0,0,1-.054-.836,3.672,3.672,0,0,0-.132-1.048,3.146,3.146,0,0,1-.145-.557c-.02-.132-.126-.209-.319-.226s-.47.176-.822.583a4.964,4.964,0,0,1,.491-1.524c.167-.259.34-.333.518-.227a.8.8,0,0,1,.343.346c.053.122.133.1.239-.068s.194-.224.264-.173a.915.915,0,0,1,.227.319,2.047,2.047,0,0,1,.173.5,8.007,8.007,0,0,1,.09.968,1.363,1.363,0,0,1-.172.943.847.847,0,0,0-.211.584c.033.92.105,1.375.211,1.366a.739.739,0,0,0,.385-.211c.151-.134.283-.184.4-.148s.182.292.2.769.063.527.132.146.2-.569.4-.569.229.512.105,1.539a11.153,11.153,0,0,0-1.486,1.539,1.416,1.416,0,0,1-.014-.929,4.384,4.384,0,0,0,.265-.6c.08-.223.146-.422.2-.6.142-.423.115-.459-.078-.105q-.161.321-.279.557a4.645,4.645,0,0,1-.279.479,13.4,13.4,0,0,0-.346-1.513q-.237-.741-.132.026a24.091,24.091,0,0,1,.292,2.417,6.891,6.891,0,0,0-.915-.822,5.079,5.079,0,0,1-.809-.744c-.2-.125-.23-.105-.107.053a7.611,7.611,0,0,0,.943,1,6.82,6.82,0,0,1,.756.756.893.893,0,0,1,.16.319,8.424,8.424,0,0,1-.557.664.435.435,0,0,1-.212-.358A.534.534,0,0,0,173.994,33.14Zm-9.514,9.7a3.137,3.137,0,0,1,.824-.663,19.678,19.678,0,0,1,3-1.3.192.192,0,0,1,.239.078l.212.267-.291.185a.931.931,0,0,1-.664.187,2.112,2.112,0,0,0-.929.224.915.915,0,0,0-.637.7.613.613,0,0,1-.291.4q-.585.318-1.062.557l-.822-.053Zm2.256.884H166.6l0-.062c-.092.036-.187.045-.288.084l-.875-.122.928-.458.236.443.122-.054-.118-.449a.629.629,0,0,1,.319-.756,1.289,1.289,0,0,1,.929-.284c.142.018.15.253.026.75a2.262,2.262,0,0,1-1.155.793Zm-3.875,3.418-.133-.428-.716.9-.584.372a.96.96,0,0,1-.823.265l-.929-.452.478-.238.132.105q-.132.4.319-.105l.823-.8a4.169,4.169,0,0,0-.346-1.843,7.63,7.63,0,0,0-.636-1.421c-.036-.16-.443-.2-1.221-.105a2.1,2.1,0,0,1,1.619-.053l.637.264.346-.146-.05-.047-.589-.283.319.026.27.257.075.035-.026.012.185.175a7.827,7.827,0,0,1,1.525,1.989,1.8,1.8,0,0,1,.04,1.036C163.242,47.1,163,47.263,162.861,47.141ZM169.2,50.96l.291.056-.107.133-.689.211a2.339,2.339,0,0,1-1.062.531l-.45-.08-.108-.318a.908.908,0,0,1,.413-.345,3.5,3.5,0,0,1,.65-.188l.638.108Zm-.983-.146c-.478,0-.778.3-.9.3h-.372a6.89,6.89,0,0,0-1.22-1.126l-1.248-1.054c.23-.125.725-.045,1.486.167Zm3.8-5.546a3.043,3.043,0,0,0,1.168-.066,15.968,15.968,0,0,0,2.944-2.176,18.506,18.506,0,0,1,3.638-2.254c.3-.178.313-.306.039-.387a4.886,4.886,0,0,0-1.235-.119c-.178.143-.16.257.054.346a1.1,1.1,0,0,1,.53.053,19.784,19.784,0,0,0-2.972,1.857c.069-.407.133-1.1.187-2.1a1.475,1.475,0,0,0-.319-.849c-.124-.176.027-.336.488-.477l.355-.105v.583l-.488-.132.06.265a.875.875,0,0,0,.59.4l1.434.078.639-.026q1.113.027,1.089.544a3.443,3.443,0,0,0,.078.97,5.305,5.305,0,0,0,.9,2.176,3.675,3.675,0,0,1-.69,1.114l-1.382.9q-1.775,1.272-4.83,3.317a35.11,35.11,0,0,1-5.227-.345A35.9,35.9,0,0,1,164,47.724l-.425-.107.185-.185a2.66,2.66,0,0,0,.492-.783,2.848,2.848,0,0,0-.14-.9,3.18,3.18,0,0,0-1-1.658v-.16l.4-.054a17.066,17.066,0,0,1,2.935.425q1.288.318,3.066.584C170.669,45.1,171.5,45.224,172.017,45.268Zm-1.991-.7q-.69-.1-2.229-.4l.929-.316c.5.105.779,0,.849-.319A2.577,2.577,0,0,0,170.026,44.565Zm5.547-7.829a1.225,1.225,0,0,0-.345,1.221,5.34,5.34,0,0,0-1.434,1.167,12.527,12.527,0,0,0-1.048,1.3,1.444,1.444,0,0,1-.756.638,1,1,0,0,1-1.036-.214l-.105.663L169.07,42.6l-.875.372a3.066,3.066,0,0,0,.133-.9l.318-.265q1.832-.953,2.122-1.751a5.311,5.311,0,0,1,.8-1.1,2.533,2.533,0,0,0,.61-1.074l.026-.637-.078-.664q.425.476.769.212a17.918,17.918,0,0,1,1.194-1.924,16.538,16.538,0,0,1,1.352-1.656q.718-.772,1.223-1.3l-.027.661a24.105,24.105,0,0,0-1.991,2.682,19.5,19.5,0,0,0-1.831,3.237,2.525,2.525,0,0,1-.849,1.062,2.138,2.138,0,0,0-.639.452q-.183.346.214.185a1.8,1.8,0,0,1,.584-.4,13.056,13.056,0,0,0,2.494-2.76l-.026-.929.291-.5q-.025.77.132.849c.107.053.253-.095.44-.438s.641-1.3,1.366-2.852a1.791,1.791,0,0,0-.026,1.247q-.637.452-.346,1.539Zm5.958-5.892a2.523,2.523,0,0,1-.44,1.143c-.726.83-1.025,1.327-.9,1.485a1.054,1.054,0,0,1-.108,1.141,15.132,15.132,0,0,1-1.539,1.592c.178.355.045.655-.4.9a10.868,10.868,0,0,1-1.7.744,5.353,5.353,0,0,0,2.123-2.787,3.275,3.275,0,0,1,.982-.664c.248-.158.292-.229.132-.212a4.362,4.362,0,0,0-1.009.584,8.025,8.025,0,0,0,.717-2.176,6.273,6.273,0,0,0,1.3-1.594c.247-.369.256-.449.027-.237a6.44,6.44,0,0,1-1.223,1.4,23.718,23.718,0,0,0,.664-2.546q.133-.822-.08-.292l-.265.929a2.688,2.688,0,0,0-.425-.849l.346,1.114a13.754,13.754,0,0,1-.506,1.884,7.465,7.465,0,0,0-.982-1.909c-.37-.462-.434-.47-.187-.027a7.566,7.566,0,0,1,1.01,2.31,10.5,10.5,0,0,1-.742,2.122,1.97,1.97,0,0,0-.665-.664c-.176-.087-.176-.036,0,.16a3.64,3.64,0,0,1,.557.691,4.769,4.769,0,0,1-.834,1.352,8.1,8.1,0,0,1-1.024.982,2.913,2.913,0,0,0,.426-2.176c0-.142.11-.256.331-.345s.3-.187.226-.292a2.214,2.214,0,0,1-.291-.929.952.952,0,0,1,.635,0q.346-.239-.066-.676a2.218,2.218,0,0,1-.518-1.262c0-.318.214-.434.638-.345.194-.018.212-.247.053-.69l-.452-.61q-.477-1.062.4-.77l.69.425q.689.264.663-.929c0-.178.138-.217.413-.12s.525-.108.756-.623q.346-.371.53.691c-.051.94.178,1.379.69,1.327C181.58,30.155,181.592,30.4,181.531,30.844Zm.8-2.281a.5.5,0,0,1-.12.438,1.372,1.372,0,0,1-.61.3l-.291-.535a1.852,1.852,0,0,0-.425-1.223,2.136,2.136,0,0,1,.584-.325c.193-.089.16.01-.105.045-.286.053-.506.324-.665.324h-.051a4.932,4.932,0,0,1,.768-1.73c.087-.23.035-.265-.16-.017a8.866,8.866,0,0,0-.8,1.319,1.2,1.2,0,0,1-.239-.6c-.071-.336-.125-.352-.158-.035a2.349,2.349,0,0,0,.238.872c-.389.6-.7.839-.929.715q.212-1.276.557-2.682c.405-.407.76-.541,1.062-.4.424-.336.786-.4,1.089-.185a1.322,1.322,0,0,1,.212.782,2.314,2.314,0,0,1-.266.861c.336,0,.513.134.53.4a1.983,1.983,0,0,1-.848,1.3C182.091,28.262,182.3,28.385,182.326,28.563Z" fill="#44484a"/><path d="M145.163,45.509c0,.06.065.057.129.113.247.166.486.095.653-.215a.444.444,0,0,0-.1-.712c-.128-.114-.128-.114-.239.072l-.443.742Zm-3.5-2.344c.318.226.5.394.844-.045a.463.463,0,0,0-.035-.657.884.884,0,0,0-.185-.11c-.062,0-.059.063-.119.068l-.5.744Zm5.034,2.475c.047-.244.095-.423-.09-.595l.056-.063c.12.056.252.169.373.22a2.48,2.48,0,0,0,.434.215l-.059.062c-.06-.057-.244-.1-.3.015s-.2.73-.257.917l-.182,1.027.751-.635a7.3,7.3,0,0,0,.624-.694c.112-.188-.013-.239-.075-.3l-.007-.117c.126.111.248.167.314.223a1.341,1.341,0,0,1,.31.163l0,.059c-.249-.164-.475.146-.708.337l-1.492,1.4-.123-.056.425-2.179Zm-1.925.369a1.856,1.856,0,0,0-.212.492c-.054.124.066.178.194.292l-.056.059a3.159,3.159,0,0,0-.439-.279c-.124-.051-.248-.161-.372-.215l-.007-.122c.124.056.249.17.306.047a1.273,1.273,0,0,0,.34-.44l.551-.929a2.734,2.734,0,0,1,.278-.435c.05-.181-.072-.235-.2-.286l.058-.065c.126.113.31.164.437.276.122.053.249.169.373.221a.623.623,0,0,1,.289.943.689.689,0,0,1-1.075.178c-.062,0-.187-.108-.187-.108l-.282.372Zm-1.336-2.129a2.61,2.61,0,0,1,.277-.437c.051-.182-.072-.235-.2-.288l.117-.072,1.311.833-.337.5-.062-.056c.223-.367.092-.482-.218-.706l-.189-.11c-.059-.057-.059-.057-.175.068l-.5.807c.375.282.55.093.717-.1l.06,0c-.107.19-.222.316-.278.438a2.666,2.666,0,0,1-.277.435l-.064-.06c.221-.369.095-.48-.214-.647l-.334.56c-.054.119-.167.247-.161.364a.4.4,0,0,0,.261.348c.31.166.492.212.776-.095l.061,0-.331.551-1.5-1,.054-.062a.269.269,0,0,0,.3.042c.056-.063.225-.313.339-.434l.557-.869Zm-1.449.825c.01.181.013.241.141.354l-.055.066c-.066-.057-.13-.113-.19-.173s-.187-.05-.25-.1l.044-.306.009-.959c-.009-.178-.009-.178-.135-.294l-.28.376c-.056.122-.221.369-.276.492.007.12.07.176.194.232l-.057.062c-.124-.054-.25-.167-.371-.223a1.109,1.109,0,0,0-.437-.271l.053-.065c.125.054.188.11.3.044a1.24,1.24,0,0,0,.341-.435l.611-.934a2.811,2.811,0,0,0,.282-.434c.051-.122-.073-.178-.136-.235l-.005-.117c.187.11.314.223.5.333a1.262,1.262,0,0,1,.313.223c.314.223.569.509.29.943a.627.627,0,0,1-.89.227v1.2Zm17.237.8-.5-.926-.152,1,.648-.075Zm-7.693,1.75c.06.117.065.3.126.41s.181.114.3.111a.46.46,0,0,0,.28-.6.606.606,0,0,0-.25-.462,1.045,1.045,0,0,0-.411.009l-.115,0,.073.524Zm-.078-.7.059,0c.114-.066.232-.071.291-.131a.625.625,0,0,0,.1-.468c-.068-.291-.188-.4-.421-.4a.308.308,0,0,1-.18.062s0,.116.006.175l.141.762Zm-1.85.985a1.5,1.5,0,0,0,.128.47c.066.113.181.107.3.045.293-.006.406-.243.337-.593-.065-.175-.13-.349-.306-.4a.661.661,0,0,0-.471.012l-.06,0,.074.468Zm-.135-.645.116-.057c.115,0,.233-.006.291-.124a.5.5,0,0,0,.107-.414c-.066-.292-.192-.465-.484-.4a.309.309,0,0,0-.176.066l0,.116.143.813Zm9-1.034c0,.176-.1.47-.043.586,0,.178.18.113.3.108l0,.119c-.118,0-.239.007-.355.009a.745.745,0,0,1-.351.069l0-.057a.386.386,0,0,0,.287-.306c.05-.294.044-.527.095-.766l.256-1.587h.117l.932,1.792c.062.113.183.289.246.4a.432.432,0,0,0,.294.053l0,.114a1.033,1.033,0,0,0-.41.072c-.176,0-.351.065-.468.069l0-.057c.056-.063.233-.065.167-.239,0-.059-.06-.176-.061-.233l-.25-.408-.763.143,0,.117Zm-1.1-1.5h.06l.142.759H157.5c-.129-.408-.432-.691-.782-.623-.589.074-.628.777-.555,1.361.137.583.385,1.163.973,1.089.41-.128.519-.482.507-.95l.057-.062.141.875-.123-.172a1.023,1.023,0,0,1-.64.367c-.643.138-1.187-.318-1.326-1.075-.08-.762.258-1.417.9-1.489a.973.973,0,0,1,.714.1l-.005-.176Zm-2.408,1.119c0-.117-.066-.349-.07-.467a.385.385,0,0,0-.3-.11l-.06-.053a1.376,1.376,0,0,1,.472-.075c.175,0,.35-.069.468-.072l0,.06a.322.322,0,0,0-.231.178,1.349,1.349,0,0,0,.07.471l.15,1.111a1.132,1.132,0,0,0,.126.462c.064.116.185.113.3.11l0,.119-.471.012a1.173,1.173,0,0,1-.468.069v-.056c.119,0,.233-.006.23-.184.056-.117-.009-.349-.011-.465l-.208-1.111Zm-2.049.391c0-.119-.072-.406-.074-.527a.207.207,0,0,0-.3-.051l-.063-.116a30.181,30.181,0,0,0,.942-.14l.059.114c-.117,0-.233.008-.29.124,0,.117.07.408.074.527l.146,1.11c.073.468.193.583.605.512.115-.06.294-.066.407-.19a.605.605,0,0,0,.108-.47l.116-.062.075.7-.173,0c-.531.074-1.119.2-1.647.279l0-.06c.117-.059.234-.062.231-.179a1.628,1.628,0,0,0-.014-.53l-.2-1.046Zm-1.882.339a1.064,1.064,0,0,0-.132-.467c-.062-.113-.178-.11-.3-.105l0-.057a1.228,1.228,0,0,1,.474-.074c.114,0,.23-.065.352-.069.351-.071.764-.02.836.449.07.351-.165.529-.4.657a.638.638,0,0,1,.477.105.909.909,0,0,1,.364.453.722.722,0,0,1-.805.789c-.057.059-.235.063-.349.068a1.676,1.676,0,0,0-.529.128l0-.115c.058,0,.232-.006.228-.184,0-.116-.068-.351-.071-.467l-.146-1.111Zm-1.986.343c0-.114-.068-.408-.072-.523-.061-.114-.181-.113-.3-.05l0-.119a.954.954,0,0,0,.41-.071.889.889,0,0,0,.411-.066.629.629,0,0,1,.84.5.55.55,0,0,1-.335.652,1.045,1.045,0,0,1,.471.05.61.61,0,0,1,.309.518.591.591,0,0,1-.22.592.815.815,0,0,1-.525.188.857.857,0,0,0-.41.072c-.239,0-.353.071-.59.075l0-.062c.116-.06.236-.065.292-.184,0-.113-.07-.405-.073-.521l-.207-1.056Zm19.972.31-.178-1.077-.477.958.656.119Zm4-.268c0-.117-.06-.414-.06-.477-.057-.181-.179-.117-.3-.117v-.124h.474c.119,0,.3-.06.477-.06v.12c-.117,0-.241,0-.3.124v.535l.119,1.08a1.613,1.613,0,0,0,.062.539c.059.119.178.119.294.119v.059h-.474a1.3,1.3,0,0,1-.477.06v-.06c.062,0,.241,0,.241-.178a1.393,1.393,0,0,0,0-.48l-.062-1.138Zm-2.345-.227c0-.122.063-.42.063-.538a.336.336,0,0,0-.3-.182l.063-.056c.116,0,.3.056.416.056a1.6,1.6,0,0,0,.536.062l-.057.121c-.06,0-.242-.059-.3.059s-.059.418-.122.538l-.178,1.141c-.057.476,0,.595.357.657.182,0,.357.06.476,0,.242-.12.242-.242.3-.48h.121l-.178.718c0-.06-.12-.06-.12-.06-.6-.117-1.134-.178-1.726-.3v-.06a.436.436,0,0,0,.355-.12,1.839,1.839,0,0,1,.121-.479l.175-1.077Zm-2.49.616c-.06.117-.179.417-.238.539,0,.178.178.178.238.238v.06c-.12,0-.238-.06-.355-.06s-.242-.06-.358-.06l.057-.057c.178,0,.236-.062.359-.242.117-.239.236-.477.358-.718l.714-1.435.118.057.357,2.037c.063.119.063.358.12.477s.119.125.237.182v.06c-.118,0-.294-.06-.476-.06a1.2,1.2,0,0,0-.476-.057l.06-.125c.06,0,.237.062.237-.059V47.4l-.06-.417-.832-.12-.06.12Zm-.23-1.226-.062-.059c.062-.358-.059-.482-.355-.541-.179,0-.361-.059-.361.059l-.3,1.855c0,.3,0,.361.3.482v.059a1.736,1.736,0,0,1-.532-.117,1.6,1.6,0,0,1-.538-.062v-.06c.356,0,.421-.057.476-.36l.238-1.855c.06-.059-.12-.12-.238-.12-.359-.056-.476-.056-.534.42l-.12-.059.12-.6,2.025.361-.118.6Zm-3.018-.4a1.32,1.32,0,0,0,0-.48c0-.119-.118-.181-.234-.181v-.117a1.8,1.8,0,0,0,.474.117c.179,0,.356.063.535.063l-.061.057c-.063,0-.239,0-.3.122s-.062.357-.119.48l-.121,1.135a1.558,1.558,0,0,0-.057.48c0,.178.119.178.236.178v.122c-.178-.063-.3-.063-.475-.122a1.245,1.245,0,0,1-.474-.062V47.09c.115,0,.232,0,.294-.12a1.051,1.051,0,0,0,.12-.476l.179-1.138Zm14.377-1.793-.893-.6.358,1.019.535-.42Zm-4.016,2.886-.775-.717.179,1.019.6-.3Zm3.54-2.23a1.715,1.715,0,0,0,.182.6c.117.12.238,0,.294-.06l.062.12a1.29,1.29,0,0,1-.3.179c-.059.057-.182.119-.241.242l-.059-.124c.117-.119.117-.176.117-.358a5.387,5.387,0,0,1-.235-.779l-.479-1.555.057-.062,1.732,1.2a1.227,1.227,0,0,0,.355.238.394.394,0,0,0,.358-.062v.12a1.276,1.276,0,0,0-.358.238c-.117.12-.238.182-.355.3l-.06-.062c.06-.057.178-.179.117-.3-.057-.059-.175-.117-.238-.178l-.355-.241-.657.479.059.06Zm-2.98.434a.338.338,0,0,0-.416.062l-.06-.123c.117-.059.176-.059.238-.178a.443.443,0,0,0,.238-.117l2.325.779-.657-.9c-.117-.117-.235-.358-.358-.476-.173-.12-.238-.06-.414,0l-.062-.06c.12-.06.238-.122.361-.181a.451.451,0,0,1,.238-.242l.059.063c-.059.12-.182.12-.119.3.06.12.3.418.419.6l.952,1.322-.06.056a.8.8,0,0,1-.358-.119l-2.146-.717.775,1.075a2.409,2.409,0,0,0,.355.42.382.382,0,0,0,.358-.062v.062a.576.576,0,0,1-.3.239,1.048,1.048,0,0,0-.3.241l-.056-.06c.119-.122.178-.181.119-.358a1.94,1.94,0,0,0-.3-.425l-.834-1.194Zm-1.093,2.4a2.606,2.606,0,0,0,.116.6c.062.122.235.059.3,0l.06.059c-.122.063-.176.122-.3.185a1.207,1.207,0,0,0-.3.176l-.062-.06a.337.337,0,0,0,.121-.419,3.385,3.385,0,0,0-.121-.777l-.3-1.617h.12l1.548,1.376a1.966,1.966,0,0,0,.358.3c.117.059.238,0,.3,0l.06.059a1.493,1.493,0,0,0-.419.241,1.469,1.469,0,0,0-.417.241l-.06-.12c.12,0,.242-.12.179-.239a.83.83,0,0,0-.238-.239l-.3-.241-.715.358.063.122Z" fill="#44484a"/><path d="M144.386,30.061c-.158-.48-.34-1.054-.4-1.241l-.035-.117,1.367-.778a17.091,17.091,0,0,1-.3-1.917l-1.54-.316,0-.122c-.011-.327-.011-1.683,0-2.013l0-.121,1.54-.318a15.754,15.754,0,0,1,.3-1.915l-.757-.425.517-.06.587.328-.024.11a15.258,15.258,0,0,0-.325,2.1l-.01.113-1.528.315c-.008.407-.008,1.348,0,1.754l1.528.315.01.113a16.7,16.7,0,0,0,.325,2.1l.023.11-1.35.766c.064.208.172.548.279.876Zm2.725,4.466c.134.185.257.354.342.467l1.409-.64.074.083a18.273,18.273,0,0,0,1.51,1.5l.084.075-.641,1.423c.317.244,1.081.8,1.413,1.022l1.144-1.049.1.059a15.378,15.378,0,0,0,1.9.962l.105.047-.175,1.551c.389.134,1.283.425,1.672.542l.757-1.352.111.026a15.663,15.663,0,0,0,2.1.322l.114.012.315,1.527c.194,0,.517.008.881.008s.681,0,.872-.008l.3-1.513.113-.012a16.231,16.231,0,0,0,2.1-.336l.111-.027.77,1.354c.4-.119,1.292-.408,1.671-.542l-.175-1.54.1-.045a16.235,16.235,0,0,0,1.892-.974l.1-.059,1.156,1.051c.331-.226,1.09-.781,1.412-1.025l-.653-1.411.085-.075a13.825,13.825,0,0,0,1.507-1.507l.075-.087,1.425.641c.244-.316.8-1.08,1.024-1.412l-1.049-1.143.059-.1a16.056,16.056,0,0,0,.962-1.893l.045-.1,1.549.164c.138-.391.434-1.28.536-1.659l-1.343-.771.024-.11a15.6,15.6,0,0,0,.325-2.1l.009-.115,1.531-.315c.016-.4.016-1.349,0-1.751l-1.533-.306-.009-.113a13.222,13.222,0,0,0-.336-2.1l-.029-.111,1.358-.772c-.111-.391-.4-1.294-.533-1.67l-1.554.188-.045-.107a13.711,13.711,0,0,0-.961-1.9l-.06-.1,1.053-1.144c-.227-.342-.781-1.108-1.033-1.425l-1.4.655-.077-.087a15.486,15.486,0,0,0-1.509-1.507l-.086-.075.641-1.412c-.318-.248-1.08-.812-1.421-1.037L168.2,11.718l-.1-.057a15.218,15.218,0,0,0-1.9-.962l-.1-.045.175-1.542c-.374-.142-1.274-.432-1.67-.542l-.76,1.355-.112-.027a13.745,13.745,0,0,0-2.1-.336l-.114-.009L161.2,8.032c-.19-.006-.512-.01-.877-.01s-.686,0-.876.01l-.3,1.521-.115.009a13.178,13.178,0,0,0-2.1.334l-.112.029-.784-1.357c-.386.111-1.278.4-1.659.544l.175,1.54-.106.045a14.479,14.479,0,0,0-1.889.962l-.1.059L151.3,10.667c-.16.113-.42.3-.683.491l.048-.412c.246-.179.463-.331.566-.4l.1-.063,1.163,1.057a15.073,15.073,0,0,1,1.726-.878l-.176-1.548.108-.044c.319-.131,1.6-.545,1.918-.628l.112-.029.786,1.36a13.568,13.568,0,0,1,1.918-.307l.3-1.524.116-.008h.014l.1-.008h0l.027,0h.129c.217-.006.5-.008.738-.008.368,0,.827,0,1.013.018l.115.008.317,1.524a14.549,14.549,0,0,1,1.916.307l.763-1.36.114.029c.338.084,1.628.5,1.932.628l.1.045-.175,1.548a15.318,15.318,0,0,1,1.737.876l1.137-1.054.1.06c.3.179,1.391.986,1.646,1.2l.092.075-.647,1.42a15.036,15.036,0,0,1,1.376,1.376l1.408-.657.075.087c.218.256,1.015,1.355,1.2,1.647l.063.1-1.057,1.15a14.336,14.336,0,0,1,.879,1.735l1.561-.187.042.11c.119.307.532,1.588.616,1.929l.027.113-1.36.774a13.357,13.357,0,0,1,.307,1.915l1.536.306.008.117c.024.33.024,1.694,0,2.024l-.008.116-1.536.315a15.555,15.555,0,0,1-.3,1.918l1.348.774-.024.11c-.075.339-.506,1.623-.614,1.915l-.042.114-1.563-.166a16.311,16.311,0,0,1-.879,1.726L174.6,33.55l-.065.1c-.185.283-.971,1.37-1.182,1.631l-.074.089-1.432-.645a14.317,14.317,0,0,1-1.378,1.375l.66,1.426-.095.074c-.262.2-1.345,1-1.631,1.182l-.1.062-1.161-1.057a16.588,16.588,0,0,1-1.726.888l.177,1.554-.111.042c-.307.117-1.589.528-1.923.625l-.116.032-.776-1.364a16.212,16.212,0,0,1-1.917.306l-.3,1.533-.121,0c-.184.008-.638.009-1,.009s-.821,0-1.011-.009l-.12,0-.317-1.541a16.177,16.177,0,0,1-1.916-.3l-.766,1.366-.116-.033c-.317-.09-1.6-.5-1.921-.623l-.111-.041.177-1.564a15.611,15.611,0,0,1-1.738-.88l-1.152,1.059-.1-.065c-.284-.187-1.372-.971-1.63-1.182l-.09-.075.647-1.435a18.953,18.953,0,0,1-1.378-1.363l-1.425.646-.074-.095c-.071-.092-.209-.28-.368-.5Z" fill="#44484a"/><path d="M160.3,36.961a12.291,12.291,0,0,1-5.186-1.137l-.22-.1,5.421-6.823,5.3,6.874-.22.1A12.557,12.557,0,0,1,160.3,36.961ZM155.5,35.58a11.917,11.917,0,0,0,4.807,1,12.153,12.153,0,0,0,4.717-.959l-4.706-6.106Zm13.758-2.409-4.812-7.258L172.616,23l.026.238a12.394,12.394,0,0,1-3.225,9.757Zm-4.229-7.062,4.277,6.446a12.01,12.01,0,0,0,2.987-9.038Zm-13.733,6.955-.161-.178a12.455,12.455,0,0,1-3.117-9.792l.028-.239,8.163,3.039Zm-2.928-9.685a12.078,12.078,0,0,0,2.888,9.072l4.365-6.372Zm14.512-2.311-.249-8.684.236.051a12.368,12.368,0,0,1,8.279,6.091l.117.209Zm.144-8.211.22,7.716,7.452-2.072A12,12,0,0,0,163.02,12.856Zm-5.243,8.2L149.452,18.6l.12-.208a12.393,12.393,0,0,1,8.34-5.985l.236-.048Zm-7.754-2.682,7.4,2.18.331-7.728A12.007,12.007,0,0,0,150.022,18.376Z" fill="#44484a"/><path d="M160.315,13.3,157.7,20.771l-.041.117-.124,0-7.926.191,6.3,4.8.1.074-.036.12-2.27,7.61,6.514-4.505.1-.071.1.071,6.526,4.505L164.674,26.1l-.035-.119.1-.075,6.3-4.821-7.913-.181-.125,0-.041-.117L160.315,13.3Zm-2.916,7.24,2.746-7.839.169-.482.169.48,2.771,7.853,8.3.188.509.01-.4.312-6.609,5.056,2.379,7.958.148.489-.422-.289-6.844-4.727-6.832,4.727-.421.289.146-.489,2.381-7.981-6.608-5.034-.407-.31.512-.012,8.313-.2Z" fill="#44484a"/><polygon points="145.69 37.185 145.69 37.185 145.691 37.189 145.69 37.185" fill="#44484a"/><polygon points="144.974 35.727 145.69 37.185 145.69 37.185 144.974 35.727" fill="#44484a"/></g></svg>